<svg width="560" height="420" xmlns="http://www.w3.org/2000/svg" xmlns:xlink="http://www.w3.org/1999/xlink" xml:space="preserve" overflow="hidden"><defs><clipPath id="clip0"><rect x="3416" y="885" width="560" height="420"/></clipPath></defs><g clip-path="url(#clip0)" transform="translate(-3416 -885)"><path d="M3489 1244 3923 1244" stroke="#262626" stroke-width="0.7" stroke-linecap="square" stroke-linejoin="round" fill="none"/><path d="M3633.7 1244 3633.7 1239.7" stroke="#262626" stroke-width="0.7" stroke-linecap="square" stroke-linejoin="round" fill="none"/><path d="M3677.2 1244 3677.2 1239.7" stroke="#262626" stroke-width="0.7" stroke-linecap="square" stroke-linejoin="round" fill="none"/><path d="M3720.8 1244 3720.8 1239.7" stroke="#262626" stroke-width="0.7" stroke-linecap="square" stroke-linejoin="round" fill="none"/><path d="M3764.3 1244 3764.3 1239.7" stroke="#262626" stroke-width="0.7" stroke-linecap="square" stroke-linejoin="round" fill="none"/><path d="M3807.9 1244 3807.9 1239.7" stroke="#262626" stroke-width="0.7" stroke-linecap="square" stroke-linejoin="round" fill="none"/><path d="M3851.4 1244 3851.4 1239.7" stroke="#262626" stroke-width="0.7" stroke-linecap="square" stroke-linejoin="round" fill="none"/><path d="M3895 1244 3895 1239.7" stroke="#262626" stroke-width="0.7" stroke-linecap="square" stroke-linejoin="round" fill="none"/><path d="M3532.5 1244 3532.5 1239.7" stroke="#262626" stroke-width="0.7" stroke-linecap="square" stroke-linejoin="round" fill="none"/><path d="M3633.7 1244 3633.7 1241.8" stroke="#262626" stroke-width="0.7" stroke-linecap="square" stroke-linejoin="round" fill="none"/><path d="M3677.2 1244 3677.2 1241.8" stroke="#262626" stroke-width="0.7" stroke-linecap="square" stroke-linejoin="round" fill="none"/><path d="M3720.8 1244 3720.8 1241.8" stroke="#262626" stroke-width="0.7" stroke-linecap="square" stroke-linejoin="round" fill="none"/><path d="M3764.3 1244 3764.3 1241.8" stroke="#262626" stroke-width="0.7" stroke-linecap="square" stroke-linejoin="round" fill="none"/><text fill="#262626" font-family="Arial,Arial_MSFontService,sans-serif" font-weight="400" font-size="24" transform="translate(3620.2 1265)">10</text><text fill="#262626" font-family="Arial,Arial_MSFontService,sans-serif" font-weight="400" font-size="24" transform="translate(3663.7 1265)">20</text><text fill="#262626" font-family="Arial,Arial_MSFontService,sans-serif" font-weight="400" font-size="24" transform="translate(3707.3 1265)">40</text><text fill="#262626" font-family="Arial,Arial_MSFontService,sans-serif" font-weight="400" font-size="24" transform="translate(3750.8 1265)">80</text><text fill="#262626" font-family="Arial,Arial_MSFontService,sans-serif" font-weight="400" font-size="24" transform="translate(3785.4 1265)">160</text><text fill="#262626" font-family="Arial,Arial_MSFontService,sans-serif" font-weight="400" font-size="24" transform="translate(3831.9 1265)">320</text><text fill="#262626" font-family="Arial,Arial_MSFontService,sans-serif" font-weight="400" font-size="24" transform="translate(3880.5 1265)">640</text><path d="M3489 1244 3493.3 1244" stroke="#262626" stroke-width="0.7" stroke-linecap="square" stroke-linejoin="round" fill="none"/><text fill="#262626" font-family="Arial,Arial_MSFontService,sans-serif" font-weight="400" font-size="24" transform="translate(3523.7 1265)">0</text><path d="M3633.7 1046.6 3633.7 1068.9" stroke="#D95319" stroke-width="0.7" stroke-linejoin="round" fill="none"/><path d="M3677.2 1083.1 3677.2 1110.3" stroke="#D95319" stroke-width="0.7" stroke-linejoin="round" fill="none"/><path d="M3720.8 1162.4 3720.8 1183.2" stroke="#D95319" stroke-width="0.7" stroke-linejoin="round" fill="none"/><path d="M3764.3 1206.5 3764.3 1221.1" stroke="#D95319" stroke-width="0.7" stroke-linejoin="round" fill="none"/><path d="M3807.9 1176.8 3807.9 1198" stroke="#D95319" stroke-width="0.7" stroke-linejoin="round" fill="none"/><path d="M3633.7 1046.6 3633.7 1024.4" stroke="#D95319" stroke-width="0.7" stroke-linejoin="round" fill="none"/><path d="M3677.2 1083.1 3677.2 1055.9" stroke="#D95319" stroke-width="0.7" stroke-linejoin="round" fill="none"/><path d="M3720.8 1162.4 3720.8 1141.6" stroke="#D95319" stroke-width="0.7" stroke-linejoin="round" fill="none"/><path d="M3764.3 1206.5 3764.3 1191.9" stroke="#D95319" stroke-width="0.7" stroke-linejoin="round" fill="none"/><path d="M3807.9 1176.8 3807.9 1155.6" stroke="#D95319" stroke-width="0.7" stroke-linejoin="round" fill="none"/><path d="M3633.7 1046.6 3677.2 1083.1 3720.7 1162.4 3764.2 1206.5 3807.7 1176.8" stroke="#D95319" stroke-width="0.7" stroke-linejoin="round" fill="none"/><path d="M3637.7 1046.6C3637.7 1048.81 3635.91 1050.6 3633.7 1050.6 3631.49 1050.6 3629.7 1048.81 3629.7 1046.6 3629.7 1044.39 3631.49 1042.6 3633.7 1042.6 3635.91 1042.6 3637.7 1044.39 3637.7 1046.6Z" fill="#FFFFFF"/><path d="M3633.7 1043C3635.7 1043 3637.4 1044.6 3637.4 1046.7L3637.4 1046.7C3637.4 1048.7 3635.8 1050.4 3633.7 1050.4 3631.6 1050.4 3630 1048.8 3630 1046.7 3630 1044.6 3631.6 1043 3633.7 1043ZM3633.7 1042.3C3631.3 1042.3 3629.4 1044.2 3629.4 1046.6 3629.4 1049 3631.3 1050.9 3633.7 1050.9 3636.1 1050.9 3638 1049 3638 1046.6L3638 1046.6C3638 1044.2 3636.1 1042.3 3633.7 1042.3Z" fill="#D95319"/><path d="M3681.2 1083.1C3681.2 1085.31 3679.41 1087.1 3677.2 1087.1 3674.99 1087.1 3673.2 1085.31 3673.2 1083.1 3673.2 1080.89 3674.99 1079.1 3677.2 1079.1 3679.41 1079.1 3681.2 1080.89 3681.2 1083.1Z" fill="#FFFFFF"/><path d="M3677.2 1079.4C3679.2 1079.4 3680.9 1081 3680.9 1083.1L3680.9 1083.1C3680.9 1085.1 3679.3 1086.8 3677.2 1086.8 3675.1 1086.8 3673.5 1085.2 3673.5 1083.1 3673.5 1081 3675.1 1079.4 3677.2 1079.4ZM3677.2 1078.8C3674.8 1078.8 3672.9 1080.7 3672.9 1083.1 3672.9 1085.5 3674.8 1087.4 3677.2 1087.4 3679.6 1087.4 3681.5 1085.5 3681.5 1083.1L3681.5 1083.1C3681.5 1080.7 3679.6 1078.8 3677.2 1078.8Z" fill="#D95319"/><path d="M3724.8 1162.4C3724.8 1164.61 3723.01 1166.4 3720.8 1166.4 3718.59 1166.4 3716.8 1164.61 3716.8 1162.4 3716.8 1160.19 3718.59 1158.4 3720.8 1158.4 3723.01 1158.4 3724.8 1160.19 3724.8 1162.4Z" fill="#FFFFFF"/><path d="M3720.8 1158.8C3722.8 1158.8 3724.5 1160.4 3724.5 1162.5L3724.5 1162.5C3724.5 1164.5 3722.9 1166.2 3720.8 1166.2 3718.7 1166.2 3717.1 1164.6 3717.1 1162.5 3717.1 1160.4 3718.7 1158.8 3720.8 1158.8ZM3720.8 1158.1C3718.4 1158.1 3716.5 1160 3716.5 1162.4 3716.5 1164.8 3718.4 1166.7 3720.8 1166.7 3723.2 1166.7 3725.1 1164.8 3725.1 1162.4L3725.1 1162.4C3725.1 1160 3723.2 1158.1 3720.8 1158.1Z" fill="#D95319"/><path d="M3768.3 1206.5C3768.3 1208.71 3766.51 1210.5 3764.3 1210.5 3762.09 1210.5 3760.3 1208.71 3760.3 1206.5 3760.3 1204.29 3762.09 1202.5 3764.3 1202.5 3766.51 1202.5 3768.3 1204.29 3768.3 1206.5Z" fill="#FFFFFF"/><path d="M3764.3 1202.9C3766.3 1202.9 3768 1204.5 3768 1206.6L3768 1206.6C3768 1208.6 3766.4 1210.3 3764.3 1210.3 3762.2 1210.3 3760.6 1208.7 3760.6 1206.6 3760.6 1204.5 3762.2 1202.9 3764.3 1202.9ZM3764.3 1202.2C3761.9 1202.2 3760 1204.1 3760 1206.5 3760 1208.9 3761.9 1210.8 3764.3 1210.8 3766.7 1210.8 3768.6 1208.9 3768.6 1206.5L3768.6 1206.5C3768.6 1204.1 3766.7 1202.2 3764.3 1202.2Z" fill="#D95319"/><path d="M3811.9 1176.8C3811.9 1179.01 3810.11 1180.8 3807.9 1180.8 3805.69 1180.8 3803.9 1179.01 3803.9 1176.8 3803.9 1174.59 3805.69 1172.8 3807.9 1172.8 3810.11 1172.8 3811.9 1174.59 3811.9 1176.8Z" fill="#FFFFFF"/><path d="M3807.9 1173.1C3809.9 1173.1 3811.6 1174.7 3811.6 1176.8L3811.6 1176.8C3811.6 1178.8 3810 1180.5 3807.9 1180.5 3805.8 1180.5 3804.2 1178.9 3804.2 1176.8 3804.2 1174.7 3805.8 1173.1 3807.9 1173.1ZM3807.9 1172.5C3805.5 1172.5 3803.6 1174.4 3803.6 1176.8 3803.6 1179.2 3805.5 1181.1 3807.9 1181.1 3810.3 1181.1 3812.2 1179.2 3812.2 1176.8L3812.2 1176.8C3812.2 1174.4 3810.3 1172.5 3807.9 1172.5Z" fill="#D95319"/><path d="M3677.2 1034.2 3677.2 1059.2" stroke="#7E2F8E" stroke-width="0.7" stroke-linejoin="round" fill="none"/><path d="M3720.8 1093.8 3720.8 1116.7" stroke="#7E2F8E" stroke-width="0.7" stroke-linejoin="round" fill="none"/><path d="M3764.3 1172.8 3764.3 1199.9" stroke="#7E2F8E" stroke-width="0.7" stroke-linejoin="round" fill="none"/><path d="M3807.9 1202.4 3807.9 1211.3" stroke="#7E2F8E" stroke-width="0.7" stroke-linejoin="round" fill="none"/><path d="M3851.4 1172.9 3851.4 1189.5" stroke="#7E2F8E" stroke-width="0.7" stroke-linejoin="round" fill="none"/><path d="M3677.2 1034.2 3677.2 1009.2" stroke="#7E2F8E" stroke-width="0.7" stroke-linejoin="round" fill="none"/><path d="M3720.8 1093.8 3720.8 1071" stroke="#7E2F8E" stroke-width="0.7" stroke-linejoin="round" fill="none"/><path d="M3764.3 1172.8 3764.3 1145.7" stroke="#7E2F8E" stroke-width="0.7" stroke-linejoin="round" fill="none"/><path d="M3807.9 1202.4 3807.9 1193.6" stroke="#7E2F8E" stroke-width="0.7" stroke-linejoin="round" fill="none"/><path d="M3851.4 1172.9 3851.4 1156.3" stroke="#7E2F8E" stroke-width="0.7" stroke-linejoin="round" fill="none"/><path d="M3677.2 1034.2 3720.7 1093.8 3764.2 1172.8 3807.7 1202.4 3851.2 1172.9" stroke="#7E2F8E" stroke-width="0.7" stroke-linejoin="round" fill="none"/><path d="M3681.2 1034.2C3681.2 1036.41 3679.41 1038.2 3677.2 1038.2 3674.99 1038.2 3673.2 1036.41 3673.2 1034.2 3673.2 1031.99 3674.99 1030.2 3677.2 1030.2 3679.41 1030.2 3681.2 1031.99 3681.2 1034.2Z" fill="#7E2F8E"/><path d="M3677.2 1030.6C3679.2 1030.6 3680.9 1032.2 3680.9 1034.3L3680.9 1034.3C3680.9 1036.3 3679.3 1038 3677.2 1038 3675.1 1038 3673.5 1036.4 3673.5 1034.3 3673.5 1032.2 3675.1 1030.6 3677.2 1030.6ZM3677.2 1029.9C3674.8 1029.9 3672.9 1031.8 3672.9 1034.2 3672.9 1036.6 3674.8 1038.5 3677.2 1038.5 3679.6 1038.5 3681.5 1036.6 3681.5 1034.2L3681.5 1034.2C3681.5 1031.8 3679.6 1029.9 3677.2 1029.9Z" fill="#7E2F8E"/><path d="M3724.8 1093.8C3724.8 1096.01 3723.01 1097.8 3720.8 1097.8 3718.59 1097.8 3716.8 1096.01 3716.8 1093.8 3716.8 1091.59 3718.59 1089.8 3720.8 1089.8 3723.01 1089.8 3724.8 1091.59 3724.8 1093.8Z" fill="#7E2F8E"/><path d="M3720.8 1090.2C3722.8 1090.2 3724.5 1091.8 3724.5 1093.9L3724.5 1093.9C3724.5 1095.9 3722.9 1097.6 3720.8 1097.6 3718.7 1097.6 3717.1 1096 3717.1 1093.9 3717.1 1091.8 3718.7 1090.2 3720.8 1090.2ZM3720.8 1089.5C3718.4 1089.5 3716.5 1091.4 3716.5 1093.8 3716.5 1096.2 3718.4 1098.1 3720.8 1098.1 3723.2 1098.1 3725.1 1096.2 3725.1 1093.8L3725.1 1093.8C3725.1 1091.4 3723.2 1089.5 3720.8 1089.5Z" fill="#7E2F8E"/><path d="M3768.3 1172.8C3768.3 1175.01 3766.51 1176.8 3764.3 1176.8 3762.09 1176.8 3760.3 1175.01 3760.3 1172.8 3760.3 1170.59 3762.09 1168.8 3764.3 1168.8 3766.51 1168.8 3768.3 1170.59 3768.3 1172.8Z" fill="#7E2F8E"/><path d="M3764.3 1169.2C3766.3 1169.2 3768 1170.8 3768 1172.9L3768 1172.9C3768 1174.9 3766.4 1176.6 3764.3 1176.6 3762.2 1176.6 3760.6 1175 3760.6 1172.9 3760.6 1170.8 3762.2 1169.2 3764.3 1169.2ZM3764.3 1168.5C3761.9 1168.5 3760 1170.4 3760 1172.8 3760 1175.2 3761.9 1177.1 3764.3 1177.1 3766.7 1177.1 3768.6 1175.2 3768.6 1172.8L3768.6 1172.8C3768.6 1170.4 3766.7 1168.5 3764.3 1168.5Z" fill="#7E2F8E"/><path d="M3811.9 1202.4C3811.9 1204.61 3810.11 1206.4 3807.9 1206.4 3805.69 1206.4 3803.9 1204.61 3803.9 1202.4 3803.9 1200.19 3805.69 1198.4 3807.9 1198.4 3810.11 1198.4 3811.9 1200.19 3811.9 1202.4Z" fill="#7E2F8E"/><path d="M3807.9 1198.8C3809.9 1198.8 3811.6 1200.4 3811.6 1202.5L3811.6 1202.5C3811.6 1204.5 3810 1206.2 3807.9 1206.2 3805.8 1206.2 3804.2 1204.6 3804.2 1202.5 3804.2 1200.4 3805.8 1198.8 3807.9 1198.8ZM3807.9 1198.1C3805.5 1198.1 3803.6 1200 3803.6 1202.4 3803.6 1204.8 3805.5 1206.7 3807.9 1206.7 3810.3 1206.7 3812.2 1204.8 3812.2 1202.4L3812.2 1202.4C3812.2 1200 3810.3 1198.1 3807.9 1198.1Z" fill="#7E2F8E"/><path d="M3855.4 1172.9C3855.4 1175.11 3853.61 1176.9 3851.4 1176.9 3849.19 1176.9 3847.4 1175.11 3847.4 1172.9 3847.4 1170.69 3849.19 1168.9 3851.4 1168.9 3853.61 1168.9 3855.4 1170.69 3855.4 1172.9Z" fill="#7E2F8E"/><path d="M3851.4 1169.2C3853.4 1169.2 3855.1 1170.8 3855.1 1172.9L3855.1 1172.9C3855.1 1174.9 3853.5 1176.6 3851.4 1176.6 3849.3 1176.6 3847.7 1175 3847.7 1172.9 3847.7 1170.8 3849.3 1169.2 3851.4 1169.2ZM3851.4 1168.6C3849 1168.6 3847.1 1170.5 3847.1 1172.9 3847.1 1175.3 3849 1177.2 3851.4 1177.2 3853.8 1177.2 3855.7 1175.3 3855.7 1172.9L3855.7 1172.9C3855.7 1170.5 3853.8 1168.6 3851.4 1168.6Z" fill="#7E2F8E"/><path d="M3720.8 1042.9 3720.8 1076.2" stroke="#4DBEEE" stroke-width="0.7" stroke-linejoin="round" fill="none"/><path d="M3764.3 1118.5 3764.3 1140" stroke="#4DBEEE" stroke-width="0.7" stroke-linejoin="round" fill="none"/><path d="M3807.9 1152.4 3807.9 1183.5" stroke="#4DBEEE" stroke-width="0.7" stroke-linejoin="round" fill="none"/><path d="M3851.4 1174.8 3851.4 1195.5" stroke="#4DBEEE" stroke-width="0.7" stroke-linejoin="round" fill="none"/><path d="M3895 1125.8 3895 1149.2" stroke="#4DBEEE" stroke-width="0.7" stroke-linejoin="round" fill="none"/><path d="M3720.8 1042.9 3720.8 1009.5" stroke="#4DBEEE" stroke-width="0.7" stroke-linejoin="round" fill="none"/><path d="M3764.3 1118.5 3764.3 1097" stroke="#4DBEEE" stroke-width="0.7" stroke-linejoin="round" fill="none"/><path d="M3807.9 1152.4 3807.9 1121.3" stroke="#4DBEEE" stroke-width="0.7" stroke-linejoin="round" fill="none"/><path d="M3851.4 1174.8 3851.4 1154.2" stroke="#4DBEEE" stroke-width="0.7" stroke-linejoin="round" fill="none"/><path d="M3895 1125.8 3895 1102.4" stroke="#4DBEEE" stroke-width="0.7" stroke-linejoin="round" fill="none"/><path d="M3720.8 1042.9 3764.3 1118.5 3807.8 1152.3 3851.3 1174.8 3894.8 1125.8" stroke="#4DBEEE" stroke-width="0.7" stroke-linejoin="round" fill="none"/><path d="M3724.8 1042.9C3724.8 1045.11 3723.01 1046.9 3720.8 1046.9 3718.59 1046.9 3716.8 1045.11 3716.8 1042.9 3716.8 1040.69 3718.59 1038.9 3720.8 1038.9 3723.01 1038.9 3724.8 1040.69 3724.8 1042.9Z" fill="#FFFFFF"/><path d="M3720.8 1039.2C3722.8 1039.2 3724.5 1040.8 3724.5 1042.9L3724.5 1042.9C3724.5 1044.9 3722.9 1046.6 3720.8 1046.6 3718.7 1046.6 3717.1 1045 3717.1 1042.9 3717.1 1040.8 3718.7 1039.2 3720.8 1039.2ZM3720.8 1038.6C3718.4 1038.6 3716.5 1040.5 3716.5 1042.9 3716.5 1045.3 3718.4 1047.2 3720.8 1047.2 3723.2 1047.2 3725.1 1045.3 3725.1 1042.9L3725.1 1042.9C3725.1 1040.5 3723.2 1038.6 3720.8 1038.6Z" fill="#4DBEEE"/><path d="M3768.3 1118.5C3768.3 1120.71 3766.51 1122.5 3764.3 1122.5 3762.09 1122.5 3760.3 1120.71 3760.3 1118.5 3760.3 1116.29 3762.09 1114.5 3764.3 1114.5 3766.51 1114.5 3768.3 1116.29 3768.3 1118.5Z" fill="#FFFFFF"/><path d="M3764.3 1114.9C3766.3 1114.9 3768 1116.5 3768 1118.6L3768 1118.6C3768 1120.6 3766.4 1122.3 3764.3 1122.3 3762.2 1122.3 3760.6 1120.7 3760.6 1118.6 3760.6 1116.5 3762.2 1114.9 3764.3 1114.9ZM3764.3 1114.2C3761.9 1114.2 3760 1116.1 3760 1118.5 3760 1120.9 3761.9 1122.8 3764.3 1122.8 3766.7 1122.8 3768.6 1120.9 3768.6 1118.5L3768.6 1118.5C3768.6 1116.1 3766.7 1114.2 3764.3 1114.2Z" fill="#4DBEEE"/><path d="M3811.9 1152.4C3811.9 1154.61 3810.11 1156.4 3807.9 1156.4 3805.69 1156.4 3803.9 1154.61 3803.9 1152.4 3803.9 1150.19 3805.69 1148.4 3807.9 1148.4 3810.11 1148.4 3811.9 1150.19 3811.9 1152.4Z" fill="#FFFFFF"/><path d="M3807.9 1148.7C3809.9 1148.7 3811.6 1150.3 3811.6 1152.4L3811.6 1152.4C3811.6 1154.4 3810 1156.1 3807.9 1156.1 3805.8 1156.1 3804.2 1154.5 3804.2 1152.4 3804.2 1150.3 3805.8 1148.7 3807.9 1148.7ZM3807.9 1148C3805.5 1148 3803.6 1149.9 3803.6 1152.3 3803.6 1154.7 3805.5 1156.6 3807.9 1156.6 3810.3 1156.6 3812.2 1154.7 3812.2 1152.3L3812.2 1152.3C3812.2 1149.9 3810.3 1148 3807.9 1148Z" fill="#4DBEEE"/><path d="M3855.4 1174.8C3855.4 1177.01 3853.61 1178.8 3851.4 1178.8 3849.19 1178.8 3847.4 1177.01 3847.4 1174.8 3847.4 1172.59 3849.19 1170.8 3851.4 1170.8 3853.61 1170.8 3855.4 1172.59 3855.4 1174.8Z" fill="#FFFFFF"/><path d="M3851.4 1171.2C3853.4 1171.2 3855.1 1172.8 3855.1 1174.9L3855.1 1174.9C3855.1 1176.9 3853.5 1178.6 3851.4 1178.6 3849.3 1178.6 3847.7 1177 3847.7 1174.9 3847.7 1172.8 3849.3 1171.2 3851.4 1171.2ZM3851.4 1170.5C3849 1170.5 3847.1 1172.4 3847.1 1174.8 3847.1 1177.2 3849 1179.1 3851.4 1179.1 3853.8 1179.1 3855.7 1177.2 3855.7 1174.8L3855.7 1174.8C3855.7 1172.4 3853.8 1170.5 3851.4 1170.5Z" fill="#4DBEEE"/><path d="M3899 1125.8C3899 1128.01 3897.21 1129.8 3895 1129.8 3892.79 1129.8 3891 1128.01 3891 1125.8 3891 1123.59 3892.79 1121.8 3895 1121.8 3897.21 1121.8 3899 1123.59 3899 1125.8Z" fill="#FFFFFF"/><path d="M3895 1122.1C3897 1122.1 3898.7 1123.7 3898.7 1125.8L3898.7 1125.8C3898.7 1127.8 3897.1 1129.5 3895 1129.5 3892.9 1129.5 3891.3 1127.9 3891.3 1125.8 3891.3 1123.7 3892.9 1122.1 3895 1122.1ZM3895 1121.5C3892.6 1121.5 3890.7 1123.4 3890.7 1125.8 3890.7 1128.2 3892.6 1130.1 3895 1130.1 3897.4 1130.1 3899.3 1128.2 3899.3 1125.8L3899.3 1125.8C3899.3 1123.4 3897.4 1121.5 3895 1121.5Z" fill="#4DBEEE"/><path d="M3546.6 971.8 3546.6 1003.4" stroke="#D95319" stroke-width="0.7" stroke-linejoin="round" fill="none"/><path d="M3546.6 971.8 3546.6 940.2" stroke="#D95319" stroke-width="0.7" stroke-linejoin="round" fill="none"/><path d="M3550.6 971.8C3550.6 974.009 3548.81 975.8 3546.6 975.8 3544.39 975.8 3542.6 974.009 3542.6 971.8 3542.6 969.591 3544.39 967.8 3546.6 967.8 3548.81 967.8 3550.6 969.591 3550.6 971.8Z" fill="#FFFFFF"/><path d="M3546.6 968.1C3548.6 968.1 3550.3 969.7 3550.3 971.8L3550.3 971.8C3550.3 973.8 3548.7 975.5 3546.6 975.5 3544.5 975.5 3542.9 973.9 3542.9 971.8 3542.9 969.7 3544.5 968.1 3546.6 968.1ZM3546.6 967.4C3544.2 967.4 3542.3 969.3 3542.3 971.7 3542.3 974.1 3544.2 976 3546.6 976 3549 976 3550.9 974.1 3550.9 971.7L3550.9 971.7C3550.9 969.3 3549 967.4 3546.6 967.4Z" fill="#D95319"/><path d="M3546.6 982.4 3546.6 1013.1" stroke="#7E2F8E" stroke-width="0.7" stroke-linejoin="round" fill="none"/><path d="M3546.6 982.4 3546.6 951.6" stroke="#7E2F8E" stroke-width="0.7" stroke-linejoin="round" fill="none"/><path d="M3550.6 982.4C3550.6 984.609 3548.81 986.4 3546.6 986.4 3544.39 986.4 3542.6 984.609 3542.6 982.4 3542.6 980.191 3544.39 978.4 3546.6 978.4 3548.81 978.4 3550.6 980.191 3550.6 982.4Z" fill="#7E2F8E"/><path d="M3546.6 978.7C3548.6 978.7 3550.3 980.3 3550.3 982.4L3550.3 982.4C3550.3 984.4 3548.7 986.1 3546.6 986.1 3544.5 986.1 3542.9 984.5 3542.9 982.4 3542.9 980.3 3544.5 978.7 3546.6 978.7ZM3546.6 978C3544.2 978 3542.3 979.9 3542.3 982.3 3542.3 984.7 3544.2 986.6 3546.6 986.6 3549 986.6 3550.9 984.7 3550.9 982.3L3550.9 982.3C3550.9 979.9 3549 978 3546.6 978Z" fill="#7E2F8E"/><path d="M3546.6 974.1 3546.6 1000.3" stroke="#4DBEEE" stroke-width="0.7" stroke-linejoin="round" fill="none"/><path d="M3546.6 974.1 3546.6 947.8" stroke="#4DBEEE" stroke-width="0.7" stroke-linejoin="round" fill="none"/><path d="M3550.6 974.1C3550.6 976.309 3548.81 978.1 3546.6 978.1 3544.39 978.1 3542.6 976.309 3542.6 974.1 3542.6 971.891 3544.39 970.1 3546.6 970.1 3548.81 970.1 3550.6 971.891 3550.6 974.1Z" fill="#FFFFFF"/><path d="M3546.6 970.4C3548.6 970.4 3550.3 972 3550.3 974.1L3550.3 974.1C3550.3 976.1 3548.7 977.8 3546.6 977.8 3544.5 977.8 3542.9 976.2 3542.9 974.1 3542.9 972 3544.5 970.4 3546.6 970.4ZM3546.6 969.8C3544.2 969.8 3542.3 971.7 3542.3 974.1 3542.3 976.5 3544.2 978.4 3546.6 978.4 3549 978.4 3550.9 976.5 3550.9 974.1L3550.9 974.1C3550.9 971.7 3549 969.8 3546.6 969.8Z" fill="#4DBEEE"/><text font-family="Arial,Arial_MSFontService,sans-serif" font-weight="400" font-size="24" transform="translate(3654.6 1292)">v</text><text font-family="Arial,Arial_MSFontService,sans-serif" font-weight="400" font-size="24" transform="matrix(0.6 0 0 0.6 3666.6 1300)">Background</text><text fill="#262626" font-family="Arial,Arial_MSFontService,sans-serif" font-weight="400" font-size="24" transform="translate(3741.3 1292)">(</text><text fill="#262626" font-family="Arial,Arial_MSFontService,sans-serif" font-weight="400" font-size="24" transform="translate(3749.3 1292)">째</text><text fill="#262626" font-family="Arial,Arial_MSFontService,sans-serif" font-weight="400" font-size="24" transform="translate(3759.3 1292)">/</text><text fill="#262626" font-family="Arial,Arial_MSFontService,sans-serif" font-weight="400" font-size="24" transform="translate(3766.3 1292)">s</text><text fill="#262626" font-family="Arial,Arial_MSFontService,sans-serif" font-weight="400" font-size="24" transform="translate(3778.3 1292)">)</text><path d="M3488.2 1243.5 3488.2 1186.8" stroke="#000000" stroke-width="0.7" stroke-linejoin="round" fill="none"/><path d="M3460.5 1212.1 3458.4 1212.1 3458.4 1198.7C3457.9 1199.2 3457.2 1199.7 3456.4 1200.2 3455.6 1200.7 3454.8 1201 3454.2 1201.3L3454.2 1199.3C3455.4 1198.7 3456.4 1198.1 3457.3 1197.3 3458.2 1196.5 3458.8 1195.7 3459.2 1195L3460.6 1195 3460.6 1212.2Z"/><path d="M3467 1212.1 3467 1209.7 3469.4 1209.7 3469.4 1212.1 3467 1212.1Z"/><path d="M3472.5 1203.6C3472.5 1201.6 3472.7 1199.9 3473.1 1198.7 3473.5 1197.5 3474.1 1196.5 3475 1195.8 3475.9 1195.1 3476.9 1194.8 3478.1 1194.8 3479.3 1194.8 3479.8 1195 3480.5 1195.4 3481.2 1195.8 3481.8 1196.3 3482.2 1197 3482.6 1197.7 3483 1198.6 3483.3 1199.6 3483.6 1200.6 3483.7 1202 3483.7 1203.7 3483.7 1205.4 3483.5 1207.3 3483.1 1208.6 3482.7 1209.9 3482.1 1210.8 3481.2 1211.5 3480.3 1212.2 3479.3 1212.5 3478.1 1212.5 3476.9 1212.5 3475.1 1211.9 3474.2 1210.7 3473.1 1209.3 3472.5 1206.9 3472.5 1203.7ZM3474.7 1203.6C3474.7 1206.4 3475 1208.3 3475.7 1209.2 3476.4 1210.1 3477.2 1210.6 3478.1 1210.6 3479 1210.6 3479.9 1210.1 3480.5 1209.2 3481.1 1208.3 3481.5 1206.4 3481.5 1203.6 3481.5 1200.8 3481.2 1198.9 3480.5 1198 3479.8 1197.1 3479 1196.6 3478 1196.6 3477 1196.6 3476.3 1197 3475.7 1197.8 3475 1198.8 3474.6 1200.8 3474.6 1203.6Z"/><path d="M3432.8 1240.9 3439.4 1223.7 3441.8 1223.7 3448.8 1240.9 3432.7 1240.9ZM3436 1238.9 3445.6 1238.9 3441.9 1229.1C3441.3 1227.6 3440.9 1226.4 3440.7 1225.5 3440.5 1226.6 3440.2 1227.7 3439.8 1228.8L3436.1 1238.9Z"/><path d="M3450.9 1240.9 3450.9 1223.7 3462.5 1223.7 3462.5 1225.7 3453.2 1225.7 3453.2 1231 3461.3 1231 3461.3 1233 3453.2 1233 3453.2 1240.8 3450.9 1240.8Z"/><path d="M3463.5 1241.2 3468.5 1223.4 3470.2 1223.4 3465.2 1241.2 3463.5 1241.2Z"/><path d="M3472.2 1240.9 3472.2 1223.7 3483.8 1223.7 3483.8 1225.7 3474.5 1225.7 3474.5 1231 3482.6 1231 3482.6 1233 3474.5 1233 3474.5 1240.8 3472.2 1240.8Z"/><path d="" stroke="#262626" stroke-width="0.7" stroke-linecap="square" stroke-linejoin="round" fill="none"/><path d="M4483.3 1375.2 4483.3 1373" stroke="#262626" stroke-width="0.7" stroke-linecap="square" stroke-linejoin="round" fill="none"/><path d="M4489.9 1375.2 4489.9 1373" stroke="#262626" stroke-width="0.7" stroke-linecap="square" stroke-linejoin="round" fill="none"/><path d="M3765 947.9 3765 1018.9 3884 1018.9" fill="#FFFFFF"/><text font-family="Arial,Arial_MSFontService,sans-serif" font-weight="400" font-size="20" transform="translate(3812 965)">v</text><text font-family="Arial,Arial_MSFontService,sans-serif" font-weight="400" font-size="20" transform="matrix(0.6 0 0 0.6 3822 972)">bar</text><text font-family="Arial,Arial_MSFontService,sans-serif" font-weight="400" font-size="20" transform="translate(3838.9 965)">= </text><text font-family="Arial,Arial_MSFontService,sans-serif" font-weight="400" font-size="20" transform="translate(3856.9 965)">40</text><text font-family="Arial,Arial_MSFontService,sans-serif" font-weight="400" font-size="20" transform="translate(3878.9 965)">째</text><text font-family="Arial,Arial_MSFontService,sans-serif" font-weight="400" font-size="20" transform="translate(3886.9 965)">/</text><text font-family="Arial,Arial_MSFontService,sans-serif" font-weight="400" font-size="20" transform="translate(3892.9 965)">s</text><path d="M3769 960.9 3809 960.9" stroke="#D95319" stroke-width="0.7" stroke-linejoin="round" fill="none"/><path d="M3789 969.2 3789 952.7" stroke="#D95319" stroke-width="0.7" stroke-linejoin="round" fill="none"/><path d="M3793 960.9C3793 963.109 3791.21 964.9 3789 964.9 3786.79 964.9 3785 963.109 3785 960.9 3785 958.691 3786.79 956.9 3789 956.9 3791.21 956.9 3793 958.691 3793 960.9Z" fill="#FFFFFF"/><path d="M3789 957.3C3791 957.3 3792.7 958.9 3792.7 961L3792.7 961C3792.7 963 3791.1 964.7 3789 964.7 3786.9 964.7 3785.3 963.1 3785.3 961 3785.3 958.9 3786.9 957.3 3789 957.3ZM3789 956.6C3786.6 956.6 3784.7 958.5 3784.7 960.9 3784.7 963.3 3786.6 965.2 3789 965.2 3791.4 965.2 3793.3 963.3 3793.3 960.9L3793.3 960.9C3793.3 958.5 3791.4 956.6 3789 956.6Z" fill="#D95319"/><path d="M3769 988.4 3809 988.4" stroke="#7E2F8E" stroke-width="0.7" stroke-linejoin="round" fill="none"/><path d="M3789 996.7 3789 980.2" stroke="#7E2F8E" stroke-width="0.7" stroke-linejoin="round" fill="none"/><path d="M3793 988.4C3793 990.609 3791.21 992.4 3789 992.4 3786.79 992.4 3785 990.609 3785 988.4 3785 986.191 3786.79 984.4 3789 984.4 3791.21 984.4 3793 986.191 3793 988.4Z" fill="#7E2F8E"/><path d="M3789 984.8C3791 984.8 3792.7 986.4 3792.7 988.5L3792.7 988.5C3792.7 990.5 3791.1 992.2 3789 992.2 3786.9 992.2 3785.3 990.6 3785.3 988.5 3785.3 986.4 3786.9 984.8 3789 984.8ZM3793.4 988.4 3793.4 988.4C3793.4 986 3791.5 984.1 3789.1 984.1 3786.7 984.1 3784.8 986 3784.8 988.4 3784.8 990.8 3786.7 992.7 3789.1 992.7" fill="#7E2F8E"/><path d="M3769 1010.9 3809 1010.9" stroke="#4DBEEE" stroke-width="0.7" stroke-linejoin="round" fill="none"/><path d="M3789 1019.2 3789 1002.7" stroke="#4DBEEE" stroke-width="0.7" stroke-linejoin="round" fill="none"/><path d="M3793 1010.9C3793 1013.11 3791.21 1014.9 3789 1014.9 3786.79 1014.9 3785 1013.11 3785 1010.9 3785 1008.69 3786.79 1006.9 3789 1006.9 3791.21 1006.9 3793 1008.69 3793 1010.9Z" fill="#FFFFFF"/><path d="M3789 1007.3C3791 1007.3 3792.7 1008.9 3792.7 1011L3792.7 1011C3792.7 1013 3791.1 1014.7 3789 1014.7 3786.9 1014.7 3785.3 1013.1 3785.3 1011 3785.3 1008.9 3786.9 1007.3 3789 1007.3ZM3789 1006.6C3786.6 1006.6 3784.7 1008.5 3784.7 1010.9 3784.7 1013.3 3786.6 1015.2 3789 1015.2 3791.4 1015.2 3793.3 1013.3 3793.3 1010.9L3793.3 1010.9C3793.3 1008.5 3791.4 1006.6 3789 1006.6Z" fill="#4DBEEE"/><text font-family="Arial,Arial_MSFontService,sans-serif" font-weight="400" font-size="20" transform="translate(3812 991)">v</text><text font-family="Arial,Arial_MSFontService,sans-serif" font-weight="400" font-size="20" transform="matrix(0.6 0 0 0.6 3822 998)">bar</text><text font-family="Arial,Arial_MSFontService,sans-serif" font-weight="400" font-size="20" transform="translate(3838.9 991)">= </text><text font-family="Arial,Arial_MSFontService,sans-serif" font-weight="400" font-size="20" transform="translate(3856.9 991)">80</text><text font-family="Arial,Arial_MSFontService,sans-serif" font-weight="400" font-size="20" transform="translate(3878.9 991)">째</text><text font-family="Arial,Arial_MSFontService,sans-serif" font-weight="400" font-size="20" transform="translate(3886.9 991)">/</text><text font-family="Arial,Arial_MSFontService,sans-serif" font-weight="400" font-size="20" transform="translate(3892.9 991)">s</text><text font-family="Arial,Arial_MSFontService,sans-serif" font-weight="400" font-size="20" transform="translate(3812 1016)">v</text><text font-family="Arial,Arial_MSFontService,sans-serif" font-weight="400" font-size="20" transform="matrix(0.6 0 0 0.6 3822 1023)">bar</text><text font-family="Arial,Arial_MSFontService,sans-serif" font-weight="400" font-size="20" transform="translate(3838.9 1016)">= </text><text font-family="Arial,Arial_MSFontService,sans-serif" font-weight="400" font-size="20" transform="translate(3856.9 1016)">160</text><text font-family="Arial,Arial_MSFontService,sans-serif" font-weight="400" font-size="20" transform="translate(3889.9 1016)">째</text><text font-family="Arial,Arial_MSFontService,sans-serif" font-weight="400" font-size="20" transform="translate(3897.9 1016)">/</text><text font-family="Arial,Arial_MSFontService,sans-serif" font-weight="400" font-size="20" transform="translate(3903.9 1016)">s</text></g></svg>