<svg width="146" height="109" xmlns="http://www.w3.org/2000/svg" xmlns:xlink="http://www.w3.org/1999/xlink" xml:space="preserve" overflow="hidden"><g transform="translate(-580 -202)"><path d="M18.9452 93.4286 131.579 93.4286" stroke="#262626" stroke-width="0.181667" stroke-linecap="square" stroke-linejoin="round" fill="none" transform="matrix(1.00459 0 0 1 580 202)"/><path d="M62.0521 93.4286 62.0521 92.3126" stroke="#262626" stroke-width="0.181667" stroke-linecap="square" stroke-linejoin="round" fill="none" transform="matrix(1.00459 0 0 1 580 202)"/><path d="M78.7136 93.4286 78.7136 92.3126" stroke="#262626" stroke-width="0.181667" stroke-linecap="square" stroke-linejoin="round" fill="none" transform="matrix(1.00459 0 0 1 580 202)"/><path d="M95.401 93.4286 95.401 92.3126" stroke="#262626" stroke-width="0.181667" stroke-linecap="square" stroke-linejoin="round" fill="none" transform="matrix(1.00459 0 0 1 580 202)"/><path d="M112.062 93.4286 112.062 92.3126" stroke="#262626" stroke-width="0.181667" stroke-linecap="square" stroke-linejoin="round" fill="none" transform="matrix(1.00459 0 0 1 580 202)"/><path d="M128.75 93.4286 128.75 92.3126" stroke="#262626" stroke-width="0.181667" stroke-linecap="square" stroke-linejoin="round" fill="none" transform="matrix(1.00459 0 0 1 580 202)"/><path d="" stroke="#262626" stroke-width="0.181667" stroke-linecap="square" stroke-linejoin="round" fill="none" transform="matrix(1.00459 0 0 1 580 202)"/><path d="" stroke="#262626" stroke-width="0.181667" stroke-linecap="square" stroke-linejoin="round" fill="none" transform="matrix(1.00459 0 0 1 580 202)"/><path d="M78.7136 93.4286 78.7136 92.8576" stroke="#262626" stroke-width="0.181667" stroke-linecap="square" stroke-linejoin="round" fill="none" transform="matrix(1.00459 0 0 1 580 202)"/><path d="M95.401 93.4286 95.401 92.8576" stroke="#262626" stroke-width="0.181667" stroke-linecap="square" stroke-linejoin="round" fill="none" transform="matrix(1.00459 0 0 1 580 202)"/><path d="M112.062 93.4286 112.062 92.8576" stroke="#262626" stroke-width="0.181667" stroke-linecap="square" stroke-linejoin="round" fill="none" transform="matrix(1.00459 0 0 1 580 202)"/><path d="M128.75 93.4286 128.75 92.8576" stroke="#262626" stroke-width="0.181667" stroke-linecap="square" stroke-linejoin="round" fill="none" transform="matrix(1.00459 0 0 1 580 202)"/><text fill="#262626" font-family="Arial,Arial_MSFontService,sans-serif" font-weight="400" font-size="24" transform="matrix(0.260714 0 0 0.259524 637.905 301)">0</text><text fill="#262626" font-family="Arial,Arial_MSFontService,sans-serif" font-weight="400" font-size="24" transform="matrix(0.260714 0 0 0.259524 641.294 301)">.</text><text fill="#262626" font-family="Arial,Arial_MSFontService,sans-serif" font-weight="400" font-size="24" transform="matrix(0.260714 0 0 0.259524 643.119 301)">25</text><text fill="#262626" font-family="Arial,Arial_MSFontService,sans-serif" font-weight="400" font-size="24" transform="matrix(0.260714 0 0 0.259524 655.555 301)">0</text><text fill="#262626" font-family="Arial,Arial_MSFontService,sans-serif" font-weight="400" font-size="24" transform="matrix(0.260714 0 0 0.259524 658.944 301)">.</text><text fill="#262626" font-family="Arial,Arial_MSFontService,sans-serif" font-weight="400" font-size="24" transform="matrix(0.260714 0 0 0.259524 660.769 301)">5</text><text fill="#262626" font-family="Arial,Arial_MSFontService,sans-serif" font-weight="400" font-size="24" transform="matrix(0.260714 0 0 0.259524 673.753 301)">1</text><text fill="#262626" font-family="Arial,Arial_MSFontService,sans-serif" font-weight="400" font-size="24" transform="matrix(0.260714 0 0 0.259524 690.491 301)">2</text><text fill="#262626" font-family="Arial,Arial_MSFontService,sans-serif" font-weight="400" font-size="24" transform="matrix(0.260714 0 0 0.259524 707.255 301)">4</text><path d="" stroke="#262626" stroke-width="0.181667" stroke-linecap="square" stroke-linejoin="round" fill="none" transform="matrix(1.00459 0 0 1 580 202)"/><path d="M18.9452 93.4286 20.0612 93.4286" stroke="#262626" stroke-width="0.181667" stroke-linecap="square" stroke-linejoin="round" fill="none" transform="matrix(1.00459 0 0 1 580 202)"/><text fill="#262626" font-family="Arial,Arial_MSFontService,sans-serif" font-weight="400" font-size="24" transform="matrix(0.260714 0 0 0.259524 606.828 301)">0</text><path d="M62.0521 42.1986 62.0521 47.986" stroke="#D95319" stroke-width="0.181667" stroke-linejoin="round" fill="none" transform="matrix(1.00459 0 0 1 580 202)"/><path d="M78.7136 51.6712 78.7136 58.7302" stroke="#D95319" stroke-width="0.181667" stroke-linejoin="round" fill="none" transform="matrix(1.00459 0 0 1 580 202)"/><path d="M95.401 72.2514 95.401 77.6495" stroke="#D95319" stroke-width="0.181667" stroke-linejoin="round" fill="none" transform="matrix(1.00459 0 0 1 580 202)"/><path d="M112.062 83.6964 112.062 87.4855" stroke="#D95319" stroke-width="0.181667" stroke-linejoin="round" fill="none" transform="matrix(1.00459 0 0 1 580 202)"/><path d="M128.75 75.9886 128.75 81.4905" stroke="#D95319" stroke-width="0.181667" stroke-linejoin="round" fill="none" transform="matrix(1.00459 0 0 1 580 202)"/><path d="M62.0521 42.1986 62.0521 36.4371" stroke="#D95319" stroke-width="0.181667" stroke-linejoin="round" fill="none" transform="matrix(1.00459 0 0 1 580 202)"/><path d="M78.7136 51.6712 78.7136 44.6121" stroke="#D95319" stroke-width="0.181667" stroke-linejoin="round" fill="none" transform="matrix(1.00459 0 0 1 580 202)"/><path d="M95.401 72.2514 95.401 66.8533" stroke="#D95319" stroke-width="0.181667" stroke-linejoin="round" fill="none" transform="matrix(1.00459 0 0 1 580 202)"/><path d="M112.062 83.6964 112.062 79.9074" stroke="#D95319" stroke-width="0.181667" stroke-linejoin="round" fill="none" transform="matrix(1.00459 0 0 1 580 202)"/><path d="M128.75 75.9886 128.75 70.4867" stroke="#D95319" stroke-width="0.181667" stroke-linejoin="round" fill="none" transform="matrix(1.00459 0 0 1 580 202)"/><path d="M62.0521 42.1986 78.7136 51.6712 95.375 72.2514 112.036 83.6964 128.698 75.9886" stroke="#D95319" stroke-width="0.181667" stroke-linejoin="round" fill="none" transform="matrix(1.00459 0 0 1 580 202)"/><path d="M63.0902 42.1986C63.0902 42.7719 62.6255 43.2367 62.0521 43.2367 61.4788 43.2367 61.014 42.7719 61.014 42.1986 61.014 41.6252 61.4788 41.1605 62.0521 41.1605 62.6255 41.1605 63.0902 41.6252 63.0902 42.1986Z" fill="#FFFFFF" transform="matrix(1.00459 0 0 1 580 202)"/><path d="M62.0521 41.2643C62.5712 41.2643 63.0124 41.6795 63.0124 42.2245L63.0124 42.2245C63.0124 42.7436 62.5971 43.1848 62.0521 43.1848 61.5071 43.1848 61.0919 42.7695 61.0919 42.2245 61.0919 41.6795 61.5071 41.2643 62.0521 41.2643ZM62.0521 41.0826C61.4293 41.0826 60.9362 41.5757 60.9362 42.1986 60.9362 42.8214 61.4293 43.3145 62.0521 43.3145 62.675 43.3145 63.1681 42.8214 63.1681 42.1986L63.1681 42.1986C63.1681 41.5757 62.675 41.0826 62.0521 41.0826Z" fill="#D95319" transform="matrix(1.00459 0 0 1 580 202)"/><path d="M79.7517 51.6712C79.7517 52.2445 79.2869 52.7093 78.7136 52.7093 78.1402 52.7093 77.6755 52.2445 77.6755 51.6712 77.6755 51.0979 78.1402 50.6331 78.7136 50.6331 79.2869 50.6331 79.7517 51.0979 79.7517 51.6712Z" fill="#FFFFFF" transform="matrix(1.00459 0 0 1 580 202)"/><path d="M78.7136 50.7109C79.2326 50.7109 79.6738 51.1262 79.6738 51.6712L79.6738 51.6712C79.6738 52.1902 79.2586 52.6314 78.7136 52.6314 78.1686 52.6314 77.7533 52.2162 77.7533 51.6712 77.7533 51.1262 78.1686 50.7109 78.7136 50.7109ZM78.7136 50.5552C78.0907 50.5552 77.5976 51.0483 77.5976 51.6712 77.5976 52.294 78.0907 52.7871 78.7136 52.7871 79.3364 52.7871 79.8295 52.294 79.8295 51.6712L79.8295 51.6712C79.8295 51.0483 79.3364 50.5552 78.7136 50.5552Z" fill="#D95319" transform="matrix(1.00459 0 0 1 580 202)"/><path d="M96.439 72.2514C96.439 72.8248 95.9743 73.2895 95.401 73.2895 94.8276 73.2895 94.3629 72.8248 94.3629 72.2514 94.3629 71.6781 94.8276 71.2133 95.401 71.2133 95.9743 71.2133 96.439 71.6781 96.439 72.2514Z" fill="#FFFFFF" transform="matrix(1.00459 0 0 1 580 202)"/><path d="M95.401 71.3171C95.92 71.3171 96.3612 71.7324 96.3612 72.2774L96.3612 72.2774C96.3612 72.7964 95.946 73.2376 95.401 73.2376 94.8559 73.2376 94.4407 72.8224 94.4407 72.2774 94.4407 71.7324 94.8559 71.3171 95.401 71.3171ZM95.401 71.1355C94.7781 71.1355 94.285 71.6286 94.285 72.2514 94.285 72.8743 94.7781 73.3674 95.401 73.3674 96.0238 73.3674 96.5169 72.8743 96.5169 72.2514L96.5169 72.2514C96.5169 71.6286 96.0238 71.1355 95.401 71.1355Z" fill="#D95319" transform="matrix(1.00459 0 0 1 580 202)"/><path d="M113.1 83.6964C113.1 84.2698 112.636 84.7345 112.062 84.7345 111.489 84.7345 111.024 84.2698 111.024 83.6964 111.024 83.1231 111.489 82.6583 112.062 82.6583 112.636 82.6583 113.1 83.1231 113.1 83.6964Z" fill="#FFFFFF" transform="matrix(1.00459 0 0 1 580 202)"/><path d="M112.062 82.7621C112.581 82.7621 113.023 83.1774 113.023 83.7224L113.023 83.7224C113.023 84.2414 112.607 84.6826 112.062 84.6826 111.517 84.6826 111.102 84.2674 111.102 83.7224 111.102 83.1774 111.517 82.7621 112.062 82.7621ZM112.062 82.5805C111.44 82.5805 110.946 83.0736 110.946 83.6964 110.946 84.3193 111.44 84.8124 112.062 84.8124 112.685 84.8124 113.178 84.3193 113.178 83.6964L113.178 83.6964C113.178 83.0736 112.685 82.5805 112.062 82.5805Z" fill="#D95319" transform="matrix(1.00459 0 0 1 580 202)"/><path d="M129.788 75.9886C129.788 76.5619 129.323 77.0267 128.75 77.0267 128.176 77.0267 127.712 76.5619 127.712 75.9886 127.712 75.4152 128.176 74.9505 128.75 74.9505 129.323 74.9505 129.788 75.4152 129.788 75.9886Z" fill="#FFFFFF" transform="matrix(1.00459 0 0 1 580 202)"/><path d="M128.75 75.0283C129.269 75.0283 129.71 75.4436 129.71 75.9886L129.71 75.9886C129.71 76.5076 129.295 76.9488 128.75 76.9488 128.205 76.9488 127.79 76.5336 127.79 75.9886 127.79 75.4436 128.205 75.0283 128.75 75.0283ZM128.75 74.8726C128.127 74.8726 127.634 75.3657 127.634 75.9886 127.634 76.6114 128.127 77.1045 128.75 77.1045 129.373 77.1045 129.866 76.6114 129.866 75.9886L129.866 75.9886C129.866 75.3657 129.373 74.8726 128.75 74.8726Z" fill="#D95319" transform="matrix(1.00459 0 0 1 580 202)"/><path d="M62.0521 38.9805 62.0521 45.4686" stroke="#7E2F8E" stroke-width="0.181667" stroke-linejoin="round" fill="none" transform="matrix(1.00459 0 0 1 580 202)"/><path d="M78.7136 54.4481 78.7136 60.3912" stroke="#7E2F8E" stroke-width="0.181667" stroke-linejoin="round" fill="none" transform="matrix(1.00459 0 0 1 580 202)"/><path d="M95.401 74.9505 95.401 81.9836" stroke="#7E2F8E" stroke-width="0.181667" stroke-linejoin="round" fill="none" transform="matrix(1.00459 0 0 1 580 202)"/><path d="M112.062 82.6324 112.062 84.9421" stroke="#7E2F8E" stroke-width="0.181667" stroke-linejoin="round" fill="none" transform="matrix(1.00459 0 0 1 580 202)"/><path d="M128.75 74.9764 128.75 79.2845" stroke="#7E2F8E" stroke-width="0.181667" stroke-linejoin="round" fill="none" transform="matrix(1.00459 0 0 1 580 202)"/><path d="M62.0521 38.9805 62.0521 32.4924" stroke="#7E2F8E" stroke-width="0.181667" stroke-linejoin="round" fill="none" transform="matrix(1.00459 0 0 1 580 202)"/><path d="M78.7136 54.4481 78.7136 48.531" stroke="#7E2F8E" stroke-width="0.181667" stroke-linejoin="round" fill="none" transform="matrix(1.00459 0 0 1 580 202)"/><path d="M95.401 74.9505 95.401 67.9174" stroke="#7E2F8E" stroke-width="0.181667" stroke-linejoin="round" fill="none" transform="matrix(1.00459 0 0 1 580 202)"/><path d="M112.062 82.6324 112.062 80.3486" stroke="#7E2F8E" stroke-width="0.181667" stroke-linejoin="round" fill="none" transform="matrix(1.00459 0 0 1 580 202)"/><path d="M128.75 74.9764 128.75 70.6683" stroke="#7E2F8E" stroke-width="0.181667" stroke-linejoin="round" fill="none" transform="matrix(1.00459 0 0 1 580 202)"/><path d="M62.0521 38.9805 78.7136 54.4481 95.375 74.9505 112.036 82.6324 128.698 74.9764" stroke="#7E2F8E" stroke-width="0.181667" stroke-linejoin="round" fill="none" transform="matrix(1.00459 0 0 1 580 202)"/><path d="M63.0902 38.9805C63.0902 39.5538 62.6255 40.0186 62.0521 40.0186 61.4788 40.0186 61.014 39.5538 61.014 38.9805 61.014 38.4072 61.4788 37.9424 62.0521 37.9424 62.6255 37.9424 63.0902 38.4072 63.0902 38.9805Z" fill="#7E2F8E" transform="matrix(1.00459 0 0 1 580 202)"/><path d="M62.0521 38.0462C62.5712 38.0462 63.0124 38.4614 63.0124 39.0064L63.0124 39.0064C63.0124 39.5255 62.5971 39.9667 62.0521 39.9667 61.5071 39.9667 61.0919 39.5514 61.0919 39.0064 61.0919 38.4614 61.5071 38.0462 62.0521 38.0462ZM62.0521 37.8645C61.4293 37.8645 60.9362 38.3576 60.9362 38.9805 60.9362 39.6033 61.4293 40.0964 62.0521 40.0964 62.675 40.0964 63.1681 39.6033 63.1681 38.9805L63.1681 38.9805C63.1681 38.3576 62.675 37.8645 62.0521 37.8645Z" fill="#7E2F8E" transform="matrix(1.00459 0 0 1 580 202)"/><path d="M79.7517 54.4481C79.7517 55.0214 79.2869 55.4862 78.7136 55.4862 78.1402 55.4862 77.6755 55.0214 77.6755 54.4481 77.6755 53.8748 78.1402 53.41 78.7136 53.41 79.2869 53.41 79.7517 53.8748 79.7517 54.4481Z" fill="#7E2F8E" transform="matrix(1.00459 0 0 1 580 202)"/><path d="M78.7136 53.5138C79.2326 53.5138 79.6738 53.929 79.6738 54.474L79.6738 54.474C79.6738 54.9931 79.2586 55.4343 78.7136 55.4343 78.1686 55.4343 77.7533 55.019 77.7533 54.474 77.7533 53.929 78.1686 53.5138 78.7136 53.5138ZM78.7136 53.3321C78.0907 53.3321 77.5976 53.8252 77.5976 54.4481 77.5976 55.071 78.0907 55.564 78.7136 55.564 79.3364 55.564 79.8295 55.071 79.8295 54.4481L79.8295 54.4481C79.8295 53.8252 79.3364 53.3321 78.7136 53.3321Z" fill="#7E2F8E" transform="matrix(1.00459 0 0 1 580 202)"/><path d="M96.439 74.9505C96.439 75.5238 95.9743 75.9886 95.401 75.9886 94.8276 75.9886 94.3629 75.5238 94.3629 74.9505 94.3629 74.3772 94.8276 73.9124 95.401 73.9124 95.9743 73.9124 96.439 74.3772 96.439 74.9505Z" fill="#7E2F8E" transform="matrix(1.00459 0 0 1 580 202)"/><path d="M95.401 74.0162C95.92 74.0162 96.3612 74.4314 96.3612 74.9764L96.3612 74.9764C96.3612 75.4955 95.946 75.9367 95.401 75.9367 94.8559 75.9367 94.4407 75.5214 94.4407 74.9764 94.4407 74.4314 94.8559 74.0162 95.401 74.0162ZM95.401 73.8345C94.7781 73.8345 94.285 74.3276 94.285 74.9505 94.285 75.5733 94.7781 76.0664 95.401 76.0664 96.0238 76.0664 96.5169 75.5733 96.5169 74.9505L96.5169 74.9505C96.5169 74.3276 96.0238 73.8345 95.401 73.8345Z" fill="#7E2F8E" transform="matrix(1.00459 0 0 1 580 202)"/><path d="M113.1 82.6324C113.1 83.2057 112.636 83.6705 112.062 83.6705 111.489 83.6705 111.024 83.2057 111.024 82.6324 111.024 82.0591 111.489 81.5943 112.062 81.5943 112.636 81.5943 113.1 82.0591 113.1 82.6324Z" fill="#7E2F8E" transform="matrix(1.00459 0 0 1 580 202)"/><path d="M112.062 81.6981C112.581 81.6981 113.023 82.1133 113.023 82.6583L113.023 82.6583C113.023 83.1774 112.607 83.6186 112.062 83.6186 111.517 83.6186 111.102 83.2033 111.102 82.6583 111.102 82.1133 111.517 81.6981 112.062 81.6981ZM112.062 81.5164C111.44 81.5164 110.946 82.0095 110.946 82.6324 110.946 83.2552 111.44 83.7483 112.062 83.7483 112.685 83.7483 113.178 83.2552 113.178 82.6324L113.178 82.6324C113.178 82.0095 112.685 81.5164 112.062 81.5164Z" fill="#7E2F8E" transform="matrix(1.00459 0 0 1 580 202)"/><path d="M129.788 74.9764C129.788 75.5498 129.323 76.0145 128.75 76.0145 128.176 76.0145 127.712 75.5498 127.712 74.9764 127.712 74.4031 128.176 73.9383 128.75 73.9383 129.323 73.9383 129.788 74.4031 129.788 74.9764Z" fill="#7E2F8E" transform="matrix(1.00459 0 0 1 580 202)"/><path d="M128.75 74.0162C129.269 74.0162 129.71 74.4314 129.71 74.9764L129.71 74.9764C129.71 75.4955 129.295 75.9367 128.75 75.9367 128.205 75.9367 127.79 75.5214 127.79 74.9764 127.79 74.4314 128.205 74.0162 128.75 74.0162ZM128.75 73.8605C128.127 73.8605 127.634 74.3536 127.634 74.9764 127.634 75.5993 128.127 76.0924 128.75 76.0924 129.373 76.0924 129.866 75.5993 129.866 74.9764L129.866 74.9764C129.866 74.3536 129.373 73.8605 128.75 73.8605Z" fill="#7E2F8E" transform="matrix(1.00459 0 0 1 580 202)"/><path d="M62.0521 41.2383 62.0521 49.8805" stroke="#4DBEEE" stroke-width="0.181667" stroke-linejoin="round" fill="none" transform="matrix(1.00459 0 0 1 580 202)"/><path d="M78.7136 60.8583 78.7136 66.4381" stroke="#4DBEEE" stroke-width="0.181667" stroke-linejoin="round" fill="none" transform="matrix(1.00459 0 0 1 580 202)"/><path d="M95.401 69.6562 95.401 77.7274" stroke="#4DBEEE" stroke-width="0.181667" stroke-linejoin="round" fill="none" transform="matrix(1.00459 0 0 1 580 202)"/><path d="M112.062 75.4695 112.062 80.8417" stroke="#4DBEEE" stroke-width="0.181667" stroke-linejoin="round" fill="none" transform="matrix(1.00459 0 0 1 580 202)"/><path d="M128.75 62.7529 128.75 68.8257" stroke="#4DBEEE" stroke-width="0.181667" stroke-linejoin="round" fill="none" transform="matrix(1.00459 0 0 1 580 202)"/><path d="M62.0521 41.2383 62.0521 32.5702" stroke="#4DBEEE" stroke-width="0.181667" stroke-linejoin="round" fill="none" transform="matrix(1.00459 0 0 1 580 202)"/><path d="M78.7136 60.8583 78.7136 55.2786" stroke="#4DBEEE" stroke-width="0.181667" stroke-linejoin="round" fill="none" transform="matrix(1.00459 0 0 1 580 202)"/><path d="M95.401 69.6562 95.401 61.585" stroke="#4DBEEE" stroke-width="0.181667" stroke-linejoin="round" fill="none" transform="matrix(1.00459 0 0 1 580 202)"/><path d="M112.062 75.4695 112.062 70.1233" stroke="#4DBEEE" stroke-width="0.181667" stroke-linejoin="round" fill="none" transform="matrix(1.00459 0 0 1 580 202)"/><path d="M128.75 62.7529 128.75 56.68" stroke="#4DBEEE" stroke-width="0.181667" stroke-linejoin="round" fill="none" transform="matrix(1.00459 0 0 1 580 202)"/><path d="M62.0521 41.2383 78.7136 60.8583 95.375 69.6302 112.036 75.4695 128.698 62.7529" stroke="#4DBEEE" stroke-width="0.181667" stroke-linejoin="round" fill="none" transform="matrix(1.00459 0 0 1 580 202)"/><path d="M63.0902 41.2383C63.0902 41.8117 62.6255 42.2764 62.0521 42.2764 61.4788 42.2764 61.014 41.8117 61.014 41.2383 61.014 40.665 61.4788 40.2002 62.0521 40.2002 62.6255 40.2002 63.0902 40.665 63.0902 41.2383Z" fill="#FFFFFF" transform="matrix(1.00459 0 0 1 580 202)"/><path d="M62.0521 40.2781C62.5712 40.2781 63.0124 40.6933 63.0124 41.2383L63.0124 41.2383C63.0124 41.7574 62.5971 42.1986 62.0521 42.1986 61.5071 42.1986 61.0919 41.7833 61.0919 41.2383 61.0919 40.6933 61.5071 40.2781 62.0521 40.2781ZM62.0521 40.1224C61.4293 40.1224 60.9362 40.6155 60.9362 41.2383 60.9362 41.8612 61.4293 42.3543 62.0521 42.3543 62.675 42.3543 63.1681 41.8612 63.1681 41.2383L63.1681 41.2383C63.1681 40.6155 62.675 40.1224 62.0521 40.1224Z" fill="#4DBEEE" transform="matrix(1.00459 0 0 1 580 202)"/><path d="M79.7517 60.8583C79.7517 61.4317 79.2869 61.8964 78.7136 61.8964 78.1402 61.8964 77.6755 61.4317 77.6755 60.8583 77.6755 60.285 78.1402 59.8202 78.7136 59.8202 79.2869 59.8202 79.7517 60.285 79.7517 60.8583Z" fill="#FFFFFF" transform="matrix(1.00459 0 0 1 580 202)"/><path d="M78.7136 59.924C79.2326 59.924 79.6738 60.3393 79.6738 60.8843L79.6738 60.8843C79.6738 61.4033 79.2586 61.8445 78.7136 61.8445 78.1686 61.8445 77.7533 61.4293 77.7533 60.8843 77.7533 60.3393 78.1686 59.924 78.7136 59.924ZM78.7136 59.7424C78.0907 59.7424 77.5976 60.2355 77.5976 60.8583 77.5976 61.4812 78.0907 61.9743 78.7136 61.9743 79.3364 61.9743 79.8295 61.4812 79.8295 60.8583L79.8295 60.8583C79.8295 60.2355 79.3364 59.7424 78.7136 59.7424Z" fill="#4DBEEE" transform="matrix(1.00459 0 0 1 580 202)"/><path d="M96.439 69.6562C96.439 70.2295 95.9743 70.6943 95.401 70.6943 94.8276 70.6943 94.3629 70.2295 94.3629 69.6562 94.3629 69.0829 94.8276 68.6181 95.401 68.6181 95.9743 68.6181 96.439 69.0829 96.439 69.6562Z" fill="#FFFFFF" transform="matrix(1.00459 0 0 1 580 202)"/><path d="M95.401 68.696C95.92 68.696 96.3612 69.1112 96.3612 69.6562L96.3612 69.6562C96.3612 70.1752 95.946 70.6164 95.401 70.6164 94.8559 70.6164 94.4407 70.2012 94.4407 69.6562 94.4407 69.1112 94.8559 68.696 95.401 68.696ZM95.401 68.5143C94.7781 68.5143 94.285 69.0074 94.285 69.6302 94.285 70.2531 94.7781 70.7462 95.401 70.7462 96.0238 70.7462 96.5169 70.2531 96.5169 69.6302L96.5169 69.6302C96.5169 69.0074 96.0238 68.5143 95.401 68.5143Z" fill="#4DBEEE" transform="matrix(1.00459 0 0 1 580 202)"/><path d="M113.1 75.4695C113.1 76.0428 112.636 76.5076 112.062 76.5076 111.489 76.5076 111.024 76.0428 111.024 75.4695 111.024 74.8962 111.489 74.4314 112.062 74.4314 112.636 74.4314 113.1 74.8962 113.1 75.4695Z" fill="#FFFFFF" transform="matrix(1.00459 0 0 1 580 202)"/><path d="M112.062 74.5352C112.581 74.5352 113.023 74.9505 113.023 75.4955L113.023 75.4955C113.023 76.0145 112.607 76.4557 112.062 76.4557 111.517 76.4557 111.102 76.0405 111.102 75.4955 111.102 74.9505 111.517 74.5352 112.062 74.5352ZM112.062 74.3536C111.44 74.3536 110.946 74.8467 110.946 75.4695 110.946 76.0924 111.44 76.5855 112.062 76.5855 112.685 76.5855 113.178 76.0924 113.178 75.4695L113.178 75.4695C113.178 74.8467 112.685 74.3536 112.062 74.3536Z" fill="#4DBEEE" transform="matrix(1.00459 0 0 1 580 202)"/><path d="M129.788 62.7529C129.788 63.3262 129.323 63.791 128.75 63.791 128.176 63.791 127.712 63.3262 127.712 62.7529 127.712 62.1795 128.176 61.7148 128.75 61.7148 129.323 61.7148 129.788 62.1795 129.788 62.7529Z" fill="#FFFFFF" transform="matrix(1.00459 0 0 1 580 202)"/><path d="M128.75 61.7926C129.269 61.7926 129.71 62.2079 129.71 62.7529L129.71 62.7529C129.71 63.2719 129.295 63.7131 128.75 63.7131 128.205 63.7131 127.79 63.2979 127.79 62.7529 127.79 62.2079 128.205 61.7926 128.75 61.7926ZM128.75 61.6369C128.127 61.6369 127.634 62.13 127.634 62.7529 127.634 63.3757 128.127 63.8688 128.75 63.8688 129.373 63.8688 129.866 63.3757 129.866 62.7529L129.866 62.7529C129.866 62.13 129.373 61.6369 128.75 61.6369Z" fill="#4DBEEE" transform="matrix(1.00459 0 0 1 580 202)"/><path d="M28.7033 22.7862 28.7033 30.9871" stroke="#D95319" stroke-width="0.181667" stroke-linejoin="round" fill="none" transform="matrix(1.00459 0 0 1 580 202)"/><path d="M28.7033 22.7862 28.7033 14.5852" stroke="#D95319" stroke-width="0.181667" stroke-linejoin="round" fill="none" transform="matrix(1.00459 0 0 1 580 202)"/><path d="M29.7414 22.7862C29.7414 23.3595 29.2767 23.8243 28.7033 23.8243 28.13 23.8243 27.6652 23.3595 27.6652 22.7862 27.6652 22.2129 28.13 21.7481 28.7033 21.7481 29.2767 21.7481 29.7414 22.2129 29.7414 22.7862Z" fill="#FFFFFF" transform="matrix(1.00459 0 0 1 580 202)"/><path d="M28.7033 21.826C29.2224 21.826 29.6636 22.2412 29.6636 22.7862L29.6636 22.7862C29.6636 23.3052 29.2483 23.7464 28.7033 23.7464 28.1583 23.7464 27.7431 23.3312 27.7431 22.7862 27.7431 22.2412 28.1583 21.826 28.7033 21.826ZM28.7033 21.6443C28.0805 21.6443 27.5874 22.1374 27.5874 22.7602 27.5874 23.3831 28.0805 23.8762 28.7033 23.8762 29.3262 23.8762 29.8193 23.3831 29.8193 22.7602L29.8193 22.7602C29.8193 22.1374 29.3262 21.6443 28.7033 21.6443Z" fill="#D95319" transform="matrix(1.00459 0 0 1 580 202)"/><path d="M28.7033 25.5371 28.7033 33.5045" stroke="#7E2F8E" stroke-width="0.181667" stroke-linejoin="round" fill="none" transform="matrix(1.00459 0 0 1 580 202)"/><path d="M28.7033 25.5371 28.7033 17.5438" stroke="#7E2F8E" stroke-width="0.181667" stroke-linejoin="round" fill="none" transform="matrix(1.00459 0 0 1 580 202)"/><path d="M29.7414 25.5371C29.7414 26.1105 29.2767 26.5752 28.7033 26.5752 28.13 26.5752 27.6652 26.1105 27.6652 25.5371 27.6652 24.9638 28.13 24.499 28.7033 24.499 29.2767 24.499 29.7414 24.9638 29.7414 25.5371Z" fill="#7E2F8E" transform="matrix(1.00459 0 0 1 580 202)"/><path d="M28.7033 24.5769C29.2224 24.5769 29.6636 24.9921 29.6636 25.5371L29.6636 25.5371C29.6636 26.0562 29.2483 26.4974 28.7033 26.4974 28.1583 26.4974 27.7431 26.0821 27.7431 25.5371 27.7431 24.9921 28.1583 24.5769 28.7033 24.5769ZM28.7033 24.3952C28.0805 24.3952 27.5874 24.8883 27.5874 25.5112 27.5874 26.134 28.0805 26.6271 28.7033 26.6271 29.3262 26.6271 29.8193 26.134 29.8193 25.5112L29.8193 25.5112C29.8193 24.8883 29.3262 24.3952 28.7033 24.3952Z" fill="#7E2F8E" transform="matrix(1.00459 0 0 1 580 202)"/><path d="M28.7033 23.3831 28.7033 30.1826" stroke="#4DBEEE" stroke-width="0.181667" stroke-linejoin="round" fill="none" transform="matrix(1.00459 0 0 1 580 202)"/><path d="M28.7033 23.3831 28.7033 16.5576" stroke="#4DBEEE" stroke-width="0.181667" stroke-linejoin="round" fill="none" transform="matrix(1.00459 0 0 1 580 202)"/><path d="M29.7414 23.3831C29.7414 23.9564 29.2767 24.4212 28.7033 24.4212 28.13 24.4212 27.6652 23.9564 27.6652 23.3831 27.6652 22.8098 28.13 22.345 28.7033 22.345 29.2767 22.345 29.7414 22.8098 29.7414 23.3831Z" fill="#FFFFFF" transform="matrix(1.00459 0 0 1 580 202)"/><path d="M28.7033 22.4229C29.2224 22.4229 29.6636 22.8381 29.6636 23.3831L29.6636 23.3831C29.6636 23.9021 29.2483 24.3433 28.7033 24.3433 28.1583 24.3433 27.7431 23.9281 27.7431 23.3831 27.7431 22.8381 28.1583 22.4229 28.7033 22.4229ZM28.7033 22.2671C28.0805 22.2671 27.5874 22.7602 27.5874 23.3831 27.5874 24.006 28.0805 24.499 28.7033 24.499 29.3262 24.499 29.8193 24.006 29.8193 23.3831L29.8193 23.3831C29.8193 22.7602 29.3262 22.2671 28.7033 22.2671Z" fill="#4DBEEE" transform="matrix(1.00459 0 0 1 580 202)"/><path d="M28.7033 93.4286 28.7033 92.3126" stroke="#262626" stroke-width="0.181667" stroke-linecap="square" stroke-linejoin="round" fill="none" transform="matrix(1.00459 0 0 1 580 202)"/><path d="M18.9452 93.221 18.9452 78.506" stroke="#000000" stroke-width="0.181667" stroke-linejoin="round" fill="none" transform="matrix(1.00459 0 0 1 580 202)"/><path d="M11.7564 85.8505 11.2114 85.8505 11.2114 82.3729C11.0817 82.5026 10.9 82.6324 10.6924 82.7621 10.4848 82.8919 10.2771 82.9698 10.1214 83.0476L10.1214 82.5286C10.4329 82.3729 10.6924 82.2171 10.926 82.0095 11.1595 81.8019 11.3152 81.5943 11.419 81.4126L11.7824 81.4126 11.7824 85.8764Z" transform="matrix(1.00459 0 0 1 580 202)"/><path d="M13.4433 85.8505 13.4433 85.2276 14.0662 85.2276 14.0662 85.8505 13.4433 85.8505Z" transform="matrix(1.00459 0 0 1 580 202)"/><path d="M14.8707 83.6445C14.8707 83.1255 14.9226 82.6843 15.0264 82.3729 15.1302 82.0614 15.286 81.8019 15.5195 81.6202 15.7531 81.4386 16.0126 81.3607 16.324 81.3607 16.6355 81.3607 16.7652 81.4126 16.9469 81.5164 17.1286 81.6202 17.2843 81.75 17.3881 81.9317 17.4919 82.1133 17.5957 82.3469 17.6736 82.6064 17.7514 82.866 17.7774 83.2293 17.7774 83.6705 17.7774 84.1117 17.7255 84.6048 17.6217 84.9421 17.5179 85.2795 17.3621 85.5131 17.1286 85.6948 16.895 85.8764 16.6355 85.9543 16.324 85.9543 16.0126 85.9543 15.5455 85.7986 15.3119 85.4871 15.0264 85.1238 14.8707 84.501 14.8707 83.6705ZM15.4417 83.6445C15.4417 84.3712 15.5195 84.8643 15.7012 85.0979 15.8829 85.3314 16.0905 85.4612 16.324 85.4612 16.5576 85.4612 16.7912 85.3314 16.9469 85.0979 17.1026 84.8643 17.2064 84.3712 17.2064 83.6445 17.2064 82.9179 17.1286 82.4248 16.9469 82.1912 16.7652 81.9576 16.5576 81.8279 16.2981 81.8279 16.0386 81.8279 15.8569 81.9317 15.7012 82.1393 15.5195 82.3988 15.4157 82.9179 15.4157 83.6445Z" transform="matrix(1.00459 0 0 1 580 202)"/><path d="M4.56762 93.3248 6.28048 88.861 6.90333 88.861 8.72 93.3248 4.54167 93.3248ZM5.3981 92.8057 7.88952 92.8057 6.92929 90.2624C6.77357 89.8731 6.66976 89.5617 6.61786 89.3281 6.56595 89.6136 6.4881 89.899 6.38429 90.1845L5.42405 92.8057Z" transform="matrix(1.00459 0 0 1 580 202)"/><path d="M9.265 93.3248 9.265 88.861 12.2755 88.861 12.2755 89.38 9.86191 89.38 9.86191 90.7555 11.964 90.7555 11.964 91.2745 9.86191 91.2745 9.86191 93.2988 9.265 93.2988Z" transform="matrix(1.00459 0 0 1 580 202)"/><path d="M12.535 93.4026 13.8326 88.7831 14.2738 88.7831 12.9762 93.4026 12.535 93.4026Z" transform="matrix(1.00459 0 0 1 580 202)"/><path d="M14.7929 93.3248 14.7929 88.861 17.8033 88.861 17.8033 89.38 15.3898 89.38 15.3898 90.7555 17.4919 90.7555 17.4919 91.2745 15.3898 91.2745 15.3898 93.2988 14.7929 93.2988Z" transform="matrix(1.00459 0 0 1 580 202)"/><text font-family="Arial,Arial_MSFontService,sans-serif" font-weight="400" font-size="24" transform="matrix(0.260714 0 0 0.259524 635.897 307)">v</text><text font-family="Arial,Arial_MSFontService,sans-serif" font-weight="400" font-size="24" transform="matrix(0.156429 0 0 0.155714 639.026 309)">Background</text><text fill="#262626" font-family="Arial,Arial_MSFontService,sans-serif" font-weight="400" font-size="24" transform="matrix(0.260714 0 0 0.259524 658.475 307)">/</text><text font-family="Arial,Arial_MSFontService,sans-serif" font-weight="400" font-size="24" transform="matrix(0.260714 0 0 0.259524 660.222 307)">v</text><text font-family="Arial,Arial_MSFontService,sans-serif" font-weight="400" font-size="24" transform="matrix(0.156429 0 0 0.155714 663.35 309)">Bar</text><path d="M89.5617 19.3086 89.5617 37.7348 120.445 37.7348" fill="#FFFFFF" transform="matrix(1.00459 0 0 1 580 202)"/><text font-family="Arial,Arial_MSFontService,sans-serif" font-weight="400" font-size="20" transform="matrix(0.260714 0 0 0.259524 682.226 226)">v</text><text font-family="Arial,Arial_MSFontService,sans-serif" font-weight="400" font-size="20" transform="matrix(0.156429 0 0 0.155714 684.833 227)">bar</text><text font-family="Arial,Arial_MSFontService,sans-serif" font-weight="400" font-size="20" transform="matrix(0.260714 0 0 0.259524 689.213 226)">= </text><text font-family="Arial,Arial_MSFontService,sans-serif" font-weight="400" font-size="20" transform="matrix(0.260714 0 0 0.259524 693.906 226)">40</text><text font-family="Arial,Arial_MSFontService,sans-serif" font-weight="400" font-size="20" transform="matrix(0.260714 0 0 0.259524 699.642 226)">°</text><text font-family="Arial,Arial_MSFontService,sans-serif" font-weight="400" font-size="20" transform="matrix(0.260714 0 0 0.259524 701.727 226)">/</text><text font-family="Arial,Arial_MSFontService,sans-serif" font-weight="400" font-size="20" transform="matrix(0.260714 0 0 0.259524 703.292 226)">s</text><path d="M90.5998 22.6824 100.981 22.6824" stroke="#D95319" stroke-width="0.181667" stroke-linejoin="round" fill="none" transform="matrix(1.00459 0 0 1 580 202)"/><path d="M95.7902 24.8364 95.7902 20.5543" stroke="#D95319" stroke-width="0.181667" stroke-linejoin="round" fill="none" transform="matrix(1.00459 0 0 1 580 202)"/><path d="M96.8283 22.6824C96.8283 23.2557 96.3636 23.7205 95.7902 23.7205 95.2169 23.7205 94.7521 23.2557 94.7521 22.6824 94.7521 22.1091 95.2169 21.6443 95.7902 21.6443 96.3636 21.6443 96.8283 22.1091 96.8283 22.6824Z" fill="#FFFFFF" transform="matrix(1.00459 0 0 1 580 202)"/><path d="M95.7902 21.7481C96.3093 21.7481 96.7505 22.1633 96.7505 22.7083L96.7505 22.7083C96.7505 23.2274 96.3352 23.6686 95.7902 23.6686 95.2452 23.6686 94.83 23.2533 94.83 22.7083 94.83 22.1633 95.2452 21.7481 95.7902 21.7481ZM95.7902 21.5664C95.1674 21.5664 94.6743 22.0595 94.6743 22.6824 94.6743 23.3052 95.1674 23.7983 95.7902 23.7983 96.4131 23.7983 96.9062 23.3052 96.9062 22.6824L96.9062 22.6824C96.9062 22.0595 96.4131 21.5664 95.7902 21.5664Z" fill="#D95319" transform="matrix(1.00459 0 0 1 580 202)"/><path d="M90.5998 29.8193 100.981 29.8193" stroke="#7E2F8E" stroke-width="0.181667" stroke-linejoin="round" fill="none" transform="matrix(1.00459 0 0 1 580 202)"/><path d="M95.7902 31.9733 95.7902 27.6912" stroke="#7E2F8E" stroke-width="0.181667" stroke-linejoin="round" fill="none" transform="matrix(1.00459 0 0 1 580 202)"/><path d="M96.8283 29.8193C96.8283 30.3926 96.3636 30.8574 95.7902 30.8574 95.2169 30.8574 94.7521 30.3926 94.7521 29.8193 94.7521 29.246 95.2169 28.7812 95.7902 28.7812 96.3636 28.7812 96.8283 29.246 96.8283 29.8193Z" fill="#7E2F8E" transform="matrix(1.00459 0 0 1 580 202)"/><path d="M95.7902 28.885C96.3093 28.885 96.7505 29.3002 96.7505 29.8452L96.7505 29.8452C96.7505 30.3643 96.3352 30.8055 95.7902 30.8055 95.2452 30.8055 94.83 30.3902 94.83 29.8452 94.83 29.3002 95.2452 28.885 95.7902 28.885ZM96.9062 29.8193 96.9062 29.8193C96.9062 29.1964 96.4131 28.7033 95.7902 28.7033 95.1674 28.7033 94.6743 29.1964 94.6743 29.8193 94.6743 30.4421 95.1674 30.9352 95.7902 30.9352" fill="#7E2F8E" transform="matrix(1.00459 0 0 1 580 202)"/><path d="M90.5998 35.6586 100.981 35.6586" stroke="#4DBEEE" stroke-width="0.181667" stroke-linejoin="round" fill="none" transform="matrix(1.00459 0 0 1 580 202)"/><path d="M95.7902 37.8126 95.7902 33.5305" stroke="#4DBEEE" stroke-width="0.181667" stroke-linejoin="round" fill="none" transform="matrix(1.00459 0 0 1 580 202)"/><path d="M96.8283 35.6586C96.8283 36.2319 96.3636 36.6967 95.7902 36.6967 95.2169 36.6967 94.7521 36.2319 94.7521 35.6586 94.7521 35.0852 95.2169 34.6205 95.7902 34.6205 96.3636 34.6205 96.8283 35.0852 96.8283 35.6586Z" fill="#FFFFFF" transform="matrix(1.00459 0 0 1 580 202)"/><path d="M95.7902 34.7243C96.3093 34.7243 96.7505 35.1395 96.7505 35.6845L96.7505 35.6845C96.7505 36.2036 96.3352 36.6448 95.7902 36.6448 95.2452 36.6448 94.83 36.2295 94.83 35.6845 94.83 35.1395 95.2452 34.7243 95.7902 34.7243ZM95.7902 34.5426C95.1674 34.5426 94.6743 35.0357 94.6743 35.6586 94.6743 36.2814 95.1674 36.7745 95.7902 36.7745 96.4131 36.7745 96.9062 36.2814 96.9062 35.6586L96.9062 35.6586C96.9062 35.0357 96.4131 34.5426 95.7902 34.5426Z" fill="#4DBEEE" transform="matrix(1.00459 0 0 1 580 202)"/><text font-family="Arial,Arial_MSFontService,sans-serif" font-weight="400" font-size="20" transform="matrix(0.260714 0 0 0.259524 682.226 233)">v</text><text font-family="Arial,Arial_MSFontService,sans-serif" font-weight="400" font-size="20" transform="matrix(0.156429 0 0 0.155714 684.833 234)">bar</text><text font-family="Arial,Arial_MSFontService,sans-serif" font-weight="400" font-size="20" transform="matrix(0.260714 0 0 0.259524 689.213 233)">= </text><text font-family="Arial,Arial_MSFontService,sans-serif" font-weight="400" font-size="20" transform="matrix(0.260714 0 0 0.259524 693.906 233)">80</text><text font-family="Arial,Arial_MSFontService,sans-serif" font-weight="400" font-size="20" transform="matrix(0.260714 0 0 0.259524 699.642 233)">°</text><text font-family="Arial,Arial_MSFontService,sans-serif" font-weight="400" font-size="20" transform="matrix(0.260714 0 0 0.259524 701.727 233)">/</text><text font-family="Arial,Arial_MSFontService,sans-serif" font-weight="400" font-size="20" transform="matrix(0.260714 0 0 0.259524 703.292 233)">s</text><text font-family="Arial,Arial_MSFontService,sans-serif" font-weight="400" font-size="20" transform="matrix(0.260714 0 0 0.259524 682.226 239)">v</text><text font-family="Arial,Arial_MSFontService,sans-serif" font-weight="400" font-size="20" transform="matrix(0.156429 0 0 0.155714 684.833 241)">bar</text><text font-family="Arial,Arial_MSFontService,sans-serif" font-weight="400" font-size="20" transform="matrix(0.260714 0 0 0.259524 689.213 239)">= </text><text font-family="Arial,Arial_MSFontService,sans-serif" font-weight="400" font-size="20" transform="matrix(0.260714 0 0 0.259524 693.906 239)">160</text><text font-family="Arial,Arial_MSFontService,sans-serif" font-weight="400" font-size="20" transform="matrix(0.260714 0 0 0.259524 702.51 239)">°</text><text font-family="Arial,Arial_MSFontService,sans-serif" font-weight="400" font-size="20" transform="matrix(0.260714 0 0 0.259524 704.595 239)">/</text><text font-family="Arial,Arial_MSFontService,sans-serif" font-weight="400" font-size="20" transform="matrix(0.260714 0 0 0.259524 706.16 239)">s</text></g></svg>