<svg width="161" height="121" xmlns="http://www.w3.org/2000/svg" xmlns:xlink="http://www.w3.org/1999/xlink" xml:space="preserve" overflow="hidden"><g transform="translate(-660 -561)"><path d="M20.9875 106.662 145.762 106.662" stroke="#262626" stroke-width="0.20125" stroke-linecap="square" stroke-linejoin="round" fill="none" transform="matrix(1 0 0 1.00207 660 561)"/><path d="M75.095 106.662 75.095 105.426" stroke="#262626" stroke-width="0.20125" stroke-linecap="square" stroke-linejoin="round" fill="none" transform="matrix(1 0 0 1.00207 660 561)"/><path d="M87.63 106.662 87.63 105.426" stroke="#262626" stroke-width="0.20125" stroke-linecap="square" stroke-linejoin="round" fill="none" transform="matrix(1 0 0 1.00207 660 561)"/><path d="M100.136 106.662 100.136 105.426" stroke="#262626" stroke-width="0.20125" stroke-linecap="square" stroke-linejoin="round" fill="none" transform="matrix(1 0 0 1.00207 660 561)"/><path d="M112.671 106.662 112.671 105.426" stroke="#262626" stroke-width="0.20125" stroke-linecap="square" stroke-linejoin="round" fill="none" transform="matrix(1 0 0 1.00207 660 561)"/><path d="M125.177 106.662 125.177 105.426" stroke="#262626" stroke-width="0.20125" stroke-linecap="square" stroke-linejoin="round" fill="none" transform="matrix(1 0 0 1.00207 660 561)"/><path d="" stroke="#262626" stroke-width="0.20125" stroke-linecap="square" stroke-linejoin="round" fill="none" transform="matrix(1 0 0 1.00207 660 561)"/><path d="M37.5475 106.662 37.5475 105.426" stroke="#262626" stroke-width="0.20125" stroke-linecap="square" stroke-linejoin="round" fill="none" transform="matrix(1 0 0 1.00207 660 561)"/><path d="" stroke="#262626" stroke-width="0.20125" stroke-linecap="square" stroke-linejoin="round" fill="none" transform="matrix(1 0 0 1.00207 660 561)"/><path d="" stroke="#262626" stroke-width="0.20125" stroke-linecap="square" stroke-linejoin="round" fill="none" transform="matrix(1 0 0 1.00207 660 561)"/><path d="" stroke="#262626" stroke-width="0.20125" stroke-linecap="square" stroke-linejoin="round" fill="none" transform="matrix(1 0 0 1.00207 660 561)"/><path d="M75.095 106.662 75.095 106.03" stroke="#262626" stroke-width="0.20125" stroke-linecap="square" stroke-linejoin="round" fill="none" transform="matrix(1 0 0 1.00207 660 561)"/><path d="M87.63 106.662 87.63 106.03" stroke="#262626" stroke-width="0.20125" stroke-linecap="square" stroke-linejoin="round" fill="none" transform="matrix(1 0 0 1.00207 660 561)"/><path d="" stroke="#262626" stroke-width="0.20125" stroke-linecap="square" stroke-linejoin="round" fill="none" transform="matrix(1 0 0 1.00207 660 561)"/><path d="" stroke="#262626" stroke-width="0.20125" stroke-linecap="square" stroke-linejoin="round" fill="none" transform="matrix(1 0 0 1.00207 660 561)"/><path d="M100.136 106.662 100.136 106.03" stroke="#262626" stroke-width="0.20125" stroke-linecap="square" stroke-linejoin="round" fill="none" transform="matrix(1 0 0 1.00207 660 561)"/><text fill="#262626" font-family="Arial,Arial_MSFontService,sans-serif" font-weight="400" font-size="24" transform="matrix(0.2875 0 0 0.288095 732.076 674)">20</text><text fill="#262626" font-family="Arial,Arial_MSFontService,sans-serif" font-weight="400" font-size="24" transform="matrix(0.2875 0 0 0.288095 744.611 674)">40</text><text fill="#262626" font-family="Arial,Arial_MSFontService,sans-serif" font-weight="400" font-size="24" transform="matrix(0.2875 0 0 0.288095 757.117 674)">80</text><text fill="#262626" font-family="Arial,Arial_MSFontService,sans-serif" font-weight="400" font-size="24" transform="matrix(0.2875 0 0 0.288095 768.503 674)">160</text><text fill="#262626" font-family="Arial,Arial_MSFontService,sans-serif" font-weight="400" font-size="24" transform="matrix(0.2875 0 0 0.288095 781.009 674)">320</text><path d="M20.9875 106.662 22.2238 106.662" stroke="#262626" stroke-width="0.20125" stroke-linecap="square" stroke-linejoin="round" fill="none" transform="matrix(1 0 0 1.00207 660 561)"/><text fill="#262626" font-family="Arial,Arial_MSFontService,sans-serif" font-weight="400" font-size="24" transform="matrix(0.2875 0 0 0.288095 695.621 674)">0</text><path d="M75.095 46.345 75.095 53.5325" stroke="#7E2F8E" stroke-width="0.20125" stroke-linejoin="round" fill="none" transform="matrix(1 0 0 1.00207 660 561)"/><path d="M87.63 63.48 87.63 70.0638" stroke="#7E2F8E" stroke-width="0.20125" stroke-linejoin="round" fill="none" transform="matrix(1 0 0 1.00207 660 561)"/><path d="M100.136 86.1925 100.136 93.9837" stroke="#7E2F8E" stroke-width="0.20125" stroke-linejoin="round" fill="none" transform="matrix(1 0 0 1.00207 660 561)"/><path d="M112.671 94.7025 112.671 97.2612" stroke="#7E2F8E" stroke-width="0.20125" stroke-linejoin="round" fill="none" transform="matrix(1 0 0 1.00207 660 561)"/><path d="M125.177 86.2212 125.177 90.9938" stroke="#7E2F8E" stroke-width="0.20125" stroke-linejoin="round" fill="none" transform="matrix(1 0 0 1.00207 660 561)"/><path d="M75.095 46.345 75.095 39.1575" stroke="#7E2F8E" stroke-width="0.20125" stroke-linejoin="round" fill="none" transform="matrix(1 0 0 1.00207 660 561)"/><path d="M87.63 63.48 87.63 56.925" stroke="#7E2F8E" stroke-width="0.20125" stroke-linejoin="round" fill="none" transform="matrix(1 0 0 1.00207 660 561)"/><path d="M100.136 86.1925 100.136 78.4013" stroke="#7E2F8E" stroke-width="0.20125" stroke-linejoin="round" fill="none" transform="matrix(1 0 0 1.00207 660 561)"/><path d="M112.671 94.7025 112.671 92.1725" stroke="#7E2F8E" stroke-width="0.20125" stroke-linejoin="round" fill="none" transform="matrix(1 0 0 1.00207 660 561)"/><path d="M125.177 86.2212 125.177 81.4487" stroke="#7E2F8E" stroke-width="0.20125" stroke-linejoin="round" fill="none" transform="matrix(1 0 0 1.00207 660 561)"/><path d="M75.095 46.345 87.6012 63.48 100.107 86.1925 112.614 94.7025 125.12 86.2212" stroke="#7E2F8E" stroke-width="0.20125" stroke-linejoin="round" fill="none" transform="matrix(1 0 0 1.00207 660 561)"/><path d="M76.245 46.345C76.245 46.9801 75.7301 47.495 75.095 47.495 74.4599 47.495 73.945 46.9801 73.945 46.345 73.945 45.7099 74.4599 45.195 75.095 45.195 75.7301 45.195 76.245 45.7099 76.245 46.345Z" fill="#7E2F8E" transform="matrix(1 0 0 1.00207 660 561)"/><path d="M75.095 45.31C75.67 45.31 76.1587 45.77 76.1587 46.3737L76.1587 46.3737C76.1587 46.9487 75.6987 47.4375 75.095 47.4375 74.4912 47.4375 74.0312 46.9775 74.0312 46.3737 74.0312 45.77 74.4912 45.31 75.095 45.31ZM75.095 45.1087C74.405 45.1087 73.8587 45.655 73.8587 46.345 73.8587 47.035 74.405 47.5812 75.095 47.5812 75.785 47.5812 76.3312 47.035 76.3312 46.345L76.3312 46.345C76.3312 45.655 75.785 45.1087 75.095 45.1087Z" fill="#7E2F8E" transform="matrix(1 0 0 1.00207 660 561)"/><path d="M88.78 63.48C88.78 64.1151 88.2651 64.63 87.63 64.63 86.9949 64.63 86.48 64.1151 86.48 63.48 86.48 62.8449 86.9949 62.33 87.63 62.33 88.2651 62.33 88.78 62.8449 88.78 63.48Z" fill="#7E2F8E" transform="matrix(1 0 0 1.00207 660 561)"/><path d="M87.63 62.445C88.205 62.445 88.6937 62.905 88.6937 63.5087L88.6937 63.5087C88.6937 64.0837 88.2337 64.5725 87.63 64.5725 87.0263 64.5725 86.5663 64.1125 86.5663 63.5087 86.5663 62.905 87.0263 62.445 87.63 62.445ZM87.63 62.2437C86.94 62.2437 86.3937 62.79 86.3937 63.48 86.3937 64.17 86.94 64.7162 87.63 64.7162 88.32 64.7162 88.8662 64.17 88.8662 63.48L88.8662 63.48C88.8662 62.79 88.32 62.2437 87.63 62.2437Z" fill="#7E2F8E" transform="matrix(1 0 0 1.00207 660 561)"/><path d="M101.286 86.1925C101.286 86.8276 100.771 87.3425 100.136 87.3425 99.5011 87.3425 98.9862 86.8276 98.9862 86.1925 98.9862 85.5574 99.5011 85.0425 100.136 85.0425 100.771 85.0425 101.286 85.5574 101.286 86.1925Z" fill="#7E2F8E" transform="matrix(1 0 0 1.00207 660 561)"/><path d="M100.136 85.1575C100.711 85.1575 101.2 85.6175 101.2 86.2212L101.2 86.2212C101.2 86.7962 100.74 87.285 100.136 87.285 99.5325 87.285 99.0725 86.825 99.0725 86.2212 99.0725 85.6175 99.5325 85.1575 100.136 85.1575ZM100.136 84.9562C99.4462 84.9562 98.9 85.5025 98.9 86.1925 98.9 86.8825 99.4462 87.4287 100.136 87.4287 100.826 87.4287 101.372 86.8825 101.372 86.1925L101.372 86.1925C101.372 85.5025 100.826 84.9562 100.136 84.9562Z" fill="#7E2F8E" transform="matrix(1 0 0 1.00207 660 561)"/><path d="M113.821 94.7025C113.821 95.3376 113.306 95.8525 112.671 95.8525 112.036 95.8525 111.521 95.3376 111.521 94.7025 111.521 94.0674 112.036 93.5525 112.671 93.5525 113.306 93.5525 113.821 94.0674 113.821 94.7025Z" fill="#7E2F8E" transform="matrix(1 0 0 1.00207 660 561)"/><path d="M112.671 93.6675C113.246 93.6675 113.735 94.1275 113.735 94.7312L113.735 94.7312C113.735 95.3063 113.275 95.795 112.671 95.795 112.067 95.795 111.607 95.335 111.607 94.7312 111.607 94.1275 112.067 93.6675 112.671 93.6675ZM112.671 93.4662C111.981 93.4662 111.435 94.0125 111.435 94.7025 111.435 95.3925 111.981 95.9388 112.671 95.9388 113.361 95.9388 113.908 95.3925 113.908 94.7025L113.908 94.7025C113.908 94.0125 113.361 93.4662 112.671 93.4662Z" fill="#7E2F8E" transform="matrix(1 0 0 1.00207 660 561)"/><path d="M126.327 86.2212C126.327 86.8564 125.813 87.3712 125.177 87.3712 124.542 87.3712 124.027 86.8564 124.027 86.2212 124.027 85.5861 124.542 85.0712 125.177 85.0712 125.813 85.0712 126.327 85.5861 126.327 86.2212Z" fill="#7E2F8E" transform="matrix(1 0 0 1.00207 660 561)"/><path d="M125.177 85.1575C125.752 85.1575 126.241 85.6175 126.241 86.2212L126.241 86.2212C126.241 86.7962 125.781 87.285 125.177 87.285 124.574 87.285 124.114 86.825 124.114 86.2212 124.114 85.6175 124.574 85.1575 125.177 85.1575ZM125.177 84.985C124.487 84.985 123.941 85.5312 123.941 86.2212 123.941 86.9112 124.487 87.4575 125.177 87.4575 125.867 87.4575 126.414 86.9112 126.414 86.2212L126.414 86.2212C126.414 85.5312 125.867 84.985 125.177 84.985Z" fill="#7E2F8E" transform="matrix(1 0 0 1.00207 660 561)"/><path d="M37.5475 31.4525 37.5475 40.2788" stroke="#7E2F8E" stroke-width="0.20125" stroke-linejoin="round" fill="none" transform="matrix(1 0 0 1.00207 660 561)"/><path d="M37.5475 31.4525 37.5475 22.5975" stroke="#7E2F8E" stroke-width="0.20125" stroke-linejoin="round" fill="none" transform="matrix(1 0 0 1.00207 660 561)"/><path d="M38.6975 31.4525C38.6975 32.0876 38.1826 32.6025 37.5475 32.6025 36.9124 32.6025 36.3975 32.0876 36.3975 31.4525 36.3975 30.8174 36.9124 30.3025 37.5475 30.3025 38.1826 30.3025 38.6975 30.8174 38.6975 31.4525Z" fill="#7E2F8E" transform="matrix(1 0 0 1.00207 660 561)"/><path d="M37.5475 30.3887C38.1225 30.3887 38.6113 30.8488 38.6113 31.4525L38.6113 31.4525C38.6113 32.0275 38.1512 32.5163 37.5475 32.5163 36.9437 32.5163 36.4837 32.0562 36.4837 31.4525 36.4837 30.8488 36.9437 30.3887 37.5475 30.3887ZM37.5475 30.1875C36.8575 30.1875 36.3112 30.7337 36.3112 31.4237 36.3112 32.1137 36.8575 32.66 37.5475 32.66 38.2375 32.66 38.7837 32.1137 38.7837 31.4237L38.7837 31.4237C38.7837 30.7337 38.2375 30.1875 37.5475 30.1875Z" fill="#7E2F8E" transform="matrix(1 0 0 1.00207 660 561)"/><path d="M75.095 39.9912 75.095 47.0062" stroke="#77AC30" stroke-width="0.20125" stroke-linejoin="round" fill="none" transform="matrix(1 0 0 1.00207 660 561)"/><path d="M87.63 51.8363 87.63 61.3237" stroke="#77AC30" stroke-width="0.20125" stroke-linejoin="round" fill="none" transform="matrix(1 0 0 1.00207 660 561)"/><path d="M100.136 56.2925 100.136 65.7225" stroke="#77AC30" stroke-width="0.20125" stroke-linejoin="round" fill="none" transform="matrix(1 0 0 1.00207 660 561)"/><path d="M112.671 52.5262 112.671 64.6875" stroke="#77AC30" stroke-width="0.20125" stroke-linejoin="round" fill="none" transform="matrix(1 0 0 1.00207 660 561)"/><path d="M125.177 56.005 125.177 63.3075" stroke="#77AC30" stroke-width="0.20125" stroke-linejoin="round" fill="none" transform="matrix(1 0 0 1.00207 660 561)"/><path d="M75.095 39.9912 75.095 32.9475" stroke="#77AC30" stroke-width="0.20125" stroke-linejoin="round" fill="none" transform="matrix(1 0 0 1.00207 660 561)"/><path d="M87.63 51.8363 87.63 42.3488" stroke="#77AC30" stroke-width="0.20125" stroke-linejoin="round" fill="none" transform="matrix(1 0 0 1.00207 660 561)"/><path d="M100.136 56.2925 100.136 46.8625" stroke="#77AC30" stroke-width="0.20125" stroke-linejoin="round" fill="none" transform="matrix(1 0 0 1.00207 660 561)"/><path d="M112.671 52.5262 112.671 40.365" stroke="#77AC30" stroke-width="0.20125" stroke-linejoin="round" fill="none" transform="matrix(1 0 0 1.00207 660 561)"/><path d="M125.177 56.005 125.177 48.7025" stroke="#77AC30" stroke-width="0.20125" stroke-linejoin="round" fill="none" transform="matrix(1 0 0 1.00207 660 561)"/><path d="M75.095 39.9912 87.6012 51.8363 100.107 56.2925 112.614 52.4975 125.12 56.005" stroke="#77AC30" stroke-width="0.20125" stroke-linejoin="round" fill="none" transform="matrix(1 0 0 1.00207 660 561)"/><path d="M76.245 39.9912C76.245 40.6264 75.7301 41.1413 75.095 41.1413 74.4599 41.1413 73.945 40.6264 73.945 39.9912 73.945 39.3561 74.4599 38.8413 75.095 38.8413 75.7301 38.8413 76.245 39.3561 76.245 39.9912Z" fill="#FFFFFF" transform="matrix(1 0 0 1.00207 660 561)"/><path d="M75.095 38.9275C75.67 38.9275 76.1587 39.3875 76.1587 39.9912L76.1587 39.9912C76.1587 40.5662 75.6987 41.055 75.095 41.055 74.4912 41.055 74.0312 40.595 74.0312 39.9912 74.0312 39.3875 74.4912 38.9275 75.095 38.9275ZM75.095 38.755C74.405 38.755 73.8587 39.3012 73.8587 39.9912 73.8587 40.6812 74.405 41.2275 75.095 41.2275 75.785 41.2275 76.3312 40.6812 76.3312 39.9912L76.3312 39.9912C76.3312 39.3012 75.785 38.755 75.095 38.755Z" fill="#77AC30" transform="matrix(1 0 0 1.00207 660 561)"/><path d="M88.78 51.8363C88.78 52.4714 88.2651 52.9862 87.63 52.9862 86.9949 52.9862 86.48 52.4714 86.48 51.8363 86.48 51.2011 86.9949 50.6862 87.63 50.6862 88.2651 50.6862 88.78 51.2011 88.78 51.8363Z" fill="#FFFFFF" transform="matrix(1 0 0 1.00207 660 561)"/><path d="M87.63 50.8012C88.205 50.8012 88.6937 51.2612 88.6937 51.865L88.6937 51.865C88.6937 52.44 88.2337 52.9287 87.63 52.9287 87.0263 52.9287 86.5663 52.4688 86.5663 51.865 86.5663 51.2612 87.0263 50.8012 87.63 50.8012ZM87.63 50.6C86.94 50.6 86.3937 51.1462 86.3937 51.8363 86.3937 52.5262 86.94 53.0725 87.63 53.0725 88.32 53.0725 88.8662 52.5262 88.8662 51.8363L88.8662 51.8363C88.8662 51.1462 88.32 50.6 87.63 50.6Z" fill="#77AC30" transform="matrix(1 0 0 1.00207 660 561)"/><path d="M101.286 56.2925C101.286 56.9276 100.771 57.4425 100.136 57.4425 99.5011 57.4425 98.9862 56.9276 98.9862 56.2925 98.9862 55.6574 99.5011 55.1425 100.136 55.1425 100.771 55.1425 101.286 55.6574 101.286 56.2925Z" fill="#FFFFFF" transform="matrix(1 0 0 1.00207 660 561)"/><path d="M100.136 55.2575C100.711 55.2575 101.2 55.7175 101.2 56.3212L101.2 56.3212C101.2 56.8962 100.74 57.385 100.136 57.385 99.5325 57.385 99.0725 56.925 99.0725 56.3212 99.0725 55.7175 99.5325 55.2575 100.136 55.2575ZM100.136 55.0562C99.4462 55.0562 98.9 55.6025 98.9 56.2925 98.9 56.9825 99.4462 57.5288 100.136 57.5288 100.826 57.5288 101.372 56.9825 101.372 56.2925L101.372 56.2925C101.372 55.6025 100.826 55.0562 100.136 55.0562Z" fill="#77AC30" transform="matrix(1 0 0 1.00207 660 561)"/><path d="M113.821 52.5262C113.821 53.1614 113.306 53.6762 112.671 53.6762 112.036 53.6762 111.521 53.1614 111.521 52.5262 111.521 51.8911 112.036 51.3762 112.671 51.3762 113.306 51.3762 113.821 51.8911 113.821 52.5262Z" fill="#FFFFFF" transform="matrix(1 0 0 1.00207 660 561)"/><path d="M112.671 51.4625C113.246 51.4625 113.735 51.9225 113.735 52.5262L113.735 52.5262C113.735 53.1012 113.275 53.59 112.671 53.59 112.067 53.59 111.607 53.13 111.607 52.5262 111.607 51.9225 112.067 51.4625 112.671 51.4625ZM112.671 51.2612C111.981 51.2612 111.435 51.8075 111.435 52.4975 111.435 53.1875 111.981 53.7337 112.671 53.7337 113.361 53.7337 113.908 53.1875 113.908 52.4975L113.908 52.4975C113.908 51.8075 113.361 51.2612 112.671 51.2612Z" fill="#77AC30" transform="matrix(1 0 0 1.00207 660 561)"/><path d="M126.327 56.005C126.327 56.6401 125.813 57.155 125.177 57.155 124.542 57.155 124.027 56.6401 124.027 56.005 124.027 55.3699 124.542 54.855 125.177 54.855 125.813 54.855 126.327 55.3699 126.327 56.005Z" fill="#FFFFFF" transform="matrix(1 0 0 1.00207 660 561)"/><path d="M125.177 54.97C125.752 54.97 126.241 55.43 126.241 56.0337L126.241 56.0337C126.241 56.6087 125.781 57.0975 125.177 57.0975 124.574 57.0975 124.114 56.6375 124.114 56.0337 124.114 55.43 124.574 54.97 125.177 54.97ZM125.177 54.7687C124.487 54.7687 123.941 55.315 123.941 56.005 123.941 56.695 124.487 57.2412 125.177 57.2412 125.867 57.2412 126.414 56.695 126.414 56.005L126.414 56.005C126.414 55.315 125.867 54.7687 125.177 54.7687Z" fill="#77AC30" transform="matrix(1 0 0 1.00207 660 561)"/><path d="M37.5475 43.5562 37.5475 50.4562" stroke="#77AC30" stroke-width="0.20125" stroke-linejoin="round" fill="none" transform="matrix(1 0 0 1.00207 660 561)"/><path d="M37.5475 43.5562 37.5475 36.6275" stroke="#77AC30" stroke-width="0.20125" stroke-linejoin="round" fill="none" transform="matrix(1 0 0 1.00207 660 561)"/><path d="M38.6975 43.5562C38.6975 44.1914 38.1826 44.7062 37.5475 44.7062 36.9124 44.7062 36.3975 44.1914 36.3975 43.5562 36.3975 42.9211 36.9124 42.4062 37.5475 42.4062 38.1826 42.4062 38.6975 42.9211 38.6975 43.5562Z" fill="#FFFFFF" transform="matrix(1 0 0 1.00207 660 561)"/><path d="M37.5475 42.4925C38.1225 42.4925 38.6113 42.9525 38.6113 43.5562L38.6113 43.5562C38.6113 44.1312 38.1512 44.62 37.5475 44.62 36.9437 44.62 36.4837 44.16 36.4837 43.5562 36.4837 42.9525 36.9437 42.4925 37.5475 42.4925ZM37.5475 42.2913C36.8575 42.2913 36.3112 42.8375 36.3112 43.5275 36.3112 44.2175 36.8575 44.7637 37.5475 44.7637 38.2375 44.7637 38.7837 44.2175 38.7837 43.5275L38.7837 43.5275C38.7837 42.8375 38.2375 42.2913 37.5475 42.2913Z" fill="#77AC30" transform="matrix(1 0 0 1.00207 660 561)"/><path d="M112.671 52.5262 112.671 64.6875" stroke="#77AC30" stroke-width="0.20125" stroke-linejoin="round" fill="none" transform="matrix(1 0 0 1.00207 660 561)"/><path d="M112.671 52.5262 112.671 40.365" stroke="#77AC30" stroke-width="0.20125" stroke-linejoin="round" fill="none" transform="matrix(1 0 0 1.00207 660 561)"/><path d="M113.821 52.5262C113.821 53.1614 113.306 53.6762 112.671 53.6762 112.036 53.6762 111.521 53.1614 111.521 52.5262 111.521 51.8911 112.036 51.3762 112.671 51.3762 113.306 51.3762 113.821 51.8911 113.821 52.5262Z" fill="#77AC30" transform="matrix(1 0 0 1.00207 660 561)"/><path d="M112.671 51.4625C113.246 51.4625 113.735 51.9225 113.735 52.5262L113.735 52.5262C113.735 53.1012 113.275 53.59 112.671 53.59 112.067 53.59 111.607 53.13 111.607 52.5262 111.607 51.9225 112.067 51.4625 112.671 51.4625ZM112.671 51.2612C111.981 51.2612 111.435 51.8075 111.435 52.4975 111.435 53.1875 111.981 53.7337 112.671 53.7337 113.361 53.7337 113.908 53.1875 113.908 52.4975L113.908 52.4975C113.908 51.8075 113.361 51.2612 112.671 51.2612Z" fill="#77AC30" transform="matrix(1 0 0 1.00207 660 561)"/><path d="M20.7 106.576 20.7 90.275" stroke="#000000" stroke-width="0.20125" stroke-linejoin="round" fill="none" transform="matrix(1 0 0 1.00207 660 561)"/><path d="M12.1612 97.2612 11.5575 97.2612 11.5575 93.4087C11.4137 93.5525 11.2125 93.6962 10.9825 93.84 10.7525 93.9837 10.5225 94.07 10.35 94.1562L10.35 93.5812C10.695 93.4087 10.9825 93.2362 11.2412 93.0062 11.5 92.7763 11.6725 92.5462 11.7875 92.345L12.19 92.345 12.19 97.29Z" transform="matrix(1 0 0 1.00207 660 561)"/><path d="M14.03 97.2612 14.03 96.5712 14.72 96.5712 14.72 97.2612 14.03 97.2612Z" transform="matrix(1 0 0 1.00207 660 561)"/><path d="M15.6112 94.8462C15.6112 94.2712 15.6687 93.7825 15.7838 93.4375 15.8987 93.0925 16.0713 92.805 16.33 92.6038 16.5887 92.4025 16.8762 92.3162 17.2213 92.3162 17.5662 92.3162 17.71 92.3737 17.9112 92.4888 18.1125 92.6038 18.285 92.7475 18.4 92.9487 18.515 93.15 18.63 93.4087 18.7162 93.6962 18.8025 93.9837 18.8312 94.3862 18.8312 94.875 18.8312 95.3638 18.7738 95.91 18.6588 96.2837 18.5437 96.6575 18.3713 96.9163 18.1125 97.1175 17.8537 97.3187 17.5662 97.405 17.2213 97.405 16.8762 97.405 16.3587 97.2325 16.1 96.8875 15.7838 96.485 15.6112 95.795 15.6112 94.875ZM16.2437 94.8462C16.2437 95.6513 16.33 96.1975 16.5312 96.4562 16.7325 96.715 16.9625 96.8587 17.2213 96.8587 17.48 96.8587 17.7388 96.715 17.9112 96.4562 18.0837 96.1975 18.1987 95.6513 18.1987 94.8462 18.1987 94.0413 18.1125 93.495 17.9112 93.2362 17.71 92.9775 17.48 92.8337 17.1925 92.8337 16.905 92.8337 16.7037 92.9487 16.5312 93.1787 16.33 93.4662 16.215 94.0413 16.215 94.8462Z" transform="matrix(1 0 0 1.00207 660 561)"/><path d="M4.1975 105.541 6.095 100.596 6.785 100.596 8.7975 105.541 4.1975 105.541ZM5.1175 104.966 7.8775 104.966 6.81375 102.149C6.64125 101.717 6.52625 101.372 6.46875 101.114 6.41125 101.43 6.325 101.746 6.21 102.062L5.14625 104.966Z" transform="matrix(1 0 0 1.00207 660 561)"/><path d="M9.40125 105.541 9.40125 100.596 12.7362 100.596 12.7362 101.171 10.0625 101.171 10.0625 102.695 12.3912 102.695 12.3912 103.27 10.0625 103.27 10.0625 105.512 9.40125 105.512Z" transform="matrix(1 0 0 1.00207 660 561)"/><path d="M13.0237 105.627 14.4612 100.51 14.95 100.51 13.5125 105.627 13.0237 105.627Z" transform="matrix(1 0 0 1.00207 660 561)"/><path d="M15.525 105.541 15.525 100.596 18.86 100.596 18.86 101.171 16.1862 101.171 16.1862 102.695 18.515 102.695 18.515 103.27 16.1862 103.27 16.1862 105.512 15.525 105.512Z" transform="matrix(1 0 0 1.00207 660 561)"/><text fill="#262626" font-family="Arial,Arial_MSFontService,sans-serif" font-weight="400" font-size="24" transform="matrix(0.2875 0 0 0.288095 713.274 680)">Background speed </text><text fill="#262626" font-family="Arial,Arial_MSFontService,sans-serif" font-weight="400" font-size="24" transform="matrix(0.2875 0 0 0.288095 773.649 680)">(</text><text fill="#262626" font-family="Arial,Arial_MSFontService,sans-serif" font-weight="400" font-size="24" transform="matrix(0.2875 0 0 0.288095 775.949 680)">°</text><text fill="#262626" font-family="Arial,Arial_MSFontService,sans-serif" font-weight="400" font-size="24" transform="matrix(0.2875 0 0 0.288095 778.824 680)">/</text><text fill="#262626" font-family="Arial,Arial_MSFontService,sans-serif" font-weight="400" font-size="24" transform="matrix(0.2875 0 0 0.288095 780.836 680)">s</text><text fill="#262626" font-family="Arial,Arial_MSFontService,sans-serif" font-weight="400" font-size="24" transform="matrix(0.2875 0 0 0.288095 784.286 680)">)</text></g></svg>