<svg width="647" height="80" xmlns="http://www.w3.org/2000/svg" xmlns:xlink="http://www.w3.org/1999/xlink" xml:space="preserve" overflow="hidden"><defs><clipPath id="clip0"><rect x="95" y="592" width="647" height="80"/></clipPath><clipPath id="clip1"><rect x="104" y="592" width="638" height="80"/></clipPath></defs><g clip-path="url(#clip0)" transform="translate(-95 -592)"><g clip-path="url(#clip1)"><g><path d="" stroke="#B3B3B3" stroke-width="0.235885" stroke-linejoin="bevel" stroke-dasharray="0 0 3.36979 2.02187" stroke-opacity="0.7" fill="none" transform="matrix(1 0 0 1.00564 104.006 476.386)"/><path d="M47.6489 177.386 49.0642 177.79 50.4795 179.644 51.8948 177.285 53.3101 180.149 54.7254 177.723 56.1407 177.824 57.556 180.048 58.9714 179.61 60.3867 179.677 61.802 179.441 63.2173 179.441C63.2173 179.475 64.6326 178.06 64.6326 178.06L66.0479 176.274 67.4632 176.981 68.8785 178.599 70.2939 176.746 71.7092 177.655 73.1245 178.734 74.5398 177.42 75.9551 178.835 77.3704 178.7 78.7857 180.048 80.201 177.824 81.6164 177.992 83.0317 176.948 84.447 169.501 85.8623 158.65 87.2776 150.798 88.6929 147.193 90.1082 143.755 91.5235 142.138 92.9389 151.91 94.3542 160.537 95.7695 158.953 97.1848 164.075 98.6001 170.41 100.015 168.422 101.431 171.859 102.846 170.747 104.261 173.915 105.677 174.05 107.092 174.623 108.507 175.499 109.923 176.51 111.338 176.072 112.753 176.274 114.169 175.937 115.584 176.476 116.999 176.341 118.414 177.251 119.83 176.442 121.245 176.577 122.66 175.667 122.66 172.837 121.245 173.409 119.83 173.039 118.414 173.207 116.999 170.41 115.584 172.668 114.169 173.511 112.753 173.578 111.338 173.342 109.923 171.354 108.507 170.613 107.092 172.668 105.677 171.994 104.261 170.208 102.846 162.862 101.431 166.434 100.015 160.436 98.6001 162.491 97.1848 156.763 95.7695 148.136 94.3542 149.417 92.9389 138.667 91.5235 124.514 90.1082 123.2 88.6929 129.4 87.2776 133.713 85.8623 144.631 84.447 157.302 83.0317 171.185 81.6164 175.667 80.201 176.813 78.7857 178.532 77.3704 176.847 75.9551 176.914 74.5398 175.937 73.1245 176.577 71.7092 175.869 70.2939 174.252 68.8785 176.274 67.4632 173.409 66.0479 173.848 64.6326 175.735 63.2173 177.521 61.802 178.363 60.3867 177.689 58.9714 177.689C58.9714 177.689 57.556 178.464 57.556 178.464L56.1407 175.903 54.7254 174.757 53.3101 178.7 51.8948 175.6 50.4795 177.757 49.0642 176.375 47.6489 175.802 46.2335 177.015 44.8182 175.701 44.8182 175.701C44.8182 175.701 44.8182 175.701 44.8182 175.701L44.8182 178.228 44.8182 178.228C44.8182 178.228 46.2335 178.801 46.2335 178.801L47.6489 177.42Z" fill="#7E2F8E" fill-opacity="0.3" transform="matrix(1 0 0 1.00564 104.006 476.386)"/><path d="M44.8182 176.914 44.8182 176.914C44.8182 176.914 46.2335 177.858 46.2335 177.858L47.6489 176.577 49.0642 177.083 50.4795 178.7 51.8948 176.442 53.3101 179.408 54.7254 176.24 56.1407 176.847 57.556 179.239 58.9714 178.633 60.3867 178.633C60.3867 178.633 61.802 178.869 61.802 178.869L63.2173 178.464 64.6326 176.88 66.0479 175.027 67.4632 175.162 68.8785 177.386 70.2939 175.465 71.7092 176.746 73.1245 177.655 74.5398 176.678 75.9551 177.891 77.3704 177.79 78.7857 179.307 80.201 177.352 81.6164 176.88 83.0317 174.117 84.447 163.469 85.8623 151.708 87.2776 142.34 88.6929 138.397 90.1082 133.579 91.5235 133.444 92.9389 145.407 94.3542 155.112 95.7695 153.696 97.1848 160.571 98.6001 166.603 100.015 164.581 101.431 169.298 102.846 166.973 104.261 172.23 105.677 173.174 107.092 173.78 108.507 173.207 109.923 174.083 111.338 174.859 112.753 175.094 114.169 174.892 115.584 174.757 116.999 173.578 118.414 175.431 119.83 174.926 121.245 175.195 122.66 174.454" stroke="#7E2F8E" stroke-width="0.438073" stroke-linejoin="round" fill="none" transform="matrix(1 0 0 1.00564 104.006 476.386)"/><path d="M44.8182 185.676 56.781 185.676" stroke="#000000" stroke-width="0.235885" stroke-linejoin="round" fill="none" transform="matrix(1 0 0 1.00564 104.006 476.386)"/><path d="M43.167 176.712 43.167 162.828" stroke="#000000" stroke-width="0.235885" stroke-linejoin="round" fill="none" transform="matrix(1 0 0 1.00564 104.006 476.386)"/><path d="M46.2335 178.296 44.8182 174.319 44.8182 174.319 44.8182 176.308 44.8182 176.308C44.8182 176.308 44.8182 176.308 44.8182 176.308L46.2335 180.284 47.6489 178.565 49.0642 178.026 50.4795 178.801 51.8948 177.858 53.3101 178.936 54.7254 179.071 56.1407 178.633 57.556 177.386 58.9714 179.879 60.3867 177.858 61.802 177.723 63.2173 178.228 64.6326 178.936 66.0479 178.767 67.4632 177.015 68.8785 178.498 70.2939 177.858 71.7092 178.363 73.1245 178.532 74.5398 179.307 75.9551 178.262 77.3704 177.622 78.7857 177.757 80.201 175.297 81.6164 172.466 83.0317 169.939 84.447 161.683 85.8623 159.256 87.2776 160.672 88.6929 162.626 90.1082 163.907 91.5235 166.063 92.9389 166.906 94.3542 165.76 95.7695 167.984 97.1848 169.972 98.6001 172.769 100.015 173.443 101.431 174.083 102.846 176.038 104.261 177.79 105.677 177.79C105.677 177.79 107.092 176.543 107.092 176.543L108.507 177.622 109.923 177.184 111.338 175.903 112.753 177.251 114.169 177.352 115.584 177.689 116.999 178.296 118.414 178.801 119.83 179.273 121.245 178.397 122.66 178.397C122.66 178.397 122.66 176.409 122.66 176.409L121.245 175.903 119.83 177.352 118.414 175.33 116.999 176.442 115.584 176.442C115.584 176.476 114.169 174.96 114.169 174.96L112.753 176.038 111.338 174.151 109.923 174.555 108.507 176.274 107.092 174.083 105.677 176.341 104.261 173.511 102.846 174.151 101.431 170.68 100.015 169.534 98.6001 164.614 97.1848 161.716 95.7695 160.469 94.3542 149.754 92.9389 154.539 91.5235 152.786 90.1082 151.101 88.6929 144.16 87.2776 142.508 85.8623 134.387 84.447 131.354 83.0317 154.775 81.6164 162.222 80.201 169.736 78.7857 174.151 77.3704 175.836 75.9551 176.847 74.5398 177.352 73.1245 176.678 71.7092 175.667 70.2939 176.308 68.8785 177.083 67.4632 174.724 66.0479 177.217 64.6326 177.487 63.2173 176.543 61.802 176.139 60.3867 175.937 58.9714 177.251 57.556 176.88 56.1407 176.139 54.7254 177.049 53.3101 177.858 51.8948 176.341 50.4795 177.487 49.0642 175.634 47.6489 176.813 46.2335 178.363Z" fill="#77AC30" fill-opacity="0.3" transform="matrix(1 0 0 1.00564 104.006 476.386)"/><path d="M44.8182 175.33 44.8182 175.33C44.8182 175.33 46.2335 179.273 46.2335 179.273L47.6489 177.622 49.0642 176.779 50.4795 178.093 51.8948 177.049 53.3101 178.329 54.7254 177.992 56.1407 177.318 57.556 177.083 58.9714 178.532 60.3867 176.88 61.802 176.88C61.802 176.914 63.2173 177.352 63.2173 177.352L64.6326 178.161 66.0479 177.959 67.4632 175.836 68.8785 177.757 70.2939 177.049 71.7092 176.981 73.1245 177.588 74.5398 178.329 75.9551 177.554 77.3704 176.746 78.7857 175.971 80.201 172.533 81.6164 167.344 83.0317 162.357 84.447 146.519 85.8623 146.822 87.2776 151.573 88.6929 153.393 90.1082 157.504 91.5235 159.425 92.9389 160.705 94.3542 157.74 95.7695 164.21 97.1848 165.827 98.6001 168.658 100.015 171.455 101.431 172.365 102.846 175.094 104.261 175.667 105.677 177.049 107.092 175.297 108.507 176.948 109.923 175.869 111.338 175.027 112.753 176.644 114.169 176.173 115.584 177.116 116.999 177.42 118.414 177.116 119.83 178.363 121.245 177.217 122.66 177.487" stroke="#77AC30" stroke-width="0.438073" stroke-linejoin="round" fill="none" transform="matrix(1 0 0 1.00564 104.006 476.386)"/><path d="M44.8182 183.654 44.8182 114.236" stroke="#B3B3B3" stroke-width="0.235885" stroke-linejoin="bevel" stroke-dasharray="0 0 3.36979 2.02187" stroke-opacity="0.7" fill="none" transform="matrix(1 0 0 1.00564 104.006 476.386)"/><path d="M56.781 183.654 56.781 114.236" stroke="#000000" stroke-width="0.235885" stroke-linejoin="bevel" stroke-dasharray="0 0 3.36979 2.02187" stroke-opacity="0.7" fill="none" transform="matrix(1 0 0 1.00564 104.006 476.386)"/><path d="M145.373 171.758 143.958 175.6 142.542 174.791 141.127 172.062 139.712 173.746 138.296 171.691 136.881 172.87 135.466 173.511 134.05 172.264 132.635 170.04 131.22 174.589 129.804 176.51 128.389 179.003 128.389 179.003C128.389 179.003 128.389 179.003 128.389 179.003L128.389 180.89 128.389 180.89C128.389 180.89 129.804 178.633 129.804 178.633L131.22 176.914 132.635 175.094 134.05 174.555 135.466 175.566 136.881 175.802 138.296 175.903 139.712 177.184 141.127 174.926 142.542 176.105 143.958 178.397 145.373 175.634 146.788 177.352 148.203 176.072 149.619 176.914 151.034 175.869 152.449 175.971 153.865 178.06 155.28 177.891 156.695 177.588 158.111 177.723 159.526 178.127 160.941 178.363 162.357 176.543 163.772 179.812 165.187 178.464 166.603 176.746 168.018 168.287 169.433 164.176 170.848 159.661 172.264 159.189 173.679 153.73 175.094 154.438 176.51 154.909 177.925 161.952 179.34 162.458 180.756 164.244 182.171 167.411 183.586 168.928 185.002 169.939 186.417 172.163 187.832 173.106 189.247 173.612 190.663 175.566 192.078 173.578 193.493 173.072 194.909 176.678 196.324 175.229 197.739 177.824 199.155 177.824C199.155 177.824 200.57 180.183 200.57 180.183L201.985 177.689 203.401 178.7 204.479 176.712 205.894 178.363 205.894 176.139 204.479 173.915 203.401 176.105 201.985 175.297 200.57 177.992 199.155 175.802 197.739 176.072 196.324 172.904 194.909 172.533 193.493 168.725 192.078 172.23 190.663 172.702 189.247 169.265 187.832 169.332 186.417 167.984 185.002 165.659 183.586 159.694 182.171 159.964 180.756 156.459 179.34 153.561 177.925 151.405 176.51 139.981 175.094 141.969 173.679 139.88 172.264 147.664 170.848 146.788 169.433 149.686 168.018 156.561 166.603 172.971 165.187 176.341 163.772 177.79 162.357 173.679 160.941 175.499 159.526 175.869 158.111 174.218 156.695 175.532 155.28 174.724 153.865 174.185 152.449 172.938 151.034 173.174 149.619 174.42 148.203 173.645 146.788 173.005 145.373 171.623Z" fill="#7E2F8E" fill-opacity="0.3" transform="matrix(1 0 0 1.00564 104.006 476.386)"/><path d="M128.389 179.913 128.389 179.913C128.389 179.913 129.804 177.554 129.804 177.554L131.22 175.735 132.635 172.567 134.05 173.409 135.466 174.555 136.881 174.353 138.296 173.814 139.712 175.465 141.127 173.511 142.542 175.465 143.958 177.015 145.373 173.713 146.788 175.263 148.203 174.926 149.619 175.735 151.034 174.589 152.449 174.522 153.865 176.173 155.28 176.341 156.695 176.611 158.111 176.004 159.526 177.015 160.941 176.948 162.357 175.128 163.772 178.835 165.187 177.453 166.603 174.892 168.018 162.458 169.433 156.965 170.848 153.258 172.264 153.46 173.679 146.856 175.094 148.271 176.51 147.496 177.925 156.729 179.34 158.043 180.756 160.368 182.171 163.704 183.586 164.311 185.002 167.782 186.417 170.073 187.832 171.219 189.247 171.455 190.663 174.151 192.078 172.904 193.493 170.916 194.909 174.623 196.324 174.083 197.739 176.981 199.155 176.847 200.57 179.138 201.985 176.543 203.401 177.453 204.479 175.364 205.894 177.318" stroke="#7E2F8E" stroke-width="0.438073" stroke-linejoin="round" fill="none" transform="matrix(1 0 0 1.00564 104.006 476.386)"/><path d="M128.389 177.689 128.389 177.689C128.389 177.689 129.804 179.576 129.804 179.576L131.22 177.251 132.635 176.308 134.05 174.286 135.466 176.88 136.881 176.88C136.881 176.88 138.296 176.678 138.296 176.678L139.712 175.701 141.127 178.767 142.542 177.521 143.958 176.308 145.373 178.801 146.788 174.69 148.203 175.094 149.619 176.746 151.034 178.363 152.449 176.948 153.865 176.611 155.28 177.352 156.695 179.172 158.111 176.948 159.526 176.847 160.941 175.499 162.357 177.521 163.772 175.869 165.187 167.849 166.603 170.511 168.018 163.233 169.433 163.031 170.848 163.031C170.848 162.997 172.264 163.469 172.264 163.469L173.679 159.256 175.094 162.963 176.51 165.457 177.925 161.548 179.34 164.749 180.756 165.322 182.171 169.062 183.586 171.623 185.002 172.331 186.417 173.072 187.832 171.489 189.247 174.522 190.663 174.319 192.078 176.51 193.493 175.566 194.909 174.69 196.324 176.611 197.739 177.15 199.155 175.667 200.57 176.038 201.985 174.993 203.401 176.577 204.479 176.004 205.894 175.937 205.894 174.083 204.479 173.645 203.401 175.162 201.985 173.511 200.57 172.702 199.155 173.679 197.739 174.993 196.324 174.42 194.909 171.927 193.493 173.241 192.078 173.072 190.663 171.691 189.247 171.59 187.832 169.669 186.417 167.344 185.002 165.76 183.586 166.636 182.171 163.57 180.756 155.246 179.34 149.922 177.925 148.001 176.51 148.001C176.51 148.001 175.094 149.248 175.094 149.248L173.679 144.733 172.264 140.352 170.848 138.903 169.433 131.691 168.018 136.948 166.603 149.652 165.187 158.852 163.772 167.243 162.357 174.791 160.941 172.938 159.526 174.589 158.111 172.264 156.695 176.543 155.28 174.05 153.865 175.195 152.449 175.937 151.034 176.813 149.619 175.634 148.203 174.353 146.788 172.702 145.373 176.038 143.958 173.376 142.542 175.195 141.127 176.442 139.712 173.106 138.296 173.308 136.881 174.083 135.466 173.511 134.05 168.456 132.635 173.78 131.22 174.96 129.804 176.948 128.389 175.6 128.389 175.6 128.389 177.858 128.389 177.858Z" fill="#77AC30" fill-opacity="0.3" transform="matrix(1 0 0 1.00564 104.006 476.386)"/><path d="M128.389 176.543 128.389 176.543C128.389 176.543 129.804 178.161 129.804 178.161L131.22 176.004 132.635 174.96 134.05 171.287 135.466 175.094 136.881 175.364 138.296 174.892 139.712 174.319 141.127 177.521 142.542 176.274 143.958 174.757 145.373 177.352 146.788 173.612 148.203 174.656 149.619 176.139 151.034 177.521 152.449 176.375 153.865 175.836 155.28 175.634 156.695 177.79 158.111 174.522 159.526 175.634 160.941 174.117 162.357 176.038 163.772 171.421 165.187 163.199 166.603 159.93 168.018 149.956 169.433 147.226 170.848 150.798 172.264 151.742 173.679 151.843 175.094 155.954 176.51 156.561 177.925 154.606 179.34 157.167 180.756 160.133 182.171 166.164 183.586 168.995 185.002 168.928 186.417 170.073 187.832 170.444 189.247 172.938 190.663 172.938C190.663 172.904 192.078 174.656 192.078 174.656L193.493 174.286 194.909 173.207 196.324 175.398 197.739 175.937 199.155 174.555 200.57 174.252 201.985 174.117 203.401 175.735 204.479 174.69 205.894 174.892" stroke="#77AC30" stroke-width="0.438073" stroke-linejoin="round" fill="none" transform="matrix(1 0 0 1.00564 104.006 476.386)"/><path d="M128.389 183.654 128.389 114.236" stroke="#B3B3B3" stroke-width="0.235885" stroke-linejoin="bevel" stroke-dasharray="0 0 3.36979 2.02187" stroke-opacity="0.7" fill="none" transform="matrix(1 0 0 1.00564 104.006 476.386)"/><path d="M140.352 183.654 140.352 114.236" stroke="#000000" stroke-width="0.235885" stroke-linejoin="bevel" stroke-dasharray="0 0 3.36979 2.02187" stroke-opacity="0.7" fill="none" transform="matrix(1 0 0 1.00564 104.006 476.386)"/><path d="M211.69 175.499 213.106 175.33 214.521 175.735 215.936 174.757 217.352 173.848 218.767 175.701 220.182 175.634 221.598 174.623 223.013 175.195 224.428 176.24 225.843 176.139 227.259 175.532 228.674 177.521 230.089 175.128 231.505 178.97 232.92 175.465 234.335 175.566 235.751 178.228 237.166 177.42 238.581 177.554 239.997 178.902 241.412 177.689 242.827 176.577 244.243 178.363 245.658 176.779 247.073 177.622 248.488 179.071 249.904 170.714 251.319 164.918 252.734 165.019 254.15 160.537 255.565 159.088 256.98 155.381 258.396 159.998 259.811 164.008 261.226 169.366 262.642 171.927 264.057 171.388 265.472 172.196 266.888 171.118 268.303 174.522 269.718 171.792 271.133 175.027 272.549 176.644 273.964 175.634 275.379 175.869 276.795 176.678 278.21 176.914 279.625 175.465 281.041 176.51 282.456 176.442 283.871 178.767 285.287 176.644 286.702 177.689 288.117 178.97 288.117 176.981 286.702 174.286 285.287 174.522 283.871 176.779 282.456 173.915 281.041 173.915C281.041 173.915 279.625 171.185 279.625 171.185L278.21 174.522 276.795 173.982 275.379 173.106 273.964 172.028 272.549 173.982 271.133 172.028 269.718 168.523 268.303 170.882 266.888 165.996 265.472 166.805 264.057 166.097 262.642 165.255 261.226 160.941 259.811 153.797 258.396 145.44 256.98 145.508 255.565 148.271 254.15 151.169 252.734 156.864 251.319 155.617 249.904 165.996 248.488 176.072 247.073 175.499 245.658 174.825 244.243 173.78 242.827 174.589 241.412 176.105 239.997 176.442 238.581 176.004 237.166 175.229 235.751 175.532 234.335 172.5 232.92 172.87 231.505 176.308 230.089 172.702 228.674 175.128 227.259 173.308 225.843 173.477 224.428 173.78 223.013 173.511 221.598 170.815 220.182 171.994 218.767 172.062 217.352 170.174 215.936 170.545 214.521 171.792 213.106 171.994 211.69 173.039 210.275 175.094 210.275 175.094C210.275 175.094 210.275 175.094 210.275 175.094L210.275 177.116 210.275 177.116C210.275 177.116 211.69 175.398 211.69 175.398Z" fill="#7E2F8E" fill-opacity="0.3" transform="matrix(1 0 0 1.00564 104.006 476.386)"/><path d="M210.275 176.206 210.275 176.206C210.275 176.206 211.69 174.319 211.69 174.319L213.106 173.713 214.521 173.814 215.936 172.702 217.352 172.062 218.767 173.915 220.182 173.848 221.598 172.769 223.013 174.42 224.428 175.094 225.843 174.892 227.259 174.522 228.674 176.409 230.089 174.016 231.505 177.757 232.92 174.286 234.335 174.151 235.751 177.015 237.166 176.442 238.581 176.88 239.997 177.79 241.412 177.015 242.827 175.701 244.243 176.173 245.658 175.903 247.073 176.644 248.488 177.655 249.904 168.422 251.319 160.335 252.734 161.009 254.15 155.92 255.565 153.73 256.98 150.495 258.396 152.753 259.811 158.953 261.226 165.187 262.642 168.624 264.057 168.759 265.472 169.534 266.888 168.591 268.303 172.736 269.718 170.208 271.133 173.578 272.549 175.364 273.964 173.881 275.379 174.522 276.795 175.364 278.21 175.735 279.625 173.342 281.041 175.229 282.456 175.229C282.456 175.195 283.871 177.79 283.871 177.79L285.287 175.6 286.702 176.004 288.117 177.992" stroke="#7E2F8E" stroke-width="0.438073" stroke-linejoin="round" fill="none" transform="matrix(1 0 0 1.00564 104.006 476.386)"/><path d="M228.674 170.006 227.259 168.86 225.843 171.118 224.428 170.68 223.013 170.848 221.598 169.905 220.182 167.31 218.767 172.971 217.352 171.826 215.936 171.354 214.521 172.095 213.106 174.825 211.69 175.802 210.275 177.453 210.275 177.453C210.275 177.453 210.275 179.576 210.275 179.576L210.275 179.576C210.275 179.576 210.275 179.576 210.275 179.576L211.69 178.093 213.106 177.925 214.521 175.768 215.936 175.566 217.352 175.297 218.767 175.297C218.767 175.297 220.182 174.151 220.182 174.151L221.598 172.399 223.013 174.757 224.428 174.623 225.843 173.814 227.259 174.185 228.674 174.555 230.089 175.869 231.505 174.892 232.92 178.296 234.335 176.847 235.751 176.274 237.166 175.836 238.581 177.049 239.997 176.341 241.412 173.915 242.827 174.488 244.243 174.69 245.658 171.96 247.073 170.882 248.488 166.771 249.904 162.121 251.319 162.727 252.734 167.243 254.15 164.412 255.565 164.783 256.98 167.344 258.396 167.917 259.811 162.963 261.226 164.21 262.642 168.287 264.057 171.185 265.472 171.59 266.888 171.758 268.303 171.556 269.718 170.613 271.133 173.746 272.549 172.971 273.964 173.511 275.379 175.162 276.795 176.476 278.21 176.341 279.625 175.499 281.041 178.464 282.456 177.824 283.871 177.622 285.287 178.397 286.702 178.195 288.117 179.441 288.117 178.026 286.702 176.51 285.287 176.274 283.871 176.274C283.871 176.274 282.456 174.623 282.456 174.623L281.041 176.206 279.625 173.645 278.21 174.151 276.795 172.297 275.379 171.219 273.964 169.871 272.549 168.456 271.133 170.916 269.718 168.321 268.303 167.782 266.888 167.276 265.472 165.255 264.057 164.918 262.642 156.931 261.226 153.629 259.811 147.462 258.396 153.292 256.98 155.347 255.565 152.045 254.15 154.101 252.734 144.497 251.319 131.085 249.904 134.589 248.488 147.934 247.073 161.11 245.658 166.367 244.243 171.253 242.827 172.365 241.412 171.826 239.997 174.555 238.581 173.207 237.166 171.623 235.751 173.241 234.335 173.915 232.92 173.14 231.505 167.445 230.089 167.378 228.674 170.073Z" fill="#77AC30" fill-opacity="0.3" transform="matrix(1 0 0 1.00564 104.006 476.386)"/><path d="M210.275 178.498 210.275 178.498C210.275 178.498 211.69 176.914 211.69 176.914L213.106 176.341 214.521 173.881 215.936 173.409 217.352 173.511 218.767 174.083 220.182 170.68 221.598 171.084 223.013 172.736 224.428 172.601 225.843 172.432 227.259 171.489 228.674 172.23 230.089 171.556 231.505 171.118 232.92 175.667 234.335 175.33 235.751 174.724 237.166 173.679 238.581 175.094 239.997 175.431 241.412 172.87 242.827 173.443 244.243 172.971 245.658 169.164 247.073 165.996 248.488 157.369 249.904 148.372 251.319 146.923 252.734 155.887 254.15 159.29 255.565 158.448 256.98 161.379 258.396 160.638 259.811 155.246 261.226 158.953 262.642 162.66 264.057 168.085 265.472 168.456 266.888 169.568 268.303 169.703 269.718 169.501 271.133 172.365 272.549 170.747 273.964 171.725 275.379 173.207 276.795 174.42 278.21 175.263 279.625 174.589 281.041 177.352 282.456 176.24 283.871 176.948 285.287 177.352 286.702 177.352C286.702 177.352 288.117 178.734 288.117 178.734" stroke="#77AC30" stroke-width="0.438073" stroke-linejoin="round" fill="none" transform="matrix(1 0 0 1.00564 104.006 476.386)"/><path d="M210.275 183.654 210.275 114.236" stroke="#B3B3B3" stroke-width="0.235885" stroke-linejoin="bevel" stroke-dasharray="0 0 3.36979 2.02187" stroke-opacity="0.7" fill="none" transform="matrix(1 0 0 1.00564 104.006 476.386)"/><path d="M222.238 183.654 222.238 114.236" stroke="#000000" stroke-width="0.235885" stroke-linejoin="bevel" stroke-dasharray="0 0 3.36979 2.02187" stroke-opacity="0.7" fill="none" transform="matrix(1 0 0 1.00564 104.006 476.386)"/><path d="M294.183 173.039 294.183 173.039 294.183 175.33 294.183 175.33C294.183 175.33 294.183 175.33 294.183 175.33L295.598 177.184 297.013 174.319 298.429 176.981 299.844 175.802 301.259 175.937 302.675 177.015 304.09 173.982 305.505 175.701 306.921 175.802 308.336 176.476 309.751 176.274 311.167 177.42 312.582 177.891 313.997 176.577 315.413 176.375 316.828 178.329 318.243 179.441 319.658 178.195 321.074 176.644 322.489 177.554 323.904 175.634 325.32 177.757 326.735 177.757C326.735 177.757 328.15 175.768 328.15 175.768L329.566 179.509 330.981 177.015 332.396 176.274 333.812 175.094 335.227 174.555 336.642 171.725 338.058 170.747 339.473 171.623 340.888 171.556 342.303 171.893 343.719 172.938 345.134 170.815 346.549 173.915 347.965 175.061 349.38 175.6 350.795 175.499 352.211 178.397 353.626 177.386 355.041 176.543 356.457 175.162 357.872 176.51 359.287 176.409 360.703 178.565 362.118 175.499 363.533 177.959 364.948 177.689 366.364 176.88 367.779 178.565 369.194 177.285 370.61 178.262 372.025 177.959 372.025 176.038 370.61 176.139 369.194 174.791 367.779 176.308 366.364 175.229 364.948 174.791 363.533 175.836 362.118 171.96 360.703 175.937 359.287 174.555 357.872 174.05 356.457 172.702 355.041 174.151 353.626 174.589 352.211 176.611 350.795 171.725 349.38 173.376 347.965 170.444 346.549 167.917 345.134 164.244 343.719 163.772 342.303 157.201 340.888 164.109 339.473 167.007 338.058 164.412 336.642 167.95 335.227 171.556 333.812 173.544 332.396 173.645 330.981 174.993 329.566 177.487 328.15 171.32 326.735 175.297 325.32 174.993 323.904 173.679 322.489 175.398 321.074 174.555 319.658 176.577 318.243 177.15 316.828 176.24 315.413 174.555 313.997 174.252 312.582 174.522 311.167 175.162 309.751 173.713 308.336 174.555 306.921 172.702 305.505 171.826 304.09 170.747 302.675 173.881 301.259 172.971 299.844 173.072 298.429 173.814 297.013 172.028 295.598 174.589 294.183 172.938Z" fill="#7E2F8E" fill-opacity="0.3" transform="matrix(1 0 0 1.00564 104.006 476.386)"/><path d="M294.183 174.218 294.183 174.218C294.183 174.218 295.598 175.971 295.598 175.971L297.013 173.275 298.429 175.499 299.844 174.522 301.259 174.522C301.259 174.522 302.675 175.532 302.675 175.532L304.09 172.466 305.505 173.848 306.921 174.353 308.336 175.634 309.751 175.128 311.167 176.409 312.582 176.308 313.997 175.532 315.413 175.6 316.828 177.42 318.243 178.43 319.658 177.521 321.074 175.735 322.489 176.611 323.904 174.791 325.32 176.51 326.735 176.644 328.15 173.679 329.566 178.633 330.981 176.139 332.396 175.094 333.812 174.454 335.227 173.207 336.642 170.006 338.058 167.748 339.473 169.467 340.888 167.984 342.303 164.715 343.719 168.523 345.134 167.681 346.549 171.051 347.965 172.904 349.38 174.656 350.795 173.78 352.211 177.689 353.626 176.173 355.041 175.532 356.457 174.117 357.872 175.465 359.287 175.667 360.703 177.42 362.118 173.881 363.533 177.049 364.948 176.409 366.364 176.206 367.779 177.588 369.194 176.206 370.61 177.352 372.025 177.15" stroke="#7E2F8E" stroke-width="0.438073" stroke-linejoin="round" fill="none" transform="matrix(1 0 0 1.00564 104.006 476.386)"/><path d="M295.598 174.724 297.013 176.88 298.429 173.308 299.844 174.859 301.259 174.96 302.675 175.6 304.09 176.004 305.505 175.33 306.921 176.105 308.336 178.228 309.751 177.285 311.167 175.937 312.582 178.296 313.997 175.398 315.413 175.398C315.413 175.398 316.828 175.903 316.828 175.903L318.243 177.15 319.658 177.554 321.074 175.398 322.489 174.656 323.904 176.543 325.32 175.128 326.735 177.925 328.15 176.072 329.566 173.679 330.981 174.016 332.396 170.68 333.812 164.783 335.227 163.199 336.642 162.357 338.058 165.693 339.473 162.896 340.888 163.3 342.303 163.839 343.719 164.244 345.134 162.795 346.549 170.073 347.965 168.928 349.38 170.68 350.795 172.297 352.211 172.971 353.626 175.465 355.041 174.117 356.457 176.543 357.872 174.757 359.287 173.713 360.703 175.465 362.118 176.847 363.533 177.723 364.948 177.217 366.364 176.24 367.779 178.767 369.194 176.24 370.61 178.127 372.025 178.801 372.025 176.409 370.61 175.297 369.194 174.05 367.779 176.072 366.364 175.094 364.948 174.555 363.533 175.263 362.118 172.399 360.703 173.78 359.287 169.029 357.872 170.848 356.457 169.736 355.041 169.804 353.626 172.062 352.211 166.67 350.795 163.671 349.38 162.795 347.965 159.122 346.549 164.918 345.134 151.607 343.719 149.72 342.303 154.539 340.888 149.383 339.473 143.284 338.058 143.587 336.642 135.836 335.227 132.938 333.812 136.038 332.396 156.763 330.981 167.378 329.566 165.827 328.15 173.679 326.735 175.162 325.32 173.106 323.904 173.241 322.489 171.118 321.074 172.062 319.658 175.903 318.243 172.938 316.828 173.342 315.413 173.645 313.997 173.072 312.582 174.05 311.167 174.185 309.751 172.432 308.336 174.825 306.921 170.006 305.505 169.534 304.09 169.838 302.675 172.264 301.259 171.32 299.844 171.725 298.429 170.882 297.013 171.051 295.598 171.354 294.183 175.735 294.183 175.735 294.183 177.723 294.183 177.723C294.183 177.723 294.183 177.723 294.183 177.723L295.598 174.791Z" fill="#77AC30" fill-opacity="0.3" transform="matrix(1 0 0 1.00564 104.006 476.386)"/><path d="M294.183 176.678 294.183 176.678C294.183 176.678 295.598 173.005 295.598 173.005L297.013 173.915 298.429 172.028 299.844 173.241 301.259 173.072 302.675 173.881 304.09 172.87 305.505 172.399 306.921 173.039 308.336 176.51 309.751 174.859 311.167 175.061 312.582 176.173 313.997 174.218 315.413 174.488 316.828 174.589 318.243 174.993 319.658 176.678 321.074 173.679 322.489 172.837 323.904 174.825 325.32 174.05 326.735 176.476 328.15 174.825 329.566 169.703 330.981 170.646 332.396 163.671 333.812 150.36 335.227 148.001 336.642 149.046 338.058 154.572 339.473 153.022 340.888 156.257 342.303 159.088 343.719 156.898 345.134 157.1 346.549 167.378 347.965 163.907 349.38 166.603 350.795 167.849 352.211 169.703 353.626 173.645 355.041 171.826 356.457 173.005 357.872 172.668 359.287 171.253 360.703 174.488 362.118 174.488C362.118 174.488 363.533 176.341 363.533 176.341L364.948 175.735 366.364 175.499 367.779 177.251 369.194 174.993 370.61 176.543 372.025 177.42" stroke="#77AC30" stroke-width="0.438073" stroke-linejoin="round" fill="none" transform="matrix(1 0 0 1.00564 104.006 476.386)"/><path d="M294.183 183.654 294.183 114.236" stroke="#B3B3B3" stroke-width="0.235885" stroke-linejoin="bevel" stroke-dasharray="0 0 3.36979 2.02187" stroke-opacity="0.7" fill="none" transform="matrix(1 0 0 1.00564 104.006 476.386)"/><path d="M306.146 183.654 306.146 114.236" stroke="#000000" stroke-width="0.235885" stroke-linejoin="bevel" stroke-dasharray="0 0 3.36979 2.02187" stroke-opacity="0.7" fill="none" transform="matrix(1 0 0 1.00564 104.006 476.386)"/><path d="M401.073 177.689 402.488 177.689C402.488 177.689 403.903 178.026 403.903 178.026L405.319 178.464 406.734 175.566 408.149 178.7 409.565 176.948 410.98 176.274 412.395 177.42 413.81 179.239 415.226 177.285 416.641 174.724 418.056 174.724C418.056 174.757 419.472 172.87 419.472 172.87L420.887 172.567 422.302 174.387 423.718 173.342 425.133 172.028 426.548 174.555 427.964 174.623 429.379 174.892 430.794 173.241 432.21 176.004 433.625 176.105 435.04 175.195 436.455 176.072 437.871 177.251 439.286 177.15 440.701 178.093 442.117 175.802 443.532 175.229 444.947 177.689 446.363 178.464 447.778 175.937 449.193 179.441 450.609 179.239 452.024 177.588 453.439 177.588C453.439 177.554 454.855 178.127 454.855 178.127L456.27 176.375 456.27 174.117 454.855 176.476 453.439 175.701 452.024 175.701C452.024 175.735 450.609 177.083 450.609 177.083L449.193 177.959 447.778 174.623 446.363 176.813 444.947 176.072 443.532 172.938 442.117 172.938C442.117 172.971 440.701 175.297 440.701 175.297L439.286 175.667 437.871 174.555 436.455 171.455 435.04 173.376 433.625 173.376C433.625 173.376 432.21 173.376 432.21 173.376L430.794 169.231 429.379 171.792 427.964 171.421 426.548 172.5 425.133 167.243 423.718 169.568 422.302 170.613 420.887 168.085 419.472 168.658 418.056 171.489 416.641 172.668 415.226 175.431 413.81 176.678 412.395 175.128 410.98 173.241 409.565 174.387 408.149 175.465 406.734 174.016 405.319 176.375 403.903 175.195 402.488 175.128 401.073 174.892 399.657 171.388 398.242 175.162 396.827 176.274 395.411 172.971 393.996 172.297 392.581 172.365 391.165 172.062 389.75 172.129 388.335 169.77 386.919 172.837 385.504 170.242 384.089 169.838 382.674 171.287 381.258 173.106 379.843 176.577 378.428 176.206 378.428 176.206C378.428 176.206 378.428 176.206 378.428 176.206L378.428 178.026 378.428 178.026C378.428 178.026 379.843 179.104 379.843 179.104L381.258 175.869 382.674 174.623 384.089 174.791 385.504 173.207 386.919 175.465 388.335 173.409 389.75 175.802 391.165 175.465 392.581 173.915 393.996 175.027 395.411 176.206 396.827 178.262 398.242 177.318 399.657 174.96 401.073 177.723Z" fill="#7E2F8E" fill-opacity="0.3" transform="matrix(1 0 0 1.00564 104.006 476.386)"/><path d="M378.428 177.049 378.428 177.049C378.428 177.049 379.843 177.79 379.843 177.79L381.258 174.454 382.674 172.904 384.089 172.264 385.504 171.657 386.919 174.083 388.335 171.522 389.75 173.915 391.165 173.713 392.581 173.106 393.996 173.612 395.411 174.555 396.827 177.217 398.242 176.173 399.657 173.106 401.073 176.24 402.488 176.341 403.903 176.543 405.319 177.352 406.734 174.724 408.149 177.015 409.565 175.6 410.98 174.69 412.395 176.206 413.81 177.891 415.226 176.274 416.641 173.612 418.056 173.039 419.472 170.68 420.887 170.242 422.302 172.399 423.718 171.354 425.133 169.534 426.548 173.443 427.964 172.938 429.379 173.275 430.794 171.185 432.21 174.623 433.625 174.623C433.625 174.656 435.04 174.218 435.04 174.218L436.455 173.713 437.871 175.869 439.286 176.375 440.701 176.644 442.117 174.353 443.532 174.05 444.947 176.847 446.363 177.622 447.778 175.263 449.193 178.7 450.609 178.161 452.024 176.678 453.439 176.678C453.439 176.644 454.855 177.318 454.855 177.318L456.27 175.263" stroke="#7E2F8E" stroke-width="0.438073" stroke-linejoin="round" fill="none" transform="matrix(1 0 0 1.00564 104.006 476.386)"/><path d="M379.843 172.331 378.428 174.656 378.428 174.656 378.428 177.184 378.428 177.184C378.428 177.184 378.428 177.184 378.428 177.184L379.843 176.206 381.258 173.645 382.674 172.87 384.089 172.567 385.504 174.117 386.919 174.555 388.335 175.195 389.75 176.24 391.165 174.522 392.581 173.848 393.996 176.779 395.411 174.623 396.827 175.701 398.242 175.701C398.242 175.735 399.657 175.768 399.657 175.768L401.073 173.477 402.488 177.554 403.903 175.263 405.319 173.477 406.734 174.218 408.149 174.757 409.565 171.96 410.98 176.004 412.395 174.05 413.81 177.184 415.226 172.129 416.641 169.703 418.056 167.209 419.472 162.323 420.887 162.491 422.302 167.479 423.718 168.591 425.133 168.49 426.548 167.243 427.964 166.131 429.379 168.86 430.794 168.995 432.21 170.073 433.625 171.96 435.04 172.129 436.455 174.42 437.871 173.342 439.286 173.511 440.701 173.679 442.117 177.588 443.532 174.286 444.947 175.532 446.363 175.398 447.778 175.128 449.193 174.926 450.609 176.644 452.024 176.173 453.439 175.465 454.855 176.981 456.27 177.184 456.27 174.083 454.855 175.398 453.439 173.78 452.024 173.78C452.024 173.78 450.609 173.443 450.609 173.443L449.193 172.567 447.778 171.859 446.363 169.804 444.947 170.141 443.532 170.646 442.117 173.039 440.701 166.906 439.286 166.973 437.871 169.736 436.455 170.377 435.04 166.704 433.625 166.333 432.21 161.952 430.794 161.346 429.379 158.01 427.964 153.696 426.548 157.369 425.133 159.054 423.718 157.437 422.302 150.967 420.887 138.532 419.472 130.04 418.056 130.31 416.641 151.101 415.226 158.515 413.81 168.287 412.395 168.355 410.98 171.388 409.565 169.905 408.149 167.175 406.734 165.895 405.319 167.108 403.903 168.422 402.488 172.634 401.073 166.4 399.657 171.455 398.242 170.511 396.827 167.849 395.411 171.32 393.996 169.298 392.581 164.075 391.165 166.434 389.75 170.848 388.335 173.14 386.919 169.703 385.504 166.266 384.089 164.985 382.674 165.962 381.258 166.097 379.843 172.331Z" fill="#77AC30" fill-opacity="0.3" transform="matrix(1 0 0 1.00564 104.006 476.386)"/><path d="M378.428 175.903 378.428 175.903C378.428 175.903 379.843 174.252 379.843 174.252L381.258 169.871 382.674 169.433 384.089 168.793 385.504 170.208 386.919 172.163 388.335 174.185 389.75 173.544 391.165 170.478 392.581 168.961 393.996 173.039 395.411 172.971 396.827 171.758 398.242 173.106 399.657 173.578 401.073 169.905 402.488 175.061 403.903 171.826 405.319 170.276 406.734 170.04 408.149 170.95 409.565 170.95C409.565 170.916 410.98 173.679 410.98 173.679L412.395 171.185 413.81 172.736 415.226 165.322 416.641 160.402 418.056 148.743 419.472 146.148 420.887 150.495 422.302 159.189 423.718 162.963 425.133 163.738 426.548 162.289 427.964 159.897 429.379 163.401 430.794 165.12 432.21 165.962 433.625 169.096 435.04 169.366 436.455 172.331 437.871 171.489 439.286 170.174 440.701 170.242 442.117 175.263 443.532 172.432 444.947 172.803 446.363 172.567 447.778 173.477 449.193 173.713 450.609 174.993 452.024 174.892 453.439 174.555 454.855 176.105 456.27 175.532" stroke="#77AC30" stroke-width="0.438073" stroke-linejoin="round" fill="none" transform="matrix(1 0 0 1.00564 104.006 476.386)"/><path d="M378.428 183.654 378.428 114.236" stroke="#B3B3B3" stroke-width="0.235885" stroke-linejoin="bevel" stroke-dasharray="0 0 3.36979 2.02187" stroke-opacity="0.7" fill="none" transform="matrix(1 0 0 1.00564 104.006 476.386)"/><path d="M390.39 183.654 390.39 114.236" stroke="#000000" stroke-width="0.235885" stroke-linejoin="bevel" stroke-dasharray="0 0 3.36979 2.02187" stroke-opacity="0.7" fill="none" transform="matrix(1 0 0 1.00564 104.006 476.386)"/><path d="M465.503 173.78 464.088 175.33 462.672 174.926 462.672 174.926 462.672 176.375 462.672 176.375C462.672 176.375 462.672 176.375 462.672 176.375L464.088 177.858 465.503 176.779 466.918 171.489 468.334 170.747 469.749 169.804 471.164 171.253 472.58 173.275 473.995 171.455 475.41 171.758 476.826 175.768 478.241 176.51 479.656 173.275 481.071 175.398 482.487 175.836 483.902 173.881 485.317 175.364 486.733 177.049 488.148 176.038 489.563 175.836 490.979 176.88 492.394 177.217 493.809 176.173 495.225 177.521 496.64 174.96 498.055 174.96C498.055 174.96 499.471 177.891 499.471 177.891L500.886 178.127 502.301 173.915 503.716 170.444 505.132 166.872 506.547 167.647 507.962 167.95 509.378 167.209 510.793 170.41 512.208 168.86 513.624 173.207 515.039 174.623 516.454 175.094 517.87 174.286 519.285 173.477 520.7 174.859 522.116 177.42 523.531 174.892 524.946 175.061 526.361 175.566 527.777 177.15 529.192 175.297 530.607 174.69 532.023 177.15 533.438 176.341 534.853 176.038 536.269 177.116 537.684 177.285 539.099 178.06 540.515 176.847 540.515 174.791 539.099 176.173 537.684 175.768 536.269 174.825 534.853 172.668 533.438 174.05 532.023 174.993 530.607 171.287 529.192 172.163 527.777 174.387 526.361 171.556 524.946 171.623 523.531 171.354 522.116 173.511 520.7 169.804 519.285 169.905 517.87 170.141 516.454 169.062 515.039 170.882 513.624 168.422 512.208 163.334 510.793 163.94 509.378 157.807 507.962 161.278 506.547 158.852 505.132 159.998 503.716 164.041 502.301 170.174 500.886 172.736 499.471 173.949 498.055 173.342 496.64 171.758 495.225 173.746 493.809 173.578 492.394 175.735 490.979 175.061 489.563 172.736 488.148 173.409 486.733 173.78 485.317 171.287 483.902 170.848 482.487 172.904 481.071 171.017 479.656 171.118 478.241 174.218 476.826 172.736 475.41 166.367 473.995 167.243 472.58 169.197 471.164 166.097 469.749 165.726 468.334 165.154 466.918 166.131 465.503 173.949Z" fill="#7E2F8E" fill-opacity="0.3" transform="matrix(1 0 0 1.00564 104.006 476.386)"/><path d="M462.672 175.667 462.672 175.667C462.672 175.667 464.088 176.611 464.088 176.611L465.503 175.297 466.918 168.759 468.334 167.917 469.749 167.748 471.164 168.658 472.58 171.219 473.995 169.332 475.41 169.062 476.826 174.252 478.241 175.364 479.656 172.196 481.071 173.207 482.487 174.353 483.902 172.331 485.317 173.308 486.733 175.398 488.148 174.724 489.563 174.286 490.979 175.971 492.394 176.476 493.809 174.859 495.225 175.634 496.64 173.342 498.055 174.117 499.471 175.903 500.886 175.398 502.301 171.994 503.716 167.175 505.132 163.368 506.547 163.165 507.962 164.547 509.378 162.458 510.793 167.142 512.208 166.063 513.624 170.781 515.039 172.702 516.454 172.028 517.87 172.163 519.285 171.657 520.7 172.297 522.116 175.431 523.531 173.072 524.946 173.275 526.361 173.477 527.777 175.667 529.192 173.645 530.607 172.904 532.023 176.004 533.438 175.128 534.853 174.286 536.269 175.903 537.684 176.476 539.099 177.083 540.515 175.802" stroke="#7E2F8E" stroke-width="0.438073" stroke-linejoin="round" fill="none" transform="matrix(1 0 0 1.00564 104.006 476.386)"/><path d="M464.088 170.377 462.672 176.206 462.672 176.206C462.672 176.206 462.672 176.206 462.672 176.206L462.672 178.195 462.672 178.195C462.672 178.195 464.088 176.88 464.088 176.88L465.503 175.735 466.918 178.329 468.334 174.993 469.749 177.858 471.164 177.453 472.58 177.15 473.995 177.925 475.41 175.634 476.826 178.093 478.241 175.465 479.656 176.948 481.071 177.521 482.487 176.88 483.902 175.128 485.317 176.24 486.733 176.139 488.148 176.543 489.563 176.206 490.979 177.925 492.394 178.195 493.809 178.464 495.225 175.364 496.64 179.475 498.055 175.566 499.471 174.96 500.886 173.207 502.301 169.871 503.716 166.164 505.132 166.434 506.547 166.771 507.962 166.906 509.378 170.714 510.793 170.343 512.208 166.838 513.624 170.343 515.039 170.882 516.454 170.714 517.87 168.995 519.285 173.241 520.7 174.353 522.116 173.308 523.531 173.14 524.946 175.027 526.361 177.251 527.777 176.51 529.192 177.083 530.607 176.442 532.023 176.644 533.438 175.869 534.853 176.341 536.269 176.847 537.684 177.217 539.099 176.813 540.515 176.206 540.515 174.96 539.099 174.825 537.684 174.993 536.269 173.915 534.853 173.645 533.438 174.825 532.023 175.6 530.607 172.634 529.192 173.982 527.777 175.431 526.361 173.982 524.946 173.241 523.531 170.343 522.116 168.287 520.7 170.141 519.285 167.411 517.87 164.311 516.454 155.55 515.039 158.515 513.624 155.381 512.208 153.865 510.793 162.154 509.378 163.536 507.962 158.245 506.547 153.999 505.132 150.428 503.716 140.251 502.301 145.777 500.886 159.425 499.471 170.174 498.055 172.702 496.64 177.352 495.225 172.803 493.809 175.836 492.394 176.004 490.979 175.836 489.563 174.286 488.148 173.949 486.733 172.062 485.317 173.544 483.902 172.331 482.487 173.949 481.071 174.42 479.656 174.96 478.241 174.016 476.826 174.96 475.41 172.5 473.995 176.004 472.58 174.724 471.164 173.645 469.749 173.713 468.334 170.174 466.918 172.23 465.503 171.219 464.088 170.343Z" fill="#77AC30" fill-opacity="0.3" transform="matrix(1 0 0 1.00564 104.006 476.386)"/><path d="M462.672 177.184 462.672 177.184C462.672 177.184 464.088 173.612 464.088 173.612L465.503 173.477 466.918 175.263 468.334 172.567 469.749 175.768 471.164 175.532 472.58 175.903 473.995 176.914 475.41 174.016 476.826 176.476 478.241 174.69 479.656 175.903 481.071 175.903C481.071 175.903 482.487 175.364 482.487 175.364L483.902 173.679 485.317 174.859 486.733 174.05 488.148 175.195 489.563 175.195C489.563 175.195 490.979 176.847 490.979 176.847L492.394 177.049 493.809 177.049C493.809 177.083 495.225 174.016 495.225 174.016L496.64 178.329 498.055 174.05 499.471 172.466 500.886 166.232 502.301 157.74 503.716 153.123 505.132 158.347 506.547 160.301 507.962 162.491 509.378 167.041 510.793 166.164 512.208 160.267 513.624 162.795 515.039 164.648 516.454 163.098 517.87 166.636 519.285 170.309 520.7 172.23 522.116 170.781 523.531 171.725 524.946 174.117 526.361 175.6 527.777 175.937 529.192 175.499 530.607 174.522 532.023 176.105 533.438 175.33 534.853 174.96 536.269 175.364 537.684 176.072 539.099 175.768 540.515 175.532" stroke="#77AC30" stroke-width="0.438073" stroke-linejoin="round" fill="none" transform="matrix(1 0 0 1.00564 104.006 476.386)"/><path d="M462.672 183.654 462.672 114.236" stroke="#B3B3B3" stroke-width="0.235885" stroke-linejoin="bevel" stroke-dasharray="0 0 3.36979 2.02187" stroke-opacity="0.7" fill="none" transform="matrix(1 0 0 1.00564 104.006 476.386)"/><path d="M474.635 183.654 474.635 114.236" stroke="#000000" stroke-width="0.235885" stroke-linejoin="bevel" stroke-dasharray="0 0 3.36979 2.02187" stroke-opacity="0.7" fill="none" transform="matrix(1 0 0 1.00564 104.006 476.386)"/><path d="" stroke="#B3B3B3" stroke-width="0.235885" stroke-linejoin="bevel" stroke-dasharray="0 0 3.36979 2.02187" stroke-opacity="0.7" fill="none" transform="matrix(1 0 0 1.00564 104.006 476.386)"/><path d="" stroke="#000000" stroke-width="0.235885" stroke-linejoin="bevel" stroke-dasharray="0 0 3.36979 2.02187" stroke-opacity="0.7" fill="none" transform="matrix(1 0 0 1.00564 104.006 476.386)"/><text font-family="Arial,Arial_MSFontService,sans-serif" font-weight="400" font-size="20" transform="matrix(0.336979 0 0 0.33888 152.43 670)">1</text><text font-family="Arial,Arial_MSFontService,sans-serif" font-weight="400" font-size="20" transform="matrix(0.336979 0 0 0.33888 156.137 670)">s</text><path d="M35.1806 169.534 34.5741 169.534 34.5741 165.76C34.4393 165.895 34.2371 166.03 34.0012 166.164 33.7653 166.299 33.5631 166.4 33.3609 166.468L33.3609 165.895C33.6979 165.726 33.9675 165.558 34.2371 165.322 34.473 165.086 34.6752 164.884 34.7762 164.682L35.1469 164.682 35.1469 169.534Z" transform="matrix(1 0 0 1.00564 104.006 476.386)"/><path d="M37.034 169.534 37.034 168.86 37.708 168.86 37.708 169.534 37.034 169.534Z" transform="matrix(1 0 0 1.00564 104.006 476.386)"/><path d="M38.5841 167.175C38.5841 166.603 38.6515 166.131 38.7526 165.794 38.8537 165.457 39.0559 165.187 39.2918 164.985 39.5277 164.783 39.8309 164.715 40.1679 164.715 40.5049 164.715 40.6397 164.783 40.8419 164.884 41.0441 164.985 41.2126 165.154 41.3136 165.322 41.4484 165.524 41.5495 165.76 41.6169 166.03 41.6843 166.299 41.718 166.704 41.718 167.175 41.718 167.647 41.6506 168.186 41.5495 168.557 41.4484 168.894 41.2463 169.164 41.0441 169.366 40.8082 169.568 40.5049 169.635 40.1679 169.635 39.8309 169.635 39.3255 169.467 39.0559 169.13 38.7526 168.725 38.5841 168.085 38.5841 167.175ZM39.1907 167.175C39.1907 167.95 39.2918 168.49 39.4603 168.759 39.6624 169.029 39.8646 169.164 40.1342 169.164 40.4038 169.164 40.6397 169.029 40.8082 168.759 40.9767 168.49 41.0778 167.984 41.0778 167.175 41.0778 166.367 40.9767 165.861 40.8082 165.592 40.606 165.322 40.4038 165.187 40.1005 165.187 39.7972 165.187 39.5951 165.288 39.4603 165.524 39.2581 165.827 39.157 166.367 39.157 167.142Z" transform="matrix(1 0 0 1.00564 104.006 476.386)"/><path d="M27.4301 177.622 29.2835 172.803 29.9574 172.803 31.9456 177.622 27.4301 177.622ZM28.3063 177.083 31.0021 177.083 29.9574 174.319C29.789 173.915 29.6879 173.578 29.6205 173.308 29.5531 173.612 29.4857 173.915 29.3509 174.218L28.3063 177.049Z" transform="matrix(1 0 0 1.00564 104.006 476.386)"/><path d="M32.4848 177.622 32.4848 172.803 35.7535 172.803 35.7535 173.376 33.1251 173.376 33.1251 174.859 35.3828 174.859 35.3828 175.431 33.1251 175.431 33.1251 177.622 32.4848 177.622Z" transform="matrix(1 0 0 1.00564 104.006 476.386)"/><path d="M36.0568 177.723 37.4721 172.736 37.9439 172.736 36.5622 177.723 36.0905 177.723Z" transform="matrix(1 0 0 1.00564 104.006 476.386)"/><path d="M38.483 177.622 38.483 172.803 41.7517 172.803 41.7517 173.376 39.1233 173.376 39.1233 174.859 41.381 174.859 41.381 175.431 39.1233 175.431 39.1233 177.622 38.483 177.622Z" transform="matrix(1 0 0 1.00564 104.006 476.386)"/><path d="" stroke="#262626" stroke-width="0.235885" stroke-miterlimit="10" fill="none" transform="matrix(1 0 0 1.00564 104.006 476.386)"/><path d="" stroke="#B3B3B3" stroke-width="0.235885" stroke-linejoin="bevel" stroke-dasharray="0 0 3.36979 2.02187" stroke-opacity="0.7" fill="none" transform="matrix(1 0 0 1.00564 104.006 476.386)"/><path d="" stroke="#000000" stroke-width="0.235885" stroke-linejoin="bevel" stroke-dasharray="0 0 3.36979 2.02187" stroke-opacity="0.7" fill="none" transform="matrix(1 0 0 1.00564 104.006 476.386)"/><text font-family="Arial,Arial_MSFontService,sans-serif" font-weight="400" font-size="24" transform="matrix(0.336979 0 0 0.33888 615.204 602)">v</text><text font-family="Arial,Arial_MSFontService,sans-serif" font-weight="400" font-size="24" transform="matrix(0.202187 0 0 0.203328 619.247 605)">Background</text><text font-family="Arial,Arial_MSFontService,sans-serif" font-weight="400" font-size="24" transform="matrix(0.336979 0 0 0.33888 644.42 602)">L </text><text font-family="Arial,Arial_MSFontService,sans-serif" font-weight="400" font-size="24" transform="matrix(0.336979 0 0 0.33888 650.822 602)">→ </text><text font-family="Arial,Arial_MSFontService,sans-serif" font-weight="400" font-size="24" transform="matrix(0.336979 0 0 0.33888 661.269 602)">R</text><path d="M496.707 123.671 510.186 123.671" stroke="#7E2F8E" stroke-width="0.438073" stroke-linejoin="round" fill="none" transform="matrix(1 0 0 1.00564 104.006 476.386)"/><text font-family="Arial,Arial_MSFontService,sans-serif" font-weight="400" font-size="24" transform="matrix(0.336979 0 0 0.33888 615.204 610)">v</text><text font-family="Arial,Arial_MSFontService,sans-serif" font-weight="400" font-size="24" transform="matrix(0.202187 0 0 0.203328 619.247 613)">Background</text><text font-family="Arial,Arial_MSFontService,sans-serif" font-weight="400" font-size="24" transform="matrix(0.336979 0 0 0.33888 644.42 610)">R </text><text font-family="Arial,Arial_MSFontService,sans-serif" font-weight="400" font-size="24" transform="matrix(0.336979 0 0 0.33888 652.507 610)">→ </text><text font-family="Arial,Arial_MSFontService,sans-serif" font-weight="400" font-size="24" transform="matrix(0.336979 0 0 0.33888 662.954 610)">L</text><path d="M496.707 131.59 510.186 131.59" stroke="#77AC30" stroke-width="0.438073" stroke-linejoin="round" fill="none" transform="matrix(1 0 0 1.00564 104.006 476.386)"/></g></g></g></svg>