<svg width="142" height="72" xmlns="http://www.w3.org/2000/svg" xmlns:xlink="http://www.w3.org/1999/xlink" xml:space="preserve" overflow="hidden"><defs><clipPath id="clip0"><rect x="674" y="299" width="142" height="72"/></clipPath></defs><g clip-path="url(#clip0)" transform="translate(-674 -299)"><path d="M18.3207 93.1091 127.241 93.1091" stroke="#262626" stroke-width="0.175677" stroke-linecap="square" stroke-linejoin="round" fill="none" transform="matrix(1.01037 0 0 1 674 265.594)"/><path d="M36.4656 93.1091 36.4656 92.0299" stroke="#262626" stroke-width="0.175677" stroke-linecap="square" stroke-linejoin="round" fill="none" transform="matrix(1.01037 0 0 1 674 265.594)"/><path d="M54.6357 93.1091 54.6357 92.0299" stroke="#262626" stroke-width="0.175677" stroke-linecap="square" stroke-linejoin="round" fill="none" transform="matrix(1.01037 0 0 1 674 265.594)"/><path d="M72.7807 93.1091 72.7807 92.0299" stroke="#262626" stroke-width="0.175677" stroke-linecap="square" stroke-linejoin="round" fill="none" transform="matrix(1.01037 0 0 1 674 265.594)"/><path d="M90.9256 93.1091 90.9256 92.0299" stroke="#262626" stroke-width="0.175677" stroke-linecap="square" stroke-linejoin="round" fill="none" transform="matrix(1.01037 0 0 1 674 265.594)"/><path d="M109.096 93.1091 109.096 92.0299" stroke="#262626" stroke-width="0.175677" stroke-linecap="square" stroke-linejoin="round" fill="none" transform="matrix(1.01037 0 0 1 674 265.594)"/><path d="" stroke="#262626" stroke-width="0.175677" stroke-linecap="square" stroke-linejoin="round" fill="none" transform="matrix(1.01037 0 0 1 674 265.594)"/><path d="M36.4656 93.1091 36.4656 92.5569" stroke="#262626" stroke-width="0.175677" stroke-linecap="square" stroke-linejoin="round" fill="none" transform="matrix(1.01037 0 0 1 674 265.594)"/><path d="" stroke="#262626" stroke-width="0.175677" stroke-linecap="square" stroke-linejoin="round" fill="none" transform="matrix(1.01037 0 0 1 674 265.594)"/><path d="" stroke="#262626" stroke-width="0.175677" stroke-linecap="square" stroke-linejoin="round" fill="none" transform="matrix(1.01037 0 0 1 674 265.594)"/><path d="M54.6357 93.1091 54.6357 92.5569" stroke="#262626" stroke-width="0.175677" stroke-linecap="square" stroke-linejoin="round" fill="none" transform="matrix(1.01037 0 0 1 674 265.594)"/><path d="" stroke="#262626" stroke-width="0.175677" stroke-linecap="square" stroke-linejoin="round" fill="none" transform="matrix(1.01037 0 0 1 674 265.594)"/><path d="" stroke="#262626" stroke-width="0.175677" stroke-linecap="square" stroke-linejoin="round" fill="none" transform="matrix(1.01037 0 0 1 674 265.594)"/><path d="" stroke="#262626" stroke-width="0.175677" stroke-linecap="square" stroke-linejoin="round" fill="none" transform="matrix(1.01037 0 0 1 674 265.594)"/><path d="M72.7807 93.1091 72.7807 92.5569" stroke="#262626" stroke-width="0.175677" stroke-linecap="square" stroke-linejoin="round" fill="none" transform="matrix(1.01037 0 0 1 674 265.594)"/><path d="" stroke="#262626" stroke-width="0.175677" stroke-linecap="square" stroke-linejoin="round" fill="none" transform="matrix(1.01037 0 0 1 674 265.594)"/><path d="" stroke="#262626" stroke-width="0.175677" stroke-linecap="square" stroke-linejoin="round" fill="none" transform="matrix(1.01037 0 0 1 674 265.594)"/><path d="" stroke="#262626" stroke-width="0.175677" stroke-linecap="square" stroke-linejoin="round" fill="none" transform="matrix(1.01037 0 0 1 674 265.594)"/><path d="" stroke="#262626" stroke-width="0.175677" stroke-linecap="square" stroke-linejoin="round" fill="none" transform="matrix(1.01037 0 0 1 674 265.594)"/><path d="" stroke="#262626" stroke-width="0.175677" stroke-linecap="square" stroke-linejoin="round" fill="none" transform="matrix(1.01037 0 0 1 674 265.594)"/><path d="" stroke="#262626" stroke-width="0.175677" stroke-linecap="square" stroke-linejoin="round" fill="none" transform="matrix(1.01037 0 0 1 674 265.594)"/><path d="" stroke="#262626" stroke-width="0.175677" stroke-linecap="square" stroke-linejoin="round" fill="none" transform="matrix(1.01037 0 0 1 674 265.594)"/><text fill="#262626" font-family="Arial,Arial_MSFontService,sans-serif" font-weight="400" font-size="24" transform="matrix(0.253571 0 0 0.250968 706.66 364)">20</text><text fill="#262626" font-family="Arial,Arial_MSFontService,sans-serif" font-weight="400" font-size="24" transform="matrix(0.253571 0 0 0.250968 725.019 364)">40</text><text fill="#262626" font-family="Arial,Arial_MSFontService,sans-serif" font-weight="400" font-size="24" transform="matrix(0.253571 0 0 0.250968 743.352 364)">80</text><text fill="#262626" font-family="Arial,Arial_MSFontService,sans-serif" font-weight="400" font-size="24" transform="matrix(0.253571 0 0 0.250968 760.671 364)">160</text><text fill="#262626" font-family="Arial,Arial_MSFontService,sans-serif" font-weight="400" font-size="24" transform="matrix(0.253571 0 0 0.250968 779.029 364)">320</text><text fill="#262626" font-family="Arial,Arial_MSFontService,sans-serif" font-weight="400" font-size="24" transform="matrix(0.253571 0 0 0.250968 729.912 370)">Bar speed </text><text fill="#262626" font-family="Arial,Arial_MSFontService,sans-serif" font-weight="400" font-size="24" transform="matrix(0.253571 0 0 0.250968 759.58 370)">(</text><text fill="#262626" font-family="Arial,Arial_MSFontService,sans-serif" font-weight="400" font-size="24" transform="matrix(0.253571 0 0 0.250968 761.609 370)">°</text><text fill="#262626" font-family="Arial,Arial_MSFontService,sans-serif" font-weight="400" font-size="24" transform="matrix(0.253571 0 0 0.250968 764.145 370)">/</text><text fill="#262626" font-family="Arial,Arial_MSFontService,sans-serif" font-weight="400" font-size="24" transform="matrix(0.253571 0 0 0.250968 765.92 370)">s</text><text fill="#262626" font-family="Arial,Arial_MSFontService,sans-serif" font-weight="400" font-size="24" transform="matrix(0.253571 0 0 0.250968 768.963 370)">)</text><path d="" stroke="#262626" stroke-width="0.175677" stroke-linecap="square" stroke-linejoin="round" fill="none" transform="matrix(1.01037 0 0 1 674 265.594)"/><path d="" stroke="#262626" stroke-width="0.175677" stroke-linecap="square" stroke-linejoin="round" fill="none" transform="matrix(1.01037 0 0 1 674 265.594)"/><path d="" stroke="#262626" stroke-width="0.175677" stroke-linecap="square" stroke-linejoin="round" fill="none" transform="matrix(1.01037 0 0 1 674 265.594)"/><path d="" stroke="#262626" stroke-width="0.175677" stroke-linecap="square" stroke-linejoin="round" fill="none" transform="matrix(1.01037 0 0 1 674 265.594)"/><path d="" stroke="#262626" stroke-width="0.175677" stroke-linecap="square" stroke-linejoin="round" fill="none" transform="matrix(1.01037 0 0 1 674 265.594)"/><path d="" stroke="#262626" stroke-width="0.175677" stroke-linecap="square" stroke-linejoin="round" fill="none" transform="matrix(1.01037 0 0 1 674 265.594)"/><path d="" stroke="#262626" stroke-width="0.175677" stroke-linecap="square" stroke-linejoin="round" fill="none" transform="matrix(1.01037 0 0 1 674 265.594)"/><path d="" stroke="#262626" stroke-width="0.175677" stroke-linecap="square" stroke-linejoin="round" fill="none" transform="matrix(1.01037 0 0 1 674 265.594)"/><path d="" stroke="#262626" stroke-width="0.175677" stroke-linecap="square" stroke-linejoin="round" fill="none" transform="matrix(1.01037 0 0 1 674 265.594)"/><path d="M36.4656 67.0335 36.4656 70.7478" stroke="#FF80B3" stroke-width="0.175677" stroke-linejoin="round" fill="none" transform="matrix(1.01037 0 0 1 674 265.594)"/><path d="M54.6357 63.3192 54.6357 68.5142" stroke="#FF80B3" stroke-width="0.175677" stroke-linejoin="round" fill="none" transform="matrix(1.01037 0 0 1 674 265.594)"/><path d="M72.7807 60.2574 72.7807 67.5103" stroke="#FF80B3" stroke-width="0.175677" stroke-linejoin="round" fill="none" transform="matrix(1.01037 0 0 1 674 265.594)"/><path d="M90.9256 53.4059 90.9256 63.7458" stroke="#FF80B3" stroke-width="0.175677" stroke-linejoin="round" fill="none" transform="matrix(1.01037 0 0 1 674 265.594)"/><path d="M109.096 61.5373 109.096 69.2169" stroke="#FF80B3" stroke-width="0.175677" stroke-linejoin="round" fill="none" transform="matrix(1.01037 0 0 1 674 265.594)"/><path d="M36.4656 67.0335 36.4656 63.3443" stroke="#FF80B3" stroke-width="0.175677" stroke-linejoin="round" fill="none" transform="matrix(1.01037 0 0 1 674 265.594)"/><path d="M54.6357 63.3192 54.6357 58.1241" stroke="#FF80B3" stroke-width="0.175677" stroke-linejoin="round" fill="none" transform="matrix(1.01037 0 0 1 674 265.594)"/><path d="M72.7807 60.2574 72.7807 53.0044" stroke="#FF80B3" stroke-width="0.175677" stroke-linejoin="round" fill="none" transform="matrix(1.01037 0 0 1 674 265.594)"/><path d="M90.9256 53.4059 90.9256 43.0912" stroke="#FF80B3" stroke-width="0.175677" stroke-linejoin="round" fill="none" transform="matrix(1.01037 0 0 1 674 265.594)"/><path d="M109.096 61.5373 109.096 53.8577" stroke="#FF80B3" stroke-width="0.175677" stroke-linejoin="round" fill="none" transform="matrix(1.01037 0 0 1 674 265.594)"/><path d="M36.4656 67.0335 54.6106 63.3192 72.7556 60.2574 90.9005 53.4059 109.046 61.5373" stroke="#FF80B3" stroke-width="0.175677" stroke-linejoin="round" fill="none" transform="matrix(1.01037 0 0 1 674 265.594)"/><path d="M37.4695 67.0335C37.4695 67.5879 37.02 68.0374 36.4656 68.0374 35.9112 68.0374 35.4618 67.5879 35.4618 67.0335 35.4618 66.4791 35.9112 66.0296 36.4656 66.0296 37.02 66.0296 37.4695 66.4791 37.4695 67.0335Z" fill="#FFFFFF" transform="matrix(1.01037 0 0 1 674 265.594)"/><path d="M36.4656 66.13C36.9676 66.13 37.3942 66.5316 37.3942 67.0586L37.3942 67.0586C37.3942 67.5605 36.9927 67.9872 36.4656 67.9872 35.9386 67.9872 35.537 67.5856 35.537 67.0586 35.537 66.5316 35.9386 66.13 36.4656 66.13ZM36.4656 65.9543C35.8633 65.9543 35.3865 66.4312 35.3865 67.0335 35.3865 67.6358 35.8633 68.1127 36.4656 68.1127 37.0679 68.1127 37.5448 67.6358 37.5448 67.0335L37.5448 67.0335C37.5448 66.4312 37.0679 65.9543 36.4656 65.9543Z" fill="#FF80B3" transform="matrix(1.01037 0 0 1 674 265.594)"/><path d="M55.6396 63.3192C55.6396 63.8736 55.1901 64.323 54.6357 64.323 54.0813 64.323 53.6318 63.8736 53.6318 63.3192 53.6318 62.7648 54.0813 62.3153 54.6357 62.3153 55.1901 62.3153 55.6396 62.7648 55.6396 63.3192Z" fill="#FFFFFF" transform="matrix(1.01037 0 0 1 674 265.594)"/><path d="M54.6357 62.4157C55.1376 62.4157 55.5643 62.8172 55.5643 63.3443L55.5643 63.3443C55.5643 63.8462 55.1627 64.2729 54.6357 64.2729 54.1087 64.2729 53.7071 63.8713 53.7071 63.3443 53.7071 62.8172 54.1087 62.4157 54.6357 62.4157ZM54.6357 62.24C54.0334 62.24 53.5565 62.7169 53.5565 63.3192 53.5565 63.9215 54.0334 64.3983 54.6357 64.3983 55.238 64.3983 55.7149 63.9215 55.7149 63.3192L55.7149 63.3192C55.7149 62.7169 55.238 62.24 54.6357 62.24Z" fill="#FF80B3" transform="matrix(1.01037 0 0 1 674 265.594)"/><path d="M73.7845 60.2574C73.7845 60.8118 73.3351 61.2612 72.7807 61.2612 72.2262 61.2612 71.7768 60.8118 71.7768 60.2574 71.7768 59.7029 72.2262 59.2535 72.7807 59.2535 73.3351 59.2535 73.7845 59.7029 73.7845 60.2574Z" fill="#FFFFFF" transform="matrix(1.01037 0 0 1 674 265.594)"/><path d="M72.7807 59.3539C73.2826 59.3539 73.7092 59.7554 73.7092 60.2825L73.7092 60.2825C73.7092 60.7844 73.3077 61.211 72.7807 61.211 72.2536 61.211 71.8521 60.8095 71.8521 60.2825 71.8521 59.7554 72.2536 59.3539 72.7807 59.3539ZM72.7807 59.1782C72.1783 59.1782 71.7015 59.655 71.7015 60.2574 71.7015 60.8597 72.1783 61.3365 72.7807 61.3365 73.383 61.3365 73.8598 60.8597 73.8598 60.2574L73.8598 60.2574C73.8598 59.655 73.383 59.1782 72.7807 59.1782Z" fill="#FF80B3" transform="matrix(1.01037 0 0 1 674 265.594)"/><path d="M91.9295 53.4059C91.9295 53.9604 91.4801 54.4098 90.9256 54.4098 90.3712 54.4098 89.9218 53.9604 89.9218 53.4059 89.9218 52.8515 90.3712 52.4021 90.9256 52.4021 91.4801 52.4021 91.9295 52.8515 91.9295 53.4059Z" fill="#FFFFFF" transform="matrix(1.01037 0 0 1 674 265.594)"/><path d="M90.9256 52.5025C91.4276 52.5025 91.8542 52.904 91.8542 53.431L91.8542 53.431C91.8542 53.933 91.4527 54.3596 90.9256 54.3596 90.3986 54.3596 89.9971 53.9581 89.9971 53.431 89.9971 52.904 90.3986 52.5025 90.9256 52.5025ZM90.9256 52.3268C90.3233 52.3268 89.8465 52.8036 89.8465 53.4059 89.8465 54.0083 90.3233 54.4851 90.9256 54.4851 91.528 54.4851 92.0048 54.0083 92.0048 53.4059L92.0048 53.4059C92.0048 52.8036 91.528 52.3268 90.9256 52.3268Z" fill="#FF80B3" transform="matrix(1.01037 0 0 1 674 265.594)"/><path d="M110.1 61.5373C110.1 62.0917 109.65 62.5412 109.096 62.5412 108.541 62.5412 108.092 62.0917 108.092 61.5373 108.092 60.9829 108.541 60.5334 109.096 60.5334 109.65 60.5334 110.1 60.9829 110.1 61.5373Z" fill="#FFFFFF" transform="matrix(1.01037 0 0 1 674 265.594)"/><path d="M109.096 60.6087C109.598 60.6087 110.024 61.0103 110.024 61.5373L110.024 61.5373C110.024 62.0392 109.623 62.4659 109.096 62.4659 108.569 62.4659 108.167 62.0643 108.167 61.5373 108.167 61.0103 108.569 60.6087 109.096 60.6087ZM109.096 60.4581C108.493 60.4581 108.017 60.935 108.017 61.5373 108.017 62.1396 108.493 62.6165 109.096 62.6165 109.698 62.6165 110.175 62.1396 110.175 61.5373L110.175 61.5373C110.175 60.935 109.698 60.4581 109.096 60.4581Z" fill="#FF80B3" transform="matrix(1.01037 0 0 1 674 265.594)"/><path d="M36.4656 66.3559 36.4656 69.8443" stroke="#0072BD" stroke-width="0.175677" stroke-linejoin="round" fill="none" transform="matrix(1.01037 0 0 1 674 265.594)"/><path d="M54.6357 62.3153 54.6357 65.7034" stroke="#0072BD" stroke-width="0.175677" stroke-linejoin="round" fill="none" transform="matrix(1.01037 0 0 1 674 265.594)"/><path d="M72.7807 64.6242 72.7807 68.6648" stroke="#0072BD" stroke-width="0.175677" stroke-linejoin="round" fill="none" transform="matrix(1.01037 0 0 1 674 265.594)"/><path d="M90.9256 64.2478 90.9256 69.9447" stroke="#0072BD" stroke-width="0.175677" stroke-linejoin="round" fill="none" transform="matrix(1.01037 0 0 1 674 265.594)"/><path d="M109.096 69.3424 109.096 75.4158" stroke="#0072BD" stroke-width="0.175677" stroke-linejoin="round" fill="none" transform="matrix(1.01037 0 0 1 674 265.594)"/><path d="M36.4656 66.3559 36.4656 62.8423" stroke="#0072BD" stroke-width="0.175677" stroke-linejoin="round" fill="none" transform="matrix(1.01037 0 0 1 674 265.594)"/><path d="M54.6357 62.3153 54.6357 58.9523" stroke="#0072BD" stroke-width="0.175677" stroke-linejoin="round" fill="none" transform="matrix(1.01037 0 0 1 674 265.594)"/><path d="M72.7807 64.6242 72.7807 60.5836" stroke="#0072BD" stroke-width="0.175677" stroke-linejoin="round" fill="none" transform="matrix(1.01037 0 0 1 674 265.594)"/><path d="M90.9256 64.2478 90.9256 58.5508" stroke="#0072BD" stroke-width="0.175677" stroke-linejoin="round" fill="none" transform="matrix(1.01037 0 0 1 674 265.594)"/><path d="M109.096 69.3424 109.096 63.269" stroke="#0072BD" stroke-width="0.175677" stroke-linejoin="round" fill="none" transform="matrix(1.01037 0 0 1 674 265.594)"/><path d="M36.4656 66.3559 54.6106 62.3153 72.7556 64.6242 90.9005 64.2478 109.046 69.3424" stroke="#0072BD" stroke-width="0.175677" stroke-linejoin="round" fill="none" transform="matrix(1.01037 0 0 1 674 265.594)"/><path d="M37.4695 66.3559C37.4695 66.9103 37.02 67.3598 36.4656 67.3598 35.9112 67.3598 35.4618 66.9103 35.4618 66.3559 35.4618 65.8015 35.9112 65.352 36.4656 65.352 37.02 65.352 37.4695 65.8015 37.4695 66.3559Z" fill="#0072BD" transform="matrix(1.01037 0 0 1 674 265.594)"/><path d="M36.4656 65.4273C36.9676 65.4273 37.3942 65.8288 37.3942 66.3559L37.3942 66.3559C37.3942 66.8578 36.9927 67.2845 36.4656 67.2845 35.9386 67.2845 35.537 66.8829 35.537 66.3559 35.537 65.8288 35.9386 65.4273 36.4656 65.4273ZM36.4656 65.2516C35.8633 65.2516 35.3865 65.7285 35.3865 66.3308 35.3865 66.9331 35.8633 67.41 36.4656 67.41 37.0679 67.41 37.5448 66.9331 37.5448 66.3308L37.5448 66.3308C37.5448 65.7285 37.0679 65.2516 36.4656 65.2516Z" fill="#0072BD" transform="matrix(1.01037 0 0 1 674 265.594)"/><path d="M55.6396 62.3153C55.6396 62.8697 55.1901 63.3192 54.6357 63.3192 54.0813 63.3192 53.6318 62.8697 53.6318 62.3153 53.6318 61.7609 54.0813 61.3114 54.6357 61.3114 55.1901 61.3114 55.6396 61.7609 55.6396 62.3153Z" fill="#0072BD" transform="matrix(1.01037 0 0 1 674 265.594)"/><path d="M54.6357 61.4118C55.1376 61.4118 55.5643 61.8134 55.5643 62.3404L55.5643 62.3404C55.5643 62.8423 55.1627 63.269 54.6357 63.269 54.1087 63.269 53.7071 62.8674 53.7071 62.3404 53.7071 61.8134 54.1087 61.4118 54.6357 61.4118ZM54.6357 61.2361C54.0334 61.2361 53.5565 61.713 53.5565 62.3153 53.5565 62.9176 54.0334 63.3945 54.6357 63.3945 55.238 63.3945 55.7149 62.9176 55.7149 62.3153L55.7149 62.3153C55.7149 61.713 55.238 61.2361 54.6357 61.2361Z" fill="#0072BD" transform="matrix(1.01037 0 0 1 674 265.594)"/><path d="M73.7845 64.6242C73.7845 65.1786 73.3351 65.6281 72.7807 65.6281 72.2262 65.6281 71.7768 65.1786 71.7768 64.6242 71.7768 64.0698 72.2262 63.6203 72.7807 63.6203 73.3351 63.6203 73.7845 64.0698 73.7845 64.6242Z" fill="#0072BD" transform="matrix(1.01037 0 0 1 674 265.594)"/><path d="M72.7807 63.7207C73.2826 63.7207 73.7092 64.1223 73.7092 64.6493L73.7092 64.6493C73.7092 65.1512 73.3077 65.5779 72.7807 65.5779 72.2536 65.5779 71.8521 65.1763 71.8521 64.6493 71.8521 64.1223 72.2536 63.7207 72.7807 63.7207ZM72.7807 63.545C72.1783 63.545 71.7015 64.0219 71.7015 64.6242 71.7015 65.2265 72.1783 65.7034 72.7807 65.7034 73.383 65.7034 73.8598 65.2265 73.8598 64.6242L73.8598 64.6242C73.8598 64.0219 73.383 63.545 72.7807 63.545Z" fill="#0072BD" transform="matrix(1.01037 0 0 1 674 265.594)"/><path d="M91.9295 64.2478C91.9295 64.8022 91.4801 65.2516 90.9256 65.2516 90.3712 65.2516 89.9218 64.8022 89.9218 64.2478 89.9218 63.6933 90.3712 63.2439 90.9256 63.2439 91.4801 63.2439 91.9295 63.6933 91.9295 64.2478Z" fill="#0072BD" transform="matrix(1.01037 0 0 1 674 265.594)"/><path d="M90.9256 63.3192C91.4276 63.3192 91.8542 63.7207 91.8542 64.2478L91.8542 64.2478C91.8542 64.7497 91.4527 65.1763 90.9256 65.1763 90.3986 65.1763 89.9971 64.7748 89.9971 64.2478 89.9971 63.7207 90.3986 63.3192 90.9256 63.3192ZM90.9256 63.1686C90.3233 63.1686 89.8465 63.6454 89.8465 64.2478 89.8465 64.8501 90.3233 65.3269 90.9256 65.3269 91.528 65.3269 92.0048 64.8501 92.0048 64.2478L92.0048 64.2478C92.0048 63.6454 91.528 63.1686 90.9256 63.1686Z" fill="#0072BD" transform="matrix(1.01037 0 0 1 674 265.594)"/><path d="M110.1 69.3424C110.1 69.8968 109.65 70.3463 109.096 70.3463 108.541 70.3463 108.092 69.8968 108.092 69.3424 108.092 68.788 108.541 68.3385 109.096 68.3385 109.65 68.3385 110.1 68.788 110.1 69.3424Z" fill="#0072BD" transform="matrix(1.01037 0 0 1 674 265.594)"/><path d="M109.096 68.4389C109.598 68.4389 110.024 68.8405 110.024 69.3675L110.024 69.3675C110.024 69.8694 109.623 70.2961 109.096 70.2961 108.569 70.2961 108.167 69.8945 108.167 69.3675 108.167 68.8405 108.569 68.4389 109.096 68.4389ZM109.096 68.2632C108.493 68.2632 108.017 68.7401 108.017 69.3424 108.017 69.9447 108.493 70.4216 109.096 70.4216 109.698 70.4216 110.175 69.9447 110.175 69.3424L110.175 69.3424C110.175 68.7401 109.698 68.2632 109.096 68.2632Z" fill="#0072BD" transform="matrix(1.01037 0 0 1 674 265.594)"/><path d="M18.3207 93.1091 18.3207 78.8792" stroke="#000000" stroke-width="0.175677" stroke-linejoin="round" fill="none" transform="matrix(1.01037 0 0 1 674 265.594)"/><path d="" stroke="#FF80B3" stroke-width="0.175677" stroke-linejoin="round" fill="none" transform="matrix(1.01037 0 0 1 674 265.594)"/><path d="" stroke="#FF80B3" stroke-width="0.175677" stroke-linejoin="round" fill="none" transform="matrix(1.01037 0 0 1 674 265.594)"/><path d="" stroke="#0072BD" stroke-width="0.175677" stroke-linejoin="round" fill="none" transform="matrix(1.01037 0 0 1 674 265.594)"/><path d="" stroke="#0072BD" stroke-width="0.175677" stroke-linejoin="round" fill="none" transform="matrix(1.01037 0 0 1 674 265.594)"/><path d="" stroke="#0072BD" stroke-width="0.175677" stroke-linejoin="round" fill="none" transform="matrix(1.01037 0 0 1 674 265.594)"/><path d="M10.6159 84.2499 10.0889 84.2499 10.0889 80.8869C9.96342 81.0124 9.78774 81.1379 9.58697 81.2634 9.3862 81.3889 9.18542 81.4641 9.03484 81.5394L9.03484 81.0375C9.336 80.8869 9.58697 80.7363 9.81284 80.5356 10.0387 80.3348 10.1893 80.134 10.2897 79.9583L10.641 79.9583 10.641 84.275Z" transform="matrix(1.01037 0 0 1 674 265.594)"/><path d="M12.2472 84.2499 12.2472 83.6476 12.8496 83.6476 12.8496 84.2499 12.2472 84.2499Z" transform="matrix(1.01037 0 0 1 674 265.594)"/><path d="M13.6276 82.1167C13.6276 81.6147 13.6777 81.1881 13.7781 80.8869 13.8785 80.5858 14.0291 80.3348 14.255 80.1591 14.4808 79.9834 14.7318 79.9081 15.033 79.9081 15.3341 79.9081 15.4596 79.9583 15.6353 80.0587 15.811 80.1591 15.9616 80.2846 16.0619 80.4603 16.1623 80.6359 16.2627 80.8618 16.338 81.1128 16.4133 81.3638 16.4384 81.7151 16.4384 82.1418 16.4384 82.5684 16.3882 83.0452 16.2878 83.3715 16.1874 83.6978 16.0368 83.9236 15.811 84.0993 15.5851 84.275 15.3341 84.3503 15.033 84.3503 14.7318 84.3503 14.2801 84.1997 14.0542 83.8985 13.7781 83.5472 13.6276 82.9449 13.6276 82.1418ZM14.1797 82.1167C14.1797 82.8194 14.255 83.2962 14.4306 83.5221 14.6063 83.748 14.8071 83.8734 15.033 83.8734 15.2588 83.8734 15.4847 83.748 15.6353 83.5221 15.7859 83.2962 15.8863 82.8194 15.8863 82.1167 15.8863 81.414 15.811 80.9371 15.6353 80.7112 15.4596 80.4854 15.2588 80.3599 15.0079 80.3599 14.7569 80.3599 14.5812 80.4603 14.4306 80.661 14.255 80.912 14.1546 81.414 14.1546 82.1167Z" transform="matrix(1.01037 0 0 1 674 265.594)"/><path d="M3.66413 91.4778 5.32052 87.1611 5.92284 87.1611 7.67962 91.4778 3.66413 91.4778ZM4.46723 90.9507 6.87652 90.9507 5.94794 88.4912C5.79736 88.1148 5.69697 87.8136 5.64678 87.5878 5.59658 87.8638 5.52129 88.1399 5.4209 88.416L4.49232 90.9507Z" transform="matrix(1.01037 0 0 1 674 265.594)"/><path d="M8.20665 91.4778 8.20665 87.1611 11.1179 87.1611 11.1179 87.663 8.78387 87.663 8.78387 88.9932 10.8167 88.9932 10.8167 89.4951 8.78387 89.4951 8.78387 91.4527 8.20665 91.4527Z" transform="matrix(1.01037 0 0 1 674 265.594)"/><path d="M11.3688 91.553 12.6237 87.0858 13.0503 87.0858 11.7955 91.553 11.3688 91.553Z" transform="matrix(1.01037 0 0 1 674 265.594)"/><path d="M13.5523 91.4778 13.5523 87.1611 16.4635 87.1611 16.4635 87.663 14.1295 87.663 14.1295 88.9932 16.1623 88.9932 16.1623 89.4951 14.1295 89.4951 14.1295 91.4527 13.5523 91.4527Z" transform="matrix(1.01037 0 0 1 674 265.594)"/></g></svg>