<svg width="594" height="128" xmlns="http://www.w3.org/2000/svg" xmlns:xlink="http://www.w3.org/1999/xlink" xml:space="preserve" overflow="hidden"><g transform="translate(-95 -256)"><path d="M64.2892 105.136 64.8455 104.023 65.4018 103.586 65.958 102.195 66.5143 100.805 67.0706 104.102 67.6269 103.189 68.1831 105.732 68.7394 102.99 69.2957 106.049 69.852 104.222 70.4082 101.043 70.9645 103.705 71.5208 104.102 72.077 102.195 72.6333 102.275 73.1896 102.155 73.7459 106.01 74.3021 102.434 74.8584 104.46 75.4147 102.314 75.9709 102.434 76.5272 103.228 77.0835 105.215 77.6398 102.712 78.196 104.102 78.7523 103.348 79.3086 103.546 79.8649 101.599 80.4211 104.579 80.9774 104.063 81.5337 102.473 82.09 102.394 82.6462 104.023 83.2025 102.712 83.7588 103.546 84.315 102.91 84.8713 103.268 85.4276 103.665 85.9838 102.434 86.5401 101.639 87.0964 102.354 87.6527 102.672 88.2089 103.824 88.7652 106.248 89.3215 102.116 89.8778 101.997 90.434 104.54 90.9903 103.586 91.5466 103.586C91.5466 103.586 92.1029 102.473 92.1029 102.473L92.6591 103.506 93.2154 104.619 93.7717 101.957 94.3279 102.473 94.8842 104.182 95.4405 102.672 95.9968 102.076 96.553 105.016 97.1093 104.857 97.6656 102.712 98.2218 103.745 98.7781 103.427 99.3344 103.745 99.8907 103.745C99.8907 103.745 100.447 104.54 100.447 104.54L101.003 102.076 101.559 102.314 102.116 102.036 102.672 99.8907 103.228 101.48 103.785 101.242 104.341 100.924 104.897 101.083 105.453 101.083C105.453 101.083 106.01 101.202 106.01 101.202L106.566 98.1026 107.122 97.9835 107.678 94.4471 108.235 88.6063 108.791 79.9841 109.347 81.3747 109.904 71.7989 110.46 75.216 111.016 73.8253 111.572 79.3483 112.129 82.3681 112.685 82.9641 113.241 92.6591 113.797 92.381 114.354 95.2418 114.91 96.9106 115.466 93.4935 116.023 97.5066 116.579 100.209 117.135 100.089 117.691 98.8973 118.248 100.209 118.804 102.593 119.36 102.235 119.916 102.513 120.473 103.308 121.029 103.467 121.585 104.738 122.142 102.155 122.698 99.3741 123.254 101.44 123.81 102.473 124.367 105.374 124.923 102.672 125.479 104.778 126.035 103.268 126.592 100.566 127.148 104.42 127.704 99.4933 128.261 101.679 128.817 101.242 129.373 103.427 129.929 103.03 130.486 102.871 131.042 104.46 131.598 102.712 132.154 103.467 132.711 101.321 133.267 103.626 133.823 103.228 134.38 103.944 134.936 102.513 135.492 101.202 136.048 104.937 136.605 102.235 137.161 103.109 137.717 101.401 138.273 102.91 138.83 104.897 139.386 103.149 139.942 103.427 140.499 104.261 141.055 103.665 141.611 102.473 142.167 103.864 142.724 102.791 143.28 103.308 143.836 104.778 144.392 103.665 144.949 104.023 145.505 103.228 146.061 104.023 146.618 101.957 147.174 105.175 147.73 101.281 148.286 105.294 148.843 103.149 149.399 106.725 149.955 102.076 150.511 103.03 151.068 102.434 151.624 105.175 152.18 103.427 152.737 102.712 153.293 103.348 153.849 102.99 154.405 104.301 154.962 104.102 154.962 102.155 154.405 101.559 153.849 100.447 153.293 100.447C153.293 100.447 152.737 100.606 152.737 100.606L152.18 98.8973 151.624 103.03 151.068 100.367 150.511 100.685 149.955 101.242 149.399 103.824 148.843 99.3344 148.286 102.275 147.73 100.089 147.174 102.712 146.618 99.0165 146.061 102.434 145.505 100.288 144.949 102.076 144.392 101.202 143.836 103.149 143.28 102.076 142.724 101.122 142.167 101.321 141.611 99.4536 141.055 100.646 140.499 102.076 139.942 101.44 139.386 98.8179 138.83 102.195 138.273 99.2947 137.717 99.6125 137.161 100.526 136.605 100.248 136.048 102.831 135.492 98.6589 134.936 99.0165 134.38 101.043 133.823 99.6523 133.267 100.844 132.711 98.9371 132.154 100.526 131.598 101.917 131.042 102.354 130.486 101.003 129.929 100.805 129.373 100.924 128.817 99.4536 128.261 99.692 127.704 97.0696 127.148 101.599 126.592 99.2947 126.035 100.725 125.479 102.752 124.923 99.8112 124.367 102.354 123.81 99.9701 123.254 99.3741 122.698 97.2682 122.142 98.1821 121.585 102.314 121.029 99.3344 120.473 100.646 119.916 99.4139 119.36 100.129 118.804 101.083 118.248 98.8179 117.691 96.5928 117.135 98.0629 116.579 97.5066 116.023 91.4274 115.466 89.7586 114.91 92.5002 114.354 90.5532 113.797 86.6196 113.241 84.1164 112.685 75.4544 112.129 73.1101 111.572 70.289 111.016 63.7329 110.46 62.978 109.904 59.1636 109.347 64.2892 108.791 67.5474 108.235 77.6398 107.678 84.315 107.122 92.9373 106.566 90.6724 106.01 96.3146 105.453 94.3677 104.897 94.2485 104.341 89.1626 103.785 91.9439 103.228 97.2682 102.672 97.4669 102.116 99.4933 101.559 98.4603 101.003 99.096 100.447 102.275 99.8907 99.5728 99.3344 100.725 98.7781 100.566 98.2218 101.202 97.6656 100.606 97.1093 103.348 96.553 103.149 95.9968 100.566 95.4405 101.599 94.8842 102.275 94.3279 99.9304 93.7717 100.526 93.2154 101.758 92.6591 99.4139 92.1029 100.01 91.5466 100.447 90.9903 101.877 90.434 102.672 89.8778 100.606 89.3215 100.05 88.7652 104.182 88.2089 102.275 87.6527 101.559 87.0964 100.725 86.5401 101.122 85.9838 101.242 85.4276 101.997 84.8713 101.559 84.315 101.083 83.7588 98.2616 83.2025 100.646 82.6462 101.44 82.09 100.844 81.5337 101.599 80.9774 102.275 80.4211 101.917 79.8649 98.0629 79.3086 99.0165 78.7523 102.036 78.196 101.162 77.6398 99.9304 77.0835 102.116 76.5272 101.798 75.9709 99.8509 75.4147 100.884 74.8584 100.884C74.8584 100.884 74.3021 100.01 74.3021 100.01L73.7459 104.54 73.1896 99.8509 72.6333 101.361 72.077 100.169 71.5208 102.593 70.9645 100.884 70.4082 100.328 69.852 102.91 69.2957 103.228 68.7394 100.209 68.1831 102.116 67.6269 101.838 67.0706 100.646 66.5143 99.7715 65.958 99.4139 65.4018 100.884 64.8455 101.003 64.2892 102.354 63.7329 100.01 63.1767 101.639 63.1767 101.639C63.1767 101.639 63.1767 101.639 63.1767 101.639L63.1767 102.791 63.1767 102.791C63.1767 102.791 63.7329 102.632 63.7329 102.632L64.2892 105.334Z" fill="#0072BD" fill-opacity="0.3" transform="matrix(1 0 0 1.00502 95 256)"/><path d="M63.1767 101.997 63.1767 101.997C63.1767 101.997 63.7329 101.122 63.7329 101.122L64.2892 103.665 64.8455 102.434 65.4018 102.155 65.958 100.725 66.5143 100.209 67.0706 102.275 67.6269 102.394 68.1831 103.785 68.7394 101.48 69.2957 104.54 69.852 103.467 70.4082 100.606 70.9645 102.195 71.5208 103.228 72.077 101.083 72.6333 101.718 73.1896 100.884 73.7459 105.136 74.3021 101.083 74.8584 102.553 75.4147 101.48 75.9709 101.003 76.5272 102.394 77.0835 103.546 77.6398 101.202 78.196 102.513 78.7523 102.513C78.7523 102.553 79.3086 101.162 79.3086 101.162L79.8649 99.692 80.4211 103.109 80.9774 103.03 81.5337 101.917 82.09 101.52 82.6462 102.632 83.2025 101.559 83.7588 100.805 84.315 101.917 84.8713 102.314 85.4276 102.752 85.9838 101.758 86.5401 101.321 87.0964 101.48 87.6527 102.036 88.2089 102.95 88.7652 105.096 89.3215 100.963 89.8778 101.162 90.434 103.467 90.9903 102.593 91.5466 101.877 92.1029 101.083 92.6591 101.321 93.2154 103.069 93.7717 101.122 94.3279 101.122C94.3279 101.122 94.8842 103.109 94.8842 103.109L95.4405 101.997 95.9968 101.162 96.553 103.904 97.1093 103.904C97.1093 103.904 97.6656 101.48 97.6656 101.48L98.2218 102.314 98.7781 101.838 99.3344 102.076 99.8907 101.48 100.447 103.228 101.003 100.407 101.559 100.209 102.116 100.566 102.672 98.5 103.228 99.1755 103.785 96.3941 104.341 94.8445 104.897 97.4669 105.453 97.4669C105.453 97.5066 106.01 98.5397 106.01 98.5397L106.566 94.169 107.122 95.2418 107.678 89.1626 108.235 82.9244 108.791 73.5869 109.347 72.673 109.904 65.3223 110.46 68.9381 111.016 68.6202 111.572 74.6597 112.129 77.5603 112.685 79.0304 113.241 88.2089 113.797 89.3215 114.354 92.6989 114.91 94.5266 115.466 91.4274 116.023 94.2485 116.579 98.6589 117.135 98.8973 117.691 97.5464 118.248 99.2947 118.804 101.639 119.36 101.003 119.916 100.805 120.473 101.838 121.029 101.281 121.585 103.387 122.142 100.05 122.698 98.2218 123.254 100.328 123.81 101.162 124.367 103.785 124.923 101.162 125.479 103.705 126.035 101.917 126.592 99.8509 127.148 102.91 127.704 98.1821 128.261 100.566 128.817 100.248 129.373 102.076 129.929 101.798 130.486 101.798C130.486 101.798 131.042 103.308 131.042 103.308L131.598 102.195 132.154 101.877 132.711 100.01 133.267 102.116 133.823 101.321 134.38 102.354 134.936 100.646 135.492 99.8112 136.048 103.745 136.605 101.122 137.161 101.718 137.717 100.407 138.273 101.003 138.83 103.467 139.386 100.924 139.942 102.354 140.499 103.069 141.055 102.076 141.611 100.884 142.167 102.513 142.724 101.877 143.28 102.632 143.836 103.904 144.392 102.354 144.949 102.99 145.505 101.679 146.061 103.149 146.618 100.407 147.174 103.864 147.73 100.606 148.286 103.705 148.843 101.162 149.399 105.175 149.955 101.559 150.511 101.758 151.068 101.321 151.624 104.023 152.18 101.083 152.737 101.599 153.293 101.877 153.849 101.679 154.405 102.91 154.962 103.109" stroke="#0072BD" stroke-width="0.516539" stroke-linejoin="round" fill="none" transform="matrix(1 0 0 1.00502 95 256)"/><path d="M63.1767 104.222 63.1767 104.222C63.1767 104.222 63.7329 103.149 63.7329 103.149L64.2892 104.977 64.8455 103.268 65.4018 102.314 65.958 104.42 66.5143 101.401 67.0706 102.672 67.6269 101.281 68.1831 103.626 68.7394 105.414 69.2957 102.712 69.852 101.957 70.4082 101.321 70.9645 102.593 71.5208 102.394 72.077 103.665 72.6333 102.831 73.1896 101.718 73.7459 102.553 74.3021 101.838 74.8584 101.679 75.4147 103.626 75.9709 101.599 76.5272 105.056 77.0835 103.864 77.6398 103.348 78.196 104.738 78.7523 101.401 79.3086 104.063 79.8649 102.95 80.4211 103.546 80.9774 103.109 81.5337 104.341 82.09 104.818 82.6462 103.983 83.2025 107.122 83.7588 103.109 84.315 106.884 84.8713 101.083 85.4276 103.983 85.9838 103.189 86.5401 104.381 87.0964 104.381C87.0964 104.381 87.6527 103.785 87.6527 103.785L88.2089 105.97 88.7652 103.785 89.3215 101.559 89.8778 103.348 90.434 103.348C90.434 103.348 90.9903 101.202 90.9903 101.202L91.5466 105.453 92.1029 104.261 92.6591 106.685 93.2154 103.665 93.7717 105.016 94.3279 103.308 94.8842 103.467 95.4405 103.348 95.9968 102.473 96.553 103.348 97.1093 101.48 97.6656 103.864 98.2218 105.016 98.7781 103.268 99.3344 103.427 99.8907 103.824 100.447 104.937 101.003 104.301 101.559 103.189 102.116 105.652 102.672 104.42 103.228 100.209 103.785 102.275 104.341 101.559 104.897 101.679 105.453 103.308 106.01 101.44 106.566 101.44C106.566 101.44 107.122 98.3013 107.122 98.3013L107.678 97.0298 108.235 85.4276 108.791 85.507 109.347 75.216 109.904 71.9578 110.46 73.9048 111.016 74.9776 111.572 77.2027 112.129 85.507 112.685 88.8049 113.241 94.8445 113.797 96.8709 114.354 96.9504 114.91 95.1624 115.466 97.8245 116.023 99.2549 116.579 98.8576 117.135 99.6523 117.691 101.798 118.248 100.288 118.804 102.791 119.36 100.805 119.916 103.665 120.473 100.487 121.029 102.155 121.585 102.831 122.142 102.354 122.698 101.242 123.254 100.646 123.81 103.665 124.367 102.076 124.923 102.155 125.479 102.791 126.035 103.427 126.592 102.672 127.148 103.268 127.704 101.718 128.261 101.997 128.817 103.03 129.373 101.122 129.929 104.659 130.486 102.394 131.042 99.7317 131.598 103.467 132.154 103.03 132.711 102.394 133.267 103.824 133.823 102.553 134.38 102.553C134.38 102.553 134.936 104.023 134.936 104.023L135.492 102.235 136.048 102.235C136.048 102.275 136.605 100.526 136.605 100.526L137.161 103.745 137.717 103.745C137.717 103.745 138.273 101.361 138.273 101.361L138.83 101.48 139.386 102.195 139.942 102.195C139.942 102.195 140.499 104.659 140.499 104.659L141.055 103.149 141.611 103.705 142.167 101.559 142.724 101.997 143.28 103.785 143.836 103.944 144.392 104.977 144.949 103.03 145.505 100.606 146.061 102.712 146.618 103.824 147.174 102.394 147.73 103.427 148.286 101.957 148.843 104.381 149.399 102.434 149.955 103.308 150.511 104.579 151.068 103.824 151.624 104.698 152.18 101.003 152.737 102.672 153.293 103.785 153.849 103.069 154.405 104.46 154.962 104.818 154.962 102.632 154.405 100.248 153.849 100.01 153.293 101.281 152.737 100.725 152.18 99.4536 151.624 102.314 151.068 100.407 150.511 101.361 149.955 100.765 149.399 101.361 148.843 101.361C148.843 101.361 148.286 99.1755 148.286 99.1755L147.73 101.917 147.174 100.447 146.618 101.917 146.061 99.8907 145.505 97.745 144.949 100.169 144.392 102.354 143.836 101.758 143.28 100.01 142.724 99.7317 142.167 99.0563 141.611 99.8907 141.055 101.44 140.499 101.718 139.942 100.526 139.386 100.328 138.83 99.096 138.273 99.6125 137.717 101.401 137.161 100.05 136.605 98.5397 136.048 100.606 135.492 101.043 134.936 102.195 134.38 99.4139 133.823 98.7781 133.267 101.281 132.711 100.526 132.154 100.646 131.598 102.831 131.042 98.7384 130.486 100.685 129.929 102.871 129.373 99.096 128.817 101.559 128.261 99.7317 127.704 99.7317C127.704 99.7317 127.148 100.447 127.148 100.447L126.592 100.01 126.035 100.606 125.479 101.559 124.923 100.606 124.367 98.2616 123.81 101.957 123.254 98.2218 122.698 98.9371 122.142 99.2152 121.585 99.4536 121.029 98.6987 120.473 97.9437 119.916 100.367 119.36 98.7384 118.804 99.4536 118.248 97.2682 117.691 99.7715 117.135 94.4074 116.579 93.8909 116.023 97.2285 115.466 93.8909 114.91 90.9903 114.354 92.5002 113.797 93.573 113.241 81.7323 112.685 75.7723 112.129 70.2095 111.572 66.2759 111.016 67.309 110.46 62.8191 109.904 58.1702 109.347 67.6666 108.791 76.0107 108.235 78.7523 107.678 94.2087 107.122 93.0167 106.566 97.7053 106.01 97.9835 105.453 99.5728 104.897 98.5795 104.341 99.6125 103.785 100.01 103.228 97.8245 102.672 101.52 102.116 100.01 101.559 100.963 101.003 102.354 100.447 102.791 99.8907 102.076 99.3344 102.155 98.7781 101.718 98.2218 102.91 97.6656 102.116 97.1093 99.9304 96.553 100.328 95.9968 101.003 95.4405 100.01 94.8842 102.036 94.3279 100.725 93.7717 103.665 93.2154 102.752 92.6591 105.533 92.1029 101.48 91.5466 102.076 90.9903 100.169 90.434 101.083 89.8778 102.473 89.3215 99.2947 88.7652 101.083 88.2089 102.513 87.6527 103.586 87.0964 101.957 86.5401 101.639 85.9838 100.963 85.4276 102.712 84.8713 99.8509 84.315 103.864 83.7588 101.758 83.2025 104.261 82.6462 100.844 82.09 103.109 81.5337 103.268 80.9774 100.248 80.4211 102.314 79.8649 100.606 79.3086 102.513 78.7523 100.447 78.196 102.513 77.6398 102.195 77.0835 102.513 76.5272 103.149 75.9709 99.5331 75.4147 100.844 74.8584 99.8112 74.3021 98.6987 73.7459 100.129 73.1896 100.288 72.6333 101.162 72.077 100.566 71.5208 99.9701 70.9645 100.487 70.4082 99.692 69.852 99.2947 69.2957 100.248 68.7394 101.877 68.1831 102.553 67.6269 98.341 67.0706 99.8907 66.5143 99.8112 65.958 102.076 65.4018 98.6987 64.8455 100.606 64.2892 100.487 63.7329 100.566 63.1767 101.202 63.1767 101.202C63.1767 101.202 63.1767 101.242 63.1767 101.242L63.1767 104.381Z" fill="#FF80B3" fill-opacity="0.3" transform="matrix(1 0 0 1.00502 95 256)"/><path d="M63.1767 102.632 63.1767 102.632C63.1767 102.632 63.7329 101.798 63.7329 101.798L64.2892 102.672 64.8455 101.877 65.4018 100.447 65.958 103.189 66.5143 100.526 67.0706 101.202 67.6269 99.7317 68.1831 102.99 68.7394 103.546 69.2957 101.401 69.852 100.526 70.4082 100.407 70.9645 101.44 71.5208 101.083 72.077 101.997 72.6333 101.877 73.1896 100.884 73.7459 101.242 74.3021 100.169 74.8584 100.646 75.4147 102.116 75.9709 100.447 76.5272 103.983 77.0835 103.069 77.6398 102.632 78.196 103.467 78.7523 100.765 79.3086 103.149 79.8649 101.639 80.4211 102.791 80.9774 101.559 81.5337 103.665 82.09 103.824 82.6462 102.275 83.2025 105.573 83.7588 102.314 84.315 105.255 84.8713 100.367 85.4276 103.228 85.9838 101.957 86.5401 102.871 87.0964 103.03 87.6527 103.546 88.2089 104.102 88.7652 102.275 89.3215 100.248 89.8778 102.712 90.434 102.036 90.9903 100.487 91.5466 103.586 92.1029 102.672 92.6591 105.89 93.2154 102.99 93.7717 104.142 94.3279 101.838 94.8842 102.553 95.4405 101.48 95.9968 101.48C95.9968 101.52 96.553 101.639 96.553 101.639L97.1093 100.487 97.6656 102.752 98.2218 103.705 98.7781 102.235 99.3344 102.553 99.8907 102.712 100.447 103.626 101.003 103.069 101.559 101.798 102.116 102.553 102.672 102.672 103.228 98.7384 103.785 100.884 104.341 100.328 104.897 99.8907 105.453 101.202 106.01 99.4933 106.566 99.3741 107.122 95.4802 107.678 95.4802C107.678 95.4802 108.235 81.931 108.235 81.931L108.791 80.5801 109.347 71.2824 109.904 64.925 110.46 68.2229 111.016 71.0042 111.572 71.6002 112.129 77.7192 112.685 82.1694 113.241 88.1692 113.797 95.0829 114.354 94.6061 114.91 92.9373 115.466 95.7186 116.023 98.1026 116.579 96.2352 117.135 96.8709 117.691 100.646 118.248 98.6192 118.804 100.963 119.36 99.6125 119.916 101.877 120.473 99.096 121.029 100.288 121.585 101.003 122.142 100.646 122.698 99.9701 123.254 99.2947 123.81 102.672 124.367 100.05 124.923 101.242 125.479 102.036 126.035 101.877 126.592 101.202 127.148 101.718 127.704 100.566 128.261 100.725 128.817 102.155 129.373 99.9701 129.929 103.626 130.486 101.401 131.042 99.096 131.598 103.03 132.154 101.718 132.711 101.361 133.267 102.434 133.823 100.526 134.38 100.844 134.936 102.99 135.492 101.52 136.048 101.321 136.605 99.4139 137.161 101.758 137.717 102.434 138.273 100.367 138.83 100.169 139.386 101.162 139.942 101.281 140.499 103.109 141.055 102.235 141.611 101.718 142.167 100.248 142.724 100.805 143.28 101.838 143.836 102.791 144.392 103.586 144.949 101.52 145.505 99.096 146.061 101.242 146.618 102.831 147.174 101.401 147.73 102.672 148.286 100.566 148.843 102.871 149.399 101.917 149.955 102.076 150.511 102.99 151.068 102.116 151.624 103.506 152.18 100.248 152.737 101.718 153.293 102.553 153.849 101.559 154.405 102.394 154.962 103.785" stroke="#FF80B3" stroke-width="0.516539" stroke-linejoin="round" fill="none" transform="matrix(1 0 0 1.00502 95 256)"/><path d="M63.0972 112.844 67.7858 112.844" stroke="#000000" stroke-width="0.278136" stroke-linejoin="round" fill="none" transform="matrix(1 0 0 1.00502 95 256)"/><path d="M59.8788 101.083 59.8788 84.7124" stroke="#000000" stroke-width="0.278136" stroke-linejoin="round" fill="none" transform="matrix(1 0 0 1.00502 95 256)"/><path d="" stroke="#B3B3B3" stroke-width="0.278136" stroke-linejoin="bevel" stroke-dasharray="0 0 3.97338 2.38403" stroke-opacity="0.7" fill="none" transform="matrix(1 0 0 1.00502 95 256)"/><path d="" stroke="#B3B3B3" stroke-width="0.278136" stroke-linejoin="bevel" stroke-dasharray="0 0 3.97338 2.38403" stroke-opacity="0.7" fill="none" transform="matrix(1 0 0 1.00502 95 256)"/><path d="M67.8653 109.268 67.8653 27.4163" stroke="#000000" stroke-width="0.278136" stroke-linejoin="bevel" stroke-dasharray="0 0 3.97338 2.38403" stroke-opacity="0.7" fill="none" transform="matrix(1 0 0 1.00502 95 256)"/><path d="M167.08 102.672 168.074 103.824 169.067 106.049 170.06 103.745 171.054 102.712 172.047 103.109 173.041 103.705 174.034 103.467 175.027 103.387 176.021 101.838 177.014 100.805 178.007 102.871 179.001 103.904 179.994 105.414 180.987 102.672 181.981 100.725 182.974 102.275 183.967 103.467 184.961 103.745 185.954 103.109 186.947 105.453 187.941 103.268 188.934 105.334 189.927 103.427 190.921 104.778 191.914 102.672 192.907 103.069 193.901 102.91 194.894 104.063 195.887 103.069 196.881 103.189 197.874 103.189C197.874 103.189 198.867 103.626 198.867 103.626L199.861 103.785 200.854 102.434 201.847 102.195 202.841 102.513 203.834 101.281 204.828 103.705 205.821 100.963 206.814 100.805 207.808 98.4205 208.801 93.6922 209.794 82.8846 210.788 66.5938 211.781 65.1634 212.774 67.3885 213.768 78.9907 214.761 84.2753 215.754 93.0962 216.748 92.3413 217.741 97.308 218.734 96.4338 219.728 99.5728 220.721 99.4536 221.714 99.1357 222.708 98.6987 223.701 100.328 224.694 103.308 225.688 101.083 226.681 101.718 227.674 101.997 228.668 101.401 229.661 104.738 230.654 100.765 231.648 101.718 232.641 100.05 233.635 99.7715 234.628 100.606 235.621 100.407 236.615 102.275 237.608 103.109 238.601 100.884 239.595 100.288 240.588 100.05 241.581 102.632 242.575 102.314 243.568 102.632 244.561 101.877 245.555 102.91 246.548 104.063 247.541 100.526 248.535 103.268 249.528 104.937 250.521 104.301 251.515 102.553 252.508 102.036 253.501 103.626 254.495 103.069 255.488 104.341 256.481 101.281 256.481 97.904 255.488 101.122 254.495 101.202 253.501 101.798 252.508 101.003 251.515 100.05 250.521 101.957 249.528 101.043 248.535 100.646 247.541 99.7317 246.548 102.314 245.555 101.798 244.561 98.3013 243.568 100.566 242.575 99.0563 241.581 100.367 240.588 97.1888 239.595 98.8576 238.601 99.3344 237.608 99.9701 236.615 99.7715 235.621 97.8643 234.628 96.8709 233.635 96.4736 232.641 96.0762 231.648 99.5331 230.654 98.5397 229.661 101.361 228.668 98.1821 227.674 99.692 226.681 98.1821 225.688 98.6192 224.694 100.765 223.701 97.3477 222.708 96.2749 221.714 97.5066 220.721 94.5266 219.728 94.5266C219.728 94.5266 218.734 90.1956 218.734 90.1956L217.741 93.573 216.748 84.9905 215.754 88.8447 214.761 77.9179 213.768 72.2757 212.774 55.5875 211.781 57.8524 210.788 52.6075 209.794 68.2626 208.801 86.5004 207.808 94.4869 206.814 97.6656 205.821 98.2218 204.828 101.003 203.834 98.4205 202.841 100.963 201.847 99.7715 200.854 100.367 199.861 100.725 198.867 101.559 197.874 101.122 196.881 101.202 195.887 102.394 194.894 100.685 193.901 100.566 192.907 99.5728 191.914 99.1357 190.921 102.553 189.927 99.6125 188.934 102.752 187.941 100.685 186.947 102.354 185.954 101.043 184.961 101.361 183.967 102.672 182.974 100.328 181.981 99.9701 180.987 101.361 179.994 104.698 179.001 100.765 178.007 102.036 177.014 99.0563 176.021 97.904 175.027 99.8509 174.034 102.831 173.041 101.52 172.047 100.725 171.054 100.05 170.06 99.7317 169.067 104.818 168.074 101.162 167.08 99.7317 166.087 99.6523 165.094 102.036 164.1 97.0696 164.1 97.0696 164.1 99.4139 164.1 99.4139C164.1 99.4139 164.1 99.4139 164.1 99.4139L165.094 104.619 166.087 101.917 167.08 102.791Z" fill="#0072BD" fill-opacity="0.3" transform="matrix(1 0 0 1.00502 95 256)"/><path d="M164.1 98.1821 164.1 98.1821C164.1 98.1424 165.094 103.228 165.094 103.228L166.087 100.685 167.08 101.162 168.074 102.473 169.067 105.414 170.06 101.718 171.054 101.361 172.047 101.877 173.041 102.553 174.034 103.109 175.027 101.599 176.021 99.8509 177.014 99.9304 178.007 102.473 179.001 102.354 179.994 105.056 180.987 101.997 181.981 100.328 182.974 101.281 183.967 103.03 184.961 102.513 185.954 102.036 186.947 103.864 187.941 101.957 188.934 104.023 189.927 101.48 190.921 103.626 191.914 100.884 192.907 101.321 193.901 101.718 194.894 102.354 195.887 102.712 196.881 102.195 197.874 102.195C197.874 102.195 198.867 102.593 198.867 102.593L199.861 102.235 200.854 101.361 201.847 100.963 202.841 101.718 203.834 99.8112 204.828 102.314 205.821 99.5728 206.814 99.2152 207.808 96.4338 208.801 90.0764 209.794 75.5339 210.788 59.5609 211.781 61.4681 212.774 61.4681C212.774 61.4681 213.768 75.5736 213.768 75.5736L214.761 81.0171 215.754 90.8711 216.748 88.5665 217.741 95.361 218.734 93.2154 219.728 96.9504 220.721 96.9504C220.721 96.9106 221.714 98.2218 221.714 98.2218L222.708 97.3874 223.701 98.7384 224.694 101.917 225.688 99.7317 226.681 99.8509 227.674 100.725 228.668 99.692 229.661 102.95 230.654 99.5728 231.648 100.526 232.641 97.9835 233.635 97.9835C233.635 98.0232 234.628 98.6589 234.628 98.6589L235.621 99.0563 236.615 100.924 237.608 101.44 238.601 100.01 239.595 99.4933 240.588 98.5397 241.581 101.44 242.575 100.646 243.568 101.559 244.561 100.05 245.555 102.314 246.548 103.149 247.541 100.089 248.535 101.917 249.528 102.95 250.521 103.069 251.515 101.242 252.508 101.48 253.501 102.672 254.495 102.076 255.488 102.672 256.481 99.5331" stroke="#0072BD" stroke-width="0.516539" stroke-linejoin="round" fill="none" transform="matrix(1 0 0 1.00502 95 256)"/><path d="M174.948 99.8112 173.954 100.765 172.961 100.526 171.968 101.321 170.974 100.248 169.981 101.202 168.988 101.321 167.994 100.447 167.001 102.235 166.008 100.407 165.014 100.765 164.021 100.288 164.021 100.288 164.021 102.314 164.021 102.314C164.021 102.314 164.021 102.314 164.021 102.314L165.014 102.155 166.008 101.758 167.001 105.97 167.994 102.155 168.988 103.069 169.981 102.95 170.974 102.275 171.968 103.586 172.961 102.076 173.954 103.069 174.948 101.48 175.941 101.877 176.934 104.381 177.928 103.03 178.921 103.189 179.914 102.036 180.908 103.944 181.901 102.155 182.894 105.175 183.888 104.738 184.881 102.354 185.875 101.917 186.868 103.268 187.861 102.632 188.855 103.506 189.848 102.871 190.841 104.102 191.835 101.997 192.828 103.705 193.821 103.427 194.815 103.109 195.808 103.785 196.801 104.738 197.795 103.705 198.788 104.738 199.781 105.175 200.775 102.632 201.768 103.348 202.761 102.99 203.755 105.573 204.748 101.361 205.741 101.361C205.741 101.401 206.735 100.089 206.735 100.089L207.728 92.6989 208.721 84.1164 209.715 66.4348 210.708 64.6468 211.701 70.2493 212.695 79.2291 213.688 81.931 214.681 83.9574 215.675 87.6924 216.668 91.1095 217.662 91.9042 218.655 99.3741 219.648 97.8643 220.642 99.3741 221.635 98.8179 222.628 100.407 223.622 101.242 224.615 99.3344 225.608 101.361 226.602 102.473 227.595 101.679 228.588 101.679C228.588 101.679 229.582 101.798 229.582 101.798L230.575 99.5728 231.568 101.043 232.562 100.05 233.555 104.063 234.548 101.798 235.542 102.036 236.535 101.838 237.528 100.169 238.522 100.367 239.515 100.884 240.508 102.434 241.502 103.467 242.495 101.361 243.488 100.407 244.482 102.155 245.475 105.255 246.469 101.798 247.462 104.778 248.455 101.321 249.449 103.904 250.442 102.076 251.435 102.473 252.429 101.957 253.422 104.738 254.415 103.308 255.409 102.791 256.402 103.348 256.402 101.401 255.409 100.209 254.415 100.884 253.422 101.758 252.429 98.341 251.435 100.248 250.442 99.8907 249.449 102.394 248.455 98.9371 247.462 101.44 246.469 100.685 245.475 101.679 244.482 97.3874 243.488 97.149 242.495 99.7317 241.502 99.9701 240.508 99.5728 239.515 98.3013 238.522 96.3941 237.528 99.1357 236.535 100.367 235.542 99.9701 234.548 99.1755 233.555 102.314 232.562 96.116 231.568 97.8245 230.575 97.1093 229.582 99.3344 228.588 97.9835 227.595 100.05 226.602 99.5331 225.608 99.3741 224.615 95.0829 223.622 96.8709 222.628 96.4338 221.635 96.5928 220.642 94.6855 219.648 93.6525 218.655 95.6789 217.662 85.2686 216.668 87.2553 215.675 79.8251 214.681 77.1232 213.688 72.0373 212.695 66.3554 211.701 55.1107 210.708 44.8991 209.715 55.3491 208.721 74.9379 207.728 89.997 206.735 95.7186 205.741 98.9371 204.748 99.9701 203.755 101.361 202.761 100.129 201.768 102.354 200.775 100.805 199.781 102.791 198.788 102.275 197.795 101.639 196.801 103.228 195.808 100.566 194.815 100.169 193.821 100.606 192.828 100.924 191.835 101.083 190.841 102.235 189.848 99.5728 188.855 101.599 187.861 97.7053 186.868 100.725 185.875 99.3344 184.881 100.248 183.888 102.553 182.894 102.831 181.901 99.2947 180.908 102.235 179.914 97.9437 178.921 100.924 177.928 100.924C177.928 100.924 176.934 101.838 176.934 101.838L175.941 100.606 174.948 99.7715Z" fill="#FF80B3" fill-opacity="0.3" transform="matrix(1 0 0 1.00502 95 256)"/><path d="M164.1 101.361 164.1 101.361C164.1 101.361 165.094 101.52 165.094 101.52L166.087 101.122 167.08 104.142 168.074 101.321 169.067 102.235 170.06 102.116 171.054 101.321 172.047 102.513 173.041 101.361 174.034 101.997 175.027 100.725 176.021 101.321 177.014 103.189 178.007 102.076 179.001 102.155 179.994 100.089 180.987 103.189 181.981 100.844 182.974 104.102 183.967 103.745 184.961 101.401 185.954 100.725 186.947 102.076 187.941 100.248 188.934 102.632 189.927 101.281 190.921 103.228 191.914 101.599 192.907 102.354 193.901 102.076 194.894 101.679 195.887 102.195 196.881 103.983 197.874 102.672 198.867 103.506 199.861 103.983 200.854 101.718 201.847 102.871 202.841 101.559 203.834 103.467 204.828 100.685 205.821 100.209 206.814 97.9437 207.808 91.3876 208.801 79.5867 209.794 60.9516 210.788 54.8326 211.781 62.7396 212.774 72.8717 213.768 77.0835 214.761 80.6198 215.754 83.8382 216.748 89.242 217.741 88.646 218.734 97.5861 219.728 95.7981 220.721 97.0696 221.714 97.745 222.708 98.4603 223.701 99.096 224.694 97.2285 225.688 100.407 226.681 101.043 227.674 100.884 228.668 99.8509 229.661 100.566 230.654 98.341 231.648 99.4139 232.641 98.0629 233.635 103.189 234.628 100.487 235.621 101.003 236.615 101.083 237.608 99.6125 238.601 98.341 239.595 99.5331 240.588 100.924 241.581 101.639 242.575 100.487 243.568 98.6987 244.561 99.692 245.555 103.387 246.548 101.162 247.541 103.03 248.535 100.05 249.528 103.069 250.521 100.924 251.515 101.281 252.508 100.089 253.501 103.189 254.495 102.036 255.488 101.44 256.481 102.314" stroke="#FF80B3" stroke-width="0.516539" stroke-linejoin="round" fill="none" transform="matrix(1 0 0 1.00502 95 256)"/><path d="M163.703 112.844 172.047 112.844" stroke="#000000" stroke-width="0.278136" stroke-linejoin="round" fill="none" transform="matrix(1 0 0 1.00502 95 256)"/><path d="" stroke="#B3B3B3" stroke-width="0.278136" stroke-linejoin="bevel" stroke-dasharray="0 0 3.97338 2.38403" stroke-opacity="0.7" fill="none" transform="matrix(1 0 0 1.00502 95 256)"/><path d="" stroke="#B3B3B3" stroke-width="0.278136" stroke-linejoin="bevel" stroke-dasharray="0 0 3.97338 2.38403" stroke-opacity="0.7" fill="none" transform="matrix(1 0 0 1.00502 95 256)"/><path d="M172.445 109.268 172.445 27.4163" stroke="#000000" stroke-width="0.278136" stroke-linejoin="bevel" stroke-dasharray="0 0 3.97338 2.38403" stroke-opacity="0.7" fill="none" transform="matrix(1 0 0 1.00502 95 256)"/><path d="M269.554 103.069 271.223 103.864 272.891 104.301 274.56 103.983 276.229 104.102 277.898 102.553 279.567 103.824 281.236 104.261 282.904 103.228 284.573 101.639 286.242 101.281 287.911 103.944 289.58 104.341 291.248 105.215 292.917 103.785 294.586 103.626 296.255 101.599 297.924 104.698 299.593 102.593 301.261 102.791 302.93 103.427 304.599 100.924 306.268 103.983 307.937 103.467 309.605 97.904 311.274 88.4473 312.943 69.6135 314.612 71.4413 316.281 80.4211 317.95 85.7057 319.618 89.9572 321.287 92.8975 322.956 95.0432 324.625 98.2218 326.294 100.169 327.962 100.328 329.631 100.963 331.3 100.963C331.3 100.963 332.969 100.924 332.969 100.924L334.638 98.4603 336.307 102.235 337.975 102.394 339.644 102.553 341.313 101.122 342.982 101.401 344.651 100.407 346.319 100.765 347.988 100.606 349.657 102.871 351.326 101.599 352.995 102.036 354.664 102.831 356.332 103.189 358.001 103.705 358.001 101.718 356.332 102.314 354.664 99.5728 352.995 99.4139 351.326 98.4205 349.657 98.8576 347.988 98.6987 346.319 97.0298 344.651 95.1226 342.982 98.6987 341.313 98.6987C341.313 98.6987 339.644 99.5331 339.644 99.5331L337.975 100.367 336.307 98.5 334.638 96.0762 332.969 98.9768 331.3 98.4205 329.631 98.6589 327.962 96.3544 326.294 98.8973 324.625 95.5597 322.956 90.1162 321.287 89.401 319.618 82.4873 317.95 73.2293 316.281 68.3421 314.612 60.3556 312.943 52.091 311.274 74.1829 309.605 93.6922 307.937 101.838 306.268 101.44 304.599 98.0629 302.93 101.599 301.261 101.401 299.593 100.01 297.924 100.447 296.255 97.1093 294.586 100.447 292.917 101.957 291.248 102.434 289.58 101.758 287.911 101.48 286.242 97.9835 284.573 99.3741 282.904 100.248 281.236 102.036 279.567 102.195 277.898 100.884 276.229 101.559 274.56 102.235 272.891 101.281 271.223 100.765 269.554 99.4536 267.885 101.838 266.216 99.3741 266.216 99.3741 266.216 101.997 266.216 101.997C266.216 101.997 266.216 101.997 266.216 101.997L267.885 104.897 269.554 102.91Z" fill="#0072BD" fill-opacity="0.3" transform="matrix(1 0 0 1.00502 95 256)"/><path d="M266.216 100.884 266.216 100.884C266.216 100.884 267.885 103.546 267.885 103.546L269.554 101.361 271.223 102.394 272.891 102.871 274.56 103.189 276.229 102.91 277.898 101.798 279.567 103.069 281.236 103.228 282.904 101.838 284.573 100.606 286.242 99.7317 287.911 102.831 289.58 103.149 291.248 103.904 292.917 102.95 294.586 102.116 296.255 99.4536 297.924 102.672 299.593 101.401 301.261 102.195 302.93 102.632 304.599 99.6125 306.268 102.831 307.937 102.752 309.605 95.8776 311.274 81.4145 312.943 60.9516 314.612 65.9978 316.281 74.4611 317.95 79.547 319.618 86.3017 321.287 91.2287 322.956 92.6591 324.625 96.9504 326.294 99.5728 327.962 98.3808 329.631 99.8509 331.3 99.7317 332.969 99.9701 334.638 97.2682 336.307 100.367 337.975 101.401 339.644 101.043 341.313 99.8907 342.982 100.05 344.651 97.7848 346.319 98.8973 347.988 99.6523 349.657 100.844 351.326 100.01 352.995 100.725 354.664 101.202 356.332 102.752 358.001 102.752" stroke="#0072BD" stroke-width="0.516539" stroke-linejoin="round" fill="none" transform="matrix(1 0 0 1.00502 95 256)"/><path d="M314.612 66.9116 316.281 72.6333 317.95 76.9643 319.618 88.2089 321.287 90.1956 322.956 91.8644 324.625 93.0962 326.294 95.6392 327.962 100.209 329.631 98.8576 331.3 98.9371 332.969 99.9701 334.638 101.957 336.307 100.606 337.975 100.288 339.644 101.321 341.313 99.4139 342.982 104.261 344.651 103.546 346.319 102.791 347.988 101.917 349.657 102.235 351.326 102.553 352.995 100.209 354.664 101.003 356.332 104.261 358.001 102.513 358.001 99.3741 356.332 102.553 354.664 99.096 352.995 96.0762 351.326 100.089 349.657 100.725 347.988 99.2549 346.319 100.765 344.651 100.685 342.982 101.202 341.313 97.3477 339.644 99.5331 337.975 97.308 336.307 96.3941 334.638 99.2549 332.969 97.9437 331.3 94.5266 329.631 95.8776 327.962 96.5133 326.294 93.3743 324.625 89.5202 322.956 87.2156 321.287 83.5998 319.618 81.9707 317.95 63.6932 316.281 57.0577 314.612 42.833 312.943 47.6805 311.274 76.2491 309.605 97.149 307.937 99.2152 306.268 100.01 304.599 101.52 302.93 102.831 301.261 103.069 299.593 102.195 297.924 102.275 296.255 102.871 294.586 101.48 292.917 98.8179 291.248 101.361 289.58 98.7384 287.911 100.089 286.242 100.407 284.573 99.5331 282.904 101.242 281.236 100.367 279.567 101.321 277.898 102.116 276.229 97.8245 274.56 99.4536 272.891 99.3741 271.223 100.367 269.554 98.2218 267.885 101.122 266.216 99.8509 266.216 99.8509 266.216 103.824 266.216 103.824C266.216 103.824 267.885 102.354 267.885 102.354L269.554 101.281 271.223 103.228 272.891 101.718 274.56 103.705 276.229 100.129 277.898 103.467 279.567 101.877 281.236 103.03 282.904 103.348 284.573 101.917 286.242 101.917C286.242 101.917 287.911 103.705 287.911 103.705L289.58 101.679 291.248 104.54 292.917 102.036 294.586 104.222 296.255 104.897 297.924 104.579 299.593 104.261 301.261 106.288 302.93 104.778 304.599 104.659 306.268 103.785 307.937 101.361 309.605 100.685 311.274 87.1759 312.943 70.9645 314.612 67.0706Z" fill="#FF80B3" fill-opacity="0.3" transform="matrix(1 0 0 1.00502 95 256)"/><path d="M266.216 101.679 266.216 101.679C266.216 101.679 267.885 101.559 267.885 101.559L269.554 99.5728 271.223 101.639 272.891 100.367 274.56 101.401 276.229 98.7781 277.898 102.593 279.567 101.401 281.236 101.48 282.904 102.076 284.573 100.487 286.242 100.924 287.911 101.679 289.58 99.9701 291.248 102.712 292.917 100.169 294.586 102.593 296.255 103.626 297.924 103.189 299.593 102.99 301.261 104.46 302.93 103.586 304.599 102.871 306.268 101.679 307.937 100.089 309.605 98.7384 311.274 81.5337 312.943 59.1636 314.612 54.7929 316.281 64.766 317.95 70.2493 319.618 84.9905 321.287 86.8183 322.956 89.4407 324.625 91.189 326.294 94.3677 327.962 98.2218 329.631 97.2285 331.3 96.5928 332.969 98.8179 334.638 100.487 336.307 98.3808 337.975 98.6589 339.644 100.288 341.313 98.2616 342.982 102.632 344.651 101.997 346.319 101.639 347.988 100.447 349.657 101.361 351.326 101.202 352.995 98.0232 354.664 99.9304 356.332 103.268 358.001 100.805" stroke="#FF80B3" stroke-width="0.516539" stroke-linejoin="round" fill="none" transform="matrix(1 0 0 1.00502 95 256)"/><path d="M266.137 112.844 280.242 112.844" stroke="#000000" stroke-width="0.278136" stroke-linejoin="round" fill="none" transform="matrix(1 0 0 1.00502 95 256)"/><path d="" stroke="#000000" stroke-width="0.278136" stroke-linejoin="round" fill="none" transform="matrix(1 0 0 1.00502 95 256)"/><path d="" stroke="#000000" stroke-width="0.278136" stroke-linejoin="round" fill="none" transform="matrix(1 0 0 1.00502 95 256)"/><path d="" stroke="#B3B3B3" stroke-width="0.278136" stroke-linejoin="bevel" stroke-dasharray="0 0 3.97338 2.38403" stroke-opacity="0.7" fill="none" transform="matrix(1 0 0 1.00502 95 256)"/><path d="" stroke="#B3B3B3" stroke-width="0.278136" stroke-linejoin="bevel" stroke-dasharray="0 0 3.97338 2.38403" stroke-opacity="0.7" fill="none" transform="matrix(1 0 0 1.00502 95 256)"/><path d="M280.322 109.268 280.322 27.4163" stroke="#000000" stroke-width="0.278136" stroke-linejoin="bevel" stroke-dasharray="0 0 3.97338 2.38403" stroke-opacity="0.7" fill="none" transform="matrix(1 0 0 1.00502 95 256)"/><path d="M378.424 98.6987 375.802 102.116 373.179 99.4933 370.557 99.692 367.935 98.4205 367.935 98.4205 367.935 99.5331 367.935 99.5331C367.935 99.5331 367.935 99.5331 367.935 99.5331L370.557 102.314 373.179 101.202 375.802 103.506 378.424 101.997 381.047 104.619 383.669 101.083 386.292 101.281 388.914 103.348 391.536 104.023 394.159 103.427 396.781 102.672 399.404 103.069 402.026 102.275 404.649 104.023 407.271 102.593 409.893 100.963 412.516 101.718 415.138 76.8054 417.761 64.8455 420.383 74.2624 423.006 80.6198 425.628 86.4209 428.25 90.3148 430.873 91.785 433.495 95.6392 436.118 98.3013 438.74 98.1026 441.363 100.526 443.985 102.473 446.607 97.8245 449.23 99.5331 451.852 102.553 454.475 100.725 457.097 102.314 459.72 99.8112 459.72 94.9637 457.097 99.8907 454.475 93.7717 451.852 98.4603 449.23 92.3413 446.607 90.8314 443.985 96.0365 441.363 93.1757 438.74 92.8975 436.118 93.8511 433.495 89.5599 430.873 88.1692 428.25 86.5799 425.628 79.0304 423.006 72.9114 420.383 62.9383 417.761 47.7997 415.138 55.9451 412.516 95.2816 409.893 97.8245 407.271 99.5728 404.649 102.314 402.026 99.6523 399.404 99.1755 396.781 100.487 394.159 100.685 391.536 101.599 388.914 99.5331 386.292 98.9768 383.669 100.129 381.047 102.434 378.424 98.5795Z" fill="#0072BD" fill-opacity="0.3" transform="matrix(1 0 0 1.00502 95 256)"/><path d="M367.935 99.0165 367.935 99.0165C367.935 99.0165 370.557 101.043 370.557 101.043L373.179 100.367 375.802 102.831 378.424 100.367 381.047 103.626 383.669 100.685 386.292 100.209 388.914 101.52 391.536 102.871 394.159 102.116 396.781 101.639 399.404 101.162 402.026 101.003 404.649 103.228 407.271 101.122 409.893 99.4139 412.516 98.5 415.138 66.3554 417.761 56.3027 420.383 68.5805 423.006 76.7259 425.628 82.686 428.25 88.4076 430.873 89.9175 433.495 92.5399 436.118 96.0365 438.74 95.4405 441.363 96.7914 443.985 99.1755 446.607 94.2485 449.23 95.8378 451.852 100.407 454.475 97.149 457.097 101.003 459.72 97.308" stroke="#0072BD" stroke-width="0.516539" stroke-linejoin="round" fill="none" transform="matrix(1 0 0 1.00502 95 256)"/><path d="M367.935 101.202 370.557 105.811 373.179 104.54 375.802 102.712 378.424 102.712C378.424 102.712 381.047 101.52 381.047 101.52L383.669 103.824 386.292 101.877 388.914 102.593 391.536 103.546 394.159 102.672 396.781 101.599 399.404 101.917 402.026 102.871 404.649 105.294 407.271 103.387 409.893 103.506 412.516 99.096 415.138 66.6335 417.761 60.6337 420.383 73.2691 423.006 82.5667 425.628 85.1892 428.25 92.4605 430.873 95.0034 433.495 98.6192 436.118 97.745 438.74 98.7781 441.363 101.877 443.985 99.2152 446.607 99.5728 449.23 100.129 451.852 99.9701 454.475 101.798 457.097 102.394 459.72 101.957 459.72 98.341 457.097 99.3344 454.475 100.447 451.852 97.904 449.23 98.0232 446.607 95.6392 443.985 95.4008 441.363 98.1821 438.74 92.0234 436.118 92.1426 433.495 90.2751 430.873 87.9705 428.25 80.3019 425.628 74.6597 423.006 66.5143 420.383 46.8461 417.761 28.807 415.138 33.6545 412.516 91.5068 409.893 101.639 407.271 100.01 404.649 103.348 402.026 99.692 399.404 100.129 396.781 100.01 394.159 101.242 391.536 101.003 388.914 100.685 386.292 100.089 383.669 102.314 381.047 99.4139 378.424 101.361 375.802 101.043 373.179 101.281 370.557 102.871 367.935 99.8509 367.935 99.8509 367.935 101.321 367.935 101.321C367.935 101.321 367.935 101.321 367.935 101.321Z" fill="#FF80B3" fill-opacity="0.3" transform="matrix(1 0 0 1.00502 95 256)"/><path d="M367.935 100.487 367.935 100.487C367.935 100.487 370.557 104.301 370.557 104.301L373.179 102.871 375.802 101.838 378.424 101.997 381.047 100.447 383.669 103.069 386.292 101.003 388.914 101.679 391.536 102.314 394.159 101.997 396.781 100.844 399.404 101.043 402.026 101.281 404.649 104.341 407.271 101.718 409.893 102.593 412.516 95.3213 415.138 50.1837 417.761 44.7402 420.383 60.0774 423.006 74.5803 425.628 79.9841 428.25 86.4607 430.873 91.5863 433.495 94.5266 436.118 95.0432 438.74 95.52 441.363 100.129 443.985 97.3874 446.607 97.6656 449.23 99.1357 451.852 98.9768 454.475 101.162 457.097 100.924 459.72 100.209" stroke="#FF80B3" stroke-width="0.516539" stroke-linejoin="round" fill="none" transform="matrix(1 0 0 1.00502 95 256)"/><path d="M368.332 112.844 390.543 112.844" stroke="#000000" stroke-width="0.278136" stroke-linejoin="round" fill="none" transform="matrix(1 0 0 1.00502 95 256)"/><path d="" stroke="#000000" stroke-width="0.278136" stroke-linejoin="round" fill="none" transform="matrix(1 0 0 1.00502 95 256)"/><path d="" stroke="#000000" stroke-width="0.278136" stroke-linejoin="round" fill="none" transform="matrix(1 0 0 1.00502 95 256)"/><path d="" stroke="#B3B3B3" stroke-width="0.278136" stroke-linejoin="bevel" stroke-dasharray="0 0 3.97338 2.38403" stroke-opacity="0.7" fill="none" transform="matrix(1 0 0 1.00502 95 256)"/><path d="" stroke="#B3B3B3" stroke-width="0.278136" stroke-linejoin="bevel" stroke-dasharray="0 0 3.97338 2.38403" stroke-opacity="0.7" fill="none" transform="matrix(1 0 0 1.00502 95 256)"/><path d="M390.146 109.268 390.146 27.4163" stroke="#000000" stroke-width="0.278136" stroke-linejoin="bevel" stroke-dasharray="0 0 3.97338 2.38403" stroke-opacity="0.7" fill="none" transform="matrix(1 0 0 1.00502 95 256)"/><path d="M518.287 53.7598 514.751 78.1166 511.215 98.2616 507.678 101.242 504.142 101.838 500.606 101.242 497.069 100.089 493.533 100.288 489.997 102.155 486.46 101.52 482.924 99.0165 479.388 101.043 475.851 101.401 472.315 101.162 468.779 100.487 468.779 100.487 468.779 103.904 468.779 103.904C468.779 103.904 468.779 103.904 468.779 103.904L472.315 102.553 475.851 104.063 479.388 102.314 482.924 101.321 486.46 103.944 489.997 104.977 493.533 103.506 497.069 102.831 500.606 102.752 504.142 103.189 507.678 103.348 511.215 101.877 514.751 95.5597 518.287 74.4213 521.823 78.1166 525.36 85.507 528.896 92.1029 532.432 92.3413 535.969 98.8973 539.505 95.4008 543.041 99.1755 546.578 99.2549 550.114 97.904 553.65 99.4933 557.187 102.434 560.723 101.003 560.723 96.3544 557.187 92.4605 553.65 93.6922 550.114 90.7122 546.578 90.7916 543.041 89.4407 539.505 88.9639 535.969 92.0631 532.432 85.7455 528.896 81.9707 525.36 78.4344 521.823 63.2164 518.287 53.8392Z" fill="#0072BD" fill-opacity="0.3" transform="matrix(1 0 0 1.00502 95 256)"/><path d="M468.858 102.195 468.858 102.195C468.858 102.195 472.395 101.877 472.395 101.877L475.931 102.752 479.467 101.718 483.004 100.209 486.54 102.752 490.076 103.586 493.612 101.917 497.149 101.48 500.685 102.036 504.221 102.553 507.758 102.314 511.294 100.089 514.83 86.858 518.367 64.0906 521.903 70.6466 525.439 81.9707 528.976 87.0169 532.512 89.0036 536.048 95.4405 539.584 92.1426 543.121 94.2485 546.657 94.9637 550.193 94.2485 553.73 96.553 557.266 97.3874 560.802 98.6192" stroke="#0072BD" stroke-width="0.516539" stroke-linejoin="round" fill="none" transform="matrix(1 0 0 1.00502 95 256)"/><path d="M468.858 98.5 468.858 102.752 468.858 102.752C468.858 102.752 468.858 102.752 468.858 102.752L472.395 104.341 475.931 102.195 479.467 101.838 483.004 104.023 486.54 103.665 490.076 102.553 493.612 101.679 497.149 100.963 500.685 103.387 504.221 102.871 507.758 103.069 511.294 103.069C511.294 103.069 514.83 90.1162 514.83 90.1162L518.367 64.4879 521.903 75.812 525.439 81.2158 528.976 85.6263 532.512 89.0036 536.048 94.8842 539.584 93.4935 543.121 94.8047 546.657 98.1026 550.193 99.4933 553.73 100.05 557.266 100.685 560.802 102.116 560.802 100.248 557.266 97.8245 553.73 96.7517 550.193 97.0298 546.657 94.0895 543.121 88.9242 539.584 89.5202 536.048 88.9639 532.512 79.1099 528.976 74.9776 525.439 66.2759 521.903 55.0313 518.367 37.0319 514.83 73.428 511.294 98.1026 507.758 100.844 504.221 101.242 500.685 101.043 497.149 96.6722 493.612 101.242 490.076 100.844 486.54 102.155 483.004 100.646 479.467 99.1357 475.931 100.367 472.395 100.367C472.395 100.367 468.858 98.4603 468.858 98.4603L468.858 98.4603Z" fill="#FF80B3" fill-opacity="0.3" transform="matrix(1 0 0 1.00502 95 256)"/><path d="M468.858 100.606 468.858 100.606C468.858 100.606 472.395 102.354 472.395 102.354L475.931 101.281 479.467 100.487 483.004 102.314 486.54 102.871 490.076 101.639 493.612 101.401 497.149 98.7781 500.685 102.155 504.221 101.997 507.758 101.917 511.294 100.526 514.83 81.7323 518.367 50.74 521.903 65.4018 525.439 73.7061 528.976 80.2622 532.512 83.9972 536.048 91.8644 539.584 91.4671 543.121 91.8247 546.657 96.0365 550.193 98.2218 553.73 98.341 557.266 99.1755 560.802 101.122" stroke="#FF80B3" stroke-width="0.516539" stroke-linejoin="round" fill="none" transform="matrix(1 0 0 1.00502 95 256)"/><path d="M468.699 112.844 498.579 112.844" stroke="#000000" stroke-width="0.278136" stroke-linejoin="round" fill="none" transform="matrix(1 0 0 1.00502 95 256)"/><path d="" stroke="#B3B3B3" stroke-width="0.278136" stroke-linejoin="bevel" stroke-dasharray="0 0 3.97338 2.38403" stroke-opacity="0.7" fill="none" transform="matrix(1 0 0 1.00502 95 256)"/><path d="" stroke="#B3B3B3" stroke-width="0.278136" stroke-linejoin="bevel" stroke-dasharray="0 0 3.97338 2.38403" stroke-opacity="0.7" fill="none" transform="matrix(1 0 0 1.00502 95 256)"/><path d="M498.738 109.268 498.738 27.4163" stroke="#000000" stroke-width="0.278136" stroke-linejoin="bevel" stroke-dasharray="0 0 3.97338 2.38403" stroke-opacity="0.7" fill="none" transform="matrix(1 0 0 1.00502 95 256)"/><text font-family="Arial,Arial_MSFontService,sans-serif" font-weight="400" font-size="20" transform="matrix(0.397338 0 0 0.399331 157.342 377)">1</text><text font-family="Arial,Arial_MSFontService,sans-serif" font-weight="400" font-size="20" transform="matrix(0.397338 0 0 0.399331 161.713 377)">s</text><text font-family="Arial,Arial_MSFontService,sans-serif" font-weight="400" font-size="20" transform="matrix(0.397338 0 0 0.399331 260.054 377)">1</text><text font-family="Arial,Arial_MSFontService,sans-serif" font-weight="400" font-size="20" transform="matrix(0.397338 0 0 0.399331 264.425 377)">s</text><text font-family="Arial,Arial_MSFontService,sans-serif" font-weight="400" font-size="20" transform="matrix(0.397338 0 0 0.399331 366.223 377)">1</text><text font-family="Arial,Arial_MSFontService,sans-serif" font-weight="400" font-size="20" transform="matrix(0.397338 0 0 0.399331 370.593 377)">s</text><text font-family="Arial,Arial_MSFontService,sans-serif" font-weight="400" font-size="20" transform="matrix(0.397338 0 0 0.399331 471.477 377)">1</text><text font-family="Arial,Arial_MSFontService,sans-serif" font-weight="400" font-size="20" transform="matrix(0.397338 0 0 0.399331 475.848 377)">s</text><text font-family="Arial,Arial_MSFontService,sans-serif" font-weight="400" font-size="20" transform="matrix(0.397338 0 0 0.399331 576.375 377)">1</text><text font-family="Arial,Arial_MSFontService,sans-serif" font-weight="400" font-size="20" transform="matrix(0.397338 0 0 0.399331 580.745 377)">s</text><path d="M50.1837 91.3082 49.4685 91.3082 49.4685 86.858C49.3096 87.0169 49.0712 87.1759 48.7931 87.3348 48.5149 87.4937 48.2765 87.6129 48.0381 87.6924L48.0381 87.0169C48.4355 86.8183 48.7533 86.6196 49.0712 86.3415 49.3891 86.0633 49.5877 85.8249 49.7069 85.5865L50.144 85.5865 50.144 91.3082Z" transform="matrix(1 0 0 1.00502 95 256)"/><path d="M52.3691 91.3082 52.3691 90.5135 53.1638 90.5135 53.1638 91.3082 52.3691 91.3082Z" transform="matrix(1 0 0 1.00502 95 256)"/><path d="M54.1968 88.4871C54.1968 87.8116 54.2763 87.2553 54.3955 86.858 54.5147 86.4607 54.7531 86.1428 55.0313 85.9044 55.3094 85.666 55.667 85.5865 56.0643 85.5865 56.4617 85.5865 56.6206 85.666 56.859 85.7852 57.0974 85.9044 57.2961 86.1031 57.4153 86.3017 57.5345 86.5004 57.6934 86.8183 57.7729 87.1361 57.8524 87.454 57.8921 87.9308 57.8921 88.4871 57.8921 89.0434 57.8126 89.6791 57.6934 90.1162 57.5742 90.5532 57.3358 90.8314 57.0974 91.0698 56.859 91.3082 56.4617 91.3876 56.0643 91.3876 55.667 91.3876 55.071 91.189 54.7531 90.7916 54.3955 90.3148 54.1968 89.5599 54.1968 88.4871ZM54.9121 88.4871C54.9121 89.4407 55.0313 90.0367 55.2299 90.3546 55.4286 90.6724 55.7067 90.8314 56.0246 90.8314 56.3425 90.8314 56.6206 90.6724 56.8193 90.3546 57.0179 90.0367 57.1371 89.4407 57.1371 88.4871 57.1371 87.5335 57.0179 86.9375 56.8193 86.6196 56.6206 86.3017 56.3425 86.1428 55.9849 86.1428 55.6273 86.1428 55.3889 86.262 55.2299 86.5401 54.9915 86.8977 54.8723 87.5335 54.8723 88.4473Z" transform="matrix(1 0 0 1.00502 95 256)"/><path d="M41.045 100.844 43.2303 95.1624 44.025 95.1624 46.3693 100.844 41.045 100.844ZM42.1178 100.169 45.2965 100.169 44.0647 96.9106C43.8661 96.4338 43.7469 96.0365 43.6674 95.7186 43.5879 96.0762 43.5085 96.4338 43.3495 96.7914L42.1178 100.129Z" transform="matrix(1 0 0 1.00502 95 256)"/><path d="M47.005 100.844 47.005 95.1624 50.8592 95.1624 50.8592 95.8378 47.76 95.8378 47.76 97.5861 50.4221 97.5861 50.4221 98.2616 47.76 98.2616 47.76 100.844 47.005 100.844Z" transform="matrix(1 0 0 1.00502 95 256)"/><path d="M51.2168 100.924 52.8856 95.0432 53.4419 95.0432 51.8128 100.924 51.2565 100.924Z" transform="matrix(1 0 0 1.00502 95 256)"/><path d="M54.0776 100.844 54.0776 95.1624 57.9318 95.1624 57.9318 95.8378 54.8326 95.8378 54.8326 97.5861 57.4947 97.5861 57.4947 98.2616 54.8326 98.2616 54.8326 100.844 54.0776 100.844Z" transform="matrix(1 0 0 1.00502 95 256)"/><path d="" stroke="#B3B3B3" stroke-width="0.278136" stroke-linejoin="bevel" stroke-dasharray="0 0 3.97338 2.38403" stroke-opacity="0.7" fill="none" transform="matrix(1 0 0 1.00502 95 256)"/><path d="" stroke="#000000" stroke-width="0.278136" stroke-linejoin="bevel" stroke-dasharray="0 0 3.97338 2.38403" stroke-opacity="0.7" fill="none" transform="matrix(1 0 0 1.00502 95 256)"/><text font-family="Arial,Arial_MSFontService,sans-serif" font-weight="400" font-size="18" transform="matrix(0.397338 0 0 0.399331 655.643 296)">v</text><text font-family="Arial,Arial_MSFontService,sans-serif" font-weight="400" font-size="18" transform="matrix(0.238403 0 0 0.239599 659.219 298)">Bar</text><text font-family="Arial,Arial_MSFontService,sans-serif" font-weight="400" font-size="18" transform="matrix(0.397338 0 0 0.399331 665.696 296)">L </text><text font-family="Arial,Arial_MSFontService,sans-serif" font-weight="400" font-size="18" transform="matrix(0.397338 0 0 0.399331 671.259 296)"> </text><text font-family="Arial,Arial_MSFontService,sans-serif" font-weight="400" font-size="18" transform="matrix(0.397338 0 0 0.399331 680.397 296)">R</text><path d="M543.558 37.9855 559.451 37.9855" stroke="#0072BD" stroke-width="0.516539" stroke-linejoin="round" fill="none" transform="matrix(1 0 0 1.00502 95 256)"/><text font-family="Arial,Arial_MSFontService,sans-serif" font-weight="400" font-size="18" transform="matrix(0.397338 0 0 0.399331 655.643 304)">v</text><text font-family="Arial,Arial_MSFontService,sans-serif" font-weight="400" font-size="18" transform="matrix(0.238403 0 0 0.239599 659.219 306)">Bar</text><text font-family="Arial,Arial_MSFontService,sans-serif" font-weight="400" font-size="18" transform="matrix(0.397338 0 0 0.399331 665.696 304)">R </text><text font-family="Arial,Arial_MSFontService,sans-serif" font-weight="400" font-size="18" transform="matrix(0.397338 0 0 0.399331 672.848 304)"> </text><text font-family="Arial,Arial_MSFontService,sans-serif" font-weight="400" font-size="18" transform="matrix(0.397338 0 0 0.399331 681.987 304)">L</text><path d="M543.558 45.7733 559.451 45.7733" stroke="#FF80B3" stroke-width="0.516539" stroke-linejoin="round" fill="none" transform="matrix(1 0 0 1.00502 95 256)"/><path d="" stroke="#262626" stroke-width="0.278136" stroke-miterlimit="10" fill="none" transform="matrix(1 0 0 1.00502 95 256)"/><path d="" stroke="#262626" stroke-width="0.278136" stroke-miterlimit="10" fill="none" transform="matrix(1 0 0 1.00502 95 256)"/></g></svg>