<?xml version="1.0" encoding="utf-8"?>
<!-- Generator: Adobe Illustrator 27.7.0, SVG Export Plug-In . SVG Version: 6.00 Build 0)  -->
<svg version="1.1" id="Layer_1" xmlns="http://www.w3.org/2000/svg" xmlns:xlink="http://www.w3.org/1999/xlink" x="0px" y="0px"
	 viewBox="0 0 1920 955" style="enable-background:new 0 0 1920 955;" xml:space="preserve">
<style type="text/css">
	.st0{clip-path:url(#SVGID_00000159447088551395199160000010621742782591187875_);fill:#FFFFFF;}
	.st1{fill:#FFFFFF;}
	.st2{fill:#0000FF;}
	.st3{fill:#FF0000;}
	.st4{fill:none;stroke:#000000;stroke-width:2.6667;stroke-linejoin:round;}
	.st5{clip-path:url(#SVGID_00000117652891242191482830000016422591459366318270_);}
	.st6{fill:#543F27;}
	.st7{clip-path:url(#SVGID_00000008109303091065393490000003141969733492713405_);}
	.st8{clip-path:url(#SVGID_00000113338058111353741710000007825404218353161093_);}
	.st9{fill:#BC8244;}
	.st10{clip-path:url(#SVGID_00000003816766926157967330000002328979939892764319_);}
	.st11{clip-path:url(#SVGID_00000183222617834500847820000001714056611366985123_);}
	.st12{fill:none;}
	.st13{clip-path:url(#SVGID_00000030456686853864079000000008898989261579039373_);}
	.st14{fill:#BC8244;stroke:#000000;stroke-width:0.25;stroke-miterlimit:10;}
	.st15{clip-path:url(#SVGID_00000083087594048700219290000017101840432364990618_);}
	.st16{clip-path:url(#SVGID_00000145749301992245783510000003827752092375095727_);}
	.st17{clip-path:url(#SVGID_00000114769485016922996210000003442616841692586650_);}
	.st18{fill:#BD8244;}
	.st19{clip-path:url(#SVGID_00000113319781043647125330000014979713337220043424_);}
	.st20{clip-path:url(#SVGID_00000088090904563902582760000001739039591052408727_);}
	.st21{fill:#CF1F12;}
	.st22{clip-path:url(#SVGID_00000008862509799416835150000017311669945840110478_);}
	.st23{opacity:0.29;fill:#A4D0E5;enable-background:new    ;}
</style>
<g>
	<g>
		<defs>
			<rect id="SVGID_1_" y="0" width="1920" height="955"/>
		</defs>
		<clipPath id="SVGID_00000147939426174458115860000000812294675661685385_">
			<use xlink:href="#SVGID_1_"  style="overflow:visible;"/>
		</clipPath>
		
			<rect y="0" style="clip-path:url(#SVGID_00000147939426174458115860000000812294675661685385_);fill:#FFFFFF;" width="1920" height="955"/>
	</g>
</g>
<g>
	<rect y="0" class="st1" width="1920" height="955"/>
</g>
<g transform="translate(569.5,850)">
	<circle class="st2" cx="0" cy="0" r="2.1"/>
	<circle class="st2" cx="32.4" cy="0" r="2.1"/>
	<circle class="st2" cx="64.8" cy="0" r="2.1"/>
	<circle class="st2" cx="97.2" cy="0" r="2.1"/>
	<circle class="st2" cx="129.7" cy="0" r="2.1"/>
	<circle class="st2" cx="162.1" cy="0" r="2.1"/>
	<circle class="st2" cx="194.5" cy="0" r="2.1"/>
	<circle class="st2" cx="226.9" cy="0" r="2.1"/>
	<circle class="st2" cx="259.3" cy="0" r="2.1"/>
	<circle class="st2" cx="291.8" cy="0" r="2.1"/>
	<circle class="st2" cx="324.2" cy="0" r="2.1"/>
	<circle class="st2" cx="356.6" cy="0" r="2.1"/>
	<circle class="st3" cx="421.4" cy="0" r="2.1"/>
	<circle class="st3" cx="453.8" cy="0" r="2.1"/>
	<circle class="st3" cx="486.2" cy="0" r="2.1"/>
	<circle class="st3" cx="518.7" cy="0" r="2.1"/>
	<circle class="st3" cx="551.1" cy="0" r="2.1"/>
	<circle class="st3" cx="583.5" cy="0" r="2.1"/>
	<circle class="st3" cx="615.9" cy="0" r="2.1"/>
	<circle class="st3" cx="648.3" cy="0" r="2.1"/>
	<circle class="st3" cx="680.8" cy="0" r="2.1"/>
	<circle class="st3" cx="713.2" cy="0" r="2.1"/>
	<circle class="st3" cx="745.6" cy="0" r="2.1"/>
	<circle class="st3" cx="778" cy="0" r="2.1"/>
	<circle class="st2" cx="0" cy="-32.4" r="2.1"/>
	<circle class="st2" cx="32.4" cy="-32.4" r="2.1"/>
	<circle class="st2" cx="64.8" cy="-32.4" r="2.1"/>
	<circle class="st2" cx="97.2" cy="-32.4" r="2.1"/>
	<circle class="st2" cx="129.7" cy="-32.4" r="2.1"/>
	<circle class="st2" cx="162.1" cy="-32.4" r="2.1"/>
	<circle class="st2" cx="194.5" cy="-32.4" r="2.1"/>
	<circle class="st2" cx="226.9" cy="-32.4" r="2.1"/>
	<circle class="st2" cx="259.3" cy="-32.4" r="2.1"/>
	<circle class="st2" cx="291.8" cy="-32.4" r="2.1"/>
	<circle class="st2" cx="324.2" cy="-32.4" r="2.1"/>
	<circle class="st2" cx="356.6" cy="-32.4" r="2.1"/>
	<circle class="st3" cx="421.4" cy="-32.4" r="2.1"/>
	<circle class="st3" cx="453.8" cy="-32.4" r="2.1"/>
	<circle class="st3" cx="486.2" cy="-32.4" r="2.1"/>
	<circle class="st3" cx="518.7" cy="-32.4" r="2.1"/>
	<circle class="st3" cx="551.1" cy="-32.4" r="2.1"/>
	<circle class="st3" cx="583.5" cy="-32.4" r="2.1"/>
	<circle class="st3" cx="615.9" cy="-32.4" r="2.1"/>
	<circle class="st3" cx="648.3" cy="-32.4" r="2.1"/>
	<circle class="st3" cx="680.8" cy="-32.4" r="2.1"/>
	<circle class="st3" cx="713.2" cy="-32.4" r="2.1"/>
	<circle class="st3" cx="745.6" cy="-32.4" r="2.1"/>
	<circle class="st3" cx="778" cy="-32.4" r="2.1"/>
	<circle class="st2" cx="0" cy="-64.8" r="2.1"/>
	<circle class="st2" cx="32.4" cy="-64.8" r="2.1"/>
	<circle class="st2" cx="64.8" cy="-64.8" r="2.1"/>
	<circle class="st2" cx="97.2" cy="-64.8" r="2.1"/>
	<circle class="st2" cx="129.7" cy="-64.8" r="2.1"/>
	<circle class="st2" cx="162.1" cy="-64.8" r="2.1"/>
	<circle class="st2" cx="194.5" cy="-64.8" r="2.1"/>
	<circle class="st2" cx="226.9" cy="-64.8" r="2.1"/>
	<circle class="st2" cx="259.3" cy="-64.8" r="2.1"/>
	<circle class="st2" cx="291.8" cy="-64.8" r="2.1"/>
	<circle class="st2" cx="324.2" cy="-64.8" r="2.1"/>
	<circle class="st2" cx="356.6" cy="-64.8" r="2.1"/>
	<circle class="st3" cx="421.4" cy="-64.8" r="2.1"/>
	<circle class="st3" cx="453.8" cy="-64.8" r="2.1"/>
	<circle class="st3" cx="486.2" cy="-64.8" r="2.1"/>
	<circle class="st3" cx="518.7" cy="-64.8" r="2.1"/>
	<circle class="st3" cx="551.1" cy="-64.8" r="2.1"/>
	<circle class="st3" cx="583.5" cy="-64.8" r="2.1"/>
	<circle class="st3" cx="615.9" cy="-64.8" r="2.1"/>
	<circle class="st3" cx="648.3" cy="-64.8" r="2.1"/>
	<circle class="st3" cx="680.8" cy="-64.8" r="2.1"/>
	<circle class="st3" cx="713.2" cy="-64.8" r="2.1"/>
	<circle class="st3" cx="745.6" cy="-64.8" r="2.1"/>
	<circle class="st3" cx="778" cy="-64.8" r="2.1"/>
	<circle class="st2" cx="0" cy="-97.2" r="2.1"/>
	<circle class="st2" cx="32.4" cy="-97.2" r="2.1"/>
	<circle class="st2" cx="64.8" cy="-97.2" r="2.1"/>
	<circle class="st2" cx="97.2" cy="-97.2" r="2.1"/>
	<circle class="st2" cx="129.7" cy="-97.2" r="2.1"/>
	<circle class="st2" cx="162.1" cy="-97.2" r="2.1"/>
	<circle class="st2" cx="194.5" cy="-97.2" r="2.1"/>
	<circle class="st2" cx="226.9" cy="-97.2" r="2.1"/>
	<circle class="st2" cx="259.3" cy="-97.2" r="2.1"/>
	<circle class="st2" cx="291.8" cy="-97.2" r="2.1"/>
	<circle class="st2" cx="324.2" cy="-97.2" r="2.1"/>
	<circle class="st2" cx="356.6" cy="-97.2" r="2.1"/>
	<circle class="st3" cx="421.4" cy="-97.2" r="2.1"/>
	<circle class="st3" cx="453.8" cy="-97.2" r="2.1"/>
	<circle class="st3" cx="486.2" cy="-97.2" r="2.1"/>
	<circle class="st3" cx="518.7" cy="-97.2" r="2.1"/>
	<circle class="st3" cx="551.1" cy="-97.2" r="2.1"/>
	<circle class="st3" cx="583.5" cy="-97.2" r="2.1"/>
	<circle class="st3" cx="615.9" cy="-97.2" r="2.1"/>
	<circle class="st3" cx="648.3" cy="-97.2" r="2.1"/>
	<circle class="st3" cx="680.8" cy="-97.2" r="2.1"/>
	<circle class="st3" cx="713.2" cy="-97.2" r="2.1"/>
	<circle class="st3" cx="745.6" cy="-97.2" r="2.1"/>
	<circle class="st3" cx="778" cy="-97.2" r="2.1"/>
	<circle class="st2" cx="0" cy="-129.7" r="2.1"/>
	<circle class="st2" cx="32.4" cy="-129.7" r="2.1"/>
	<circle class="st2" cx="64.8" cy="-129.7" r="2.1"/>
	<circle class="st2" cx="97.2" cy="-129.7" r="2.1"/>
	<circle class="st2" cx="129.7" cy="-129.7" r="2.1"/>
	<circle class="st2" cx="162.1" cy="-129.7" r="2.1"/>
	<circle class="st2" cx="194.5" cy="-129.7" r="2.1"/>
	<circle class="st2" cx="226.9" cy="-129.7" r="2.1"/>
	<circle class="st2" cx="259.3" cy="-129.7" r="2.1"/>
	<circle class="st2" cx="291.8" cy="-129.7" r="2.1"/>
	<circle class="st2" cx="324.2" cy="-129.7" r="2.1"/>
	<circle class="st2" cx="356.6" cy="-129.7" r="2.1"/>
	<circle class="st3" cx="421.4" cy="-129.7" r="2.1"/>
	<circle class="st3" cx="453.8" cy="-129.7" r="2.1"/>
	<circle class="st3" cx="486.2" cy="-129.7" r="2.1"/>
	<circle class="st3" cx="518.7" cy="-129.7" r="2.1"/>
	<circle class="st3" cx="551.1" cy="-129.7" r="2.1"/>
	<circle class="st3" cx="583.5" cy="-129.7" r="2.1"/>
	<circle class="st3" cx="615.9" cy="-129.7" r="2.1"/>
	<circle class="st3" cx="648.3" cy="-129.7" r="2.1"/>
	<circle class="st3" cx="680.8" cy="-129.7" r="2.1"/>
	<circle class="st3" cx="713.2" cy="-129.7" r="2.1"/>
	<circle class="st3" cx="745.6" cy="-129.7" r="2.1"/>
	<circle class="st3" cx="778" cy="-129.7" r="2.1"/>
	<circle class="st2" cx="0" cy="-162.1" r="2.1"/>
	<circle class="st2" cx="32.4" cy="-162.1" r="2.1"/>
	<circle class="st2" cx="64.8" cy="-162.1" r="2.1"/>
	<circle class="st2" cx="97.2" cy="-162.1" r="2.1"/>
	<circle class="st2" cx="129.7" cy="-162.1" r="2.1"/>
	<circle class="st2" cx="162.1" cy="-162.1" r="2.1"/>
	<circle class="st2" cx="194.5" cy="-162.1" r="2.1"/>
	<circle class="st2" cx="226.9" cy="-162.1" r="2.1"/>
	<circle class="st2" cx="259.3" cy="-162.1" r="2.1"/>
	<circle class="st2" cx="291.8" cy="-162.1" r="2.1"/>
	<circle class="st2" cx="324.2" cy="-162.1" r="2.1"/>
	<circle class="st2" cx="356.6" cy="-162.1" r="2.1"/>
	<circle class="st3" cx="421.4" cy="-162.1" r="2.1"/>
	<circle class="st3" cx="453.8" cy="-162.1" r="2.1"/>
	<circle class="st3" cx="486.2" cy="-162.1" r="2.1"/>
	<circle class="st3" cx="518.7" cy="-162.1" r="2.1"/>
	<circle class="st3" cx="551.1" cy="-162.1" r="2.1"/>
	<circle class="st3" cx="583.5" cy="-162.1" r="2.1"/>
	<circle class="st3" cx="615.9" cy="-162.1" r="2.1"/>
	<circle class="st3" cx="648.3" cy="-162.1" r="2.1"/>
	<circle class="st3" cx="680.8" cy="-162.1" r="2.1"/>
	<circle class="st3" cx="713.2" cy="-162.1" r="2.1"/>
	<circle class="st3" cx="745.6" cy="-162.1" r="2.1"/>
	<circle class="st3" cx="778" cy="-162.1" r="2.1"/>
	<circle class="st2" cx="0" cy="-194.5" r="2.1"/>
	<circle class="st2" cx="32.4" cy="-194.5" r="2.1"/>
	<circle class="st2" cx="64.8" cy="-194.5" r="2.1"/>
	<circle class="st2" cx="97.2" cy="-194.5" r="2.1"/>
	<circle class="st2" cx="129.7" cy="-194.5" r="2.1"/>
	<circle class="st2" cx="162.1" cy="-194.5" r="2.1"/>
	<circle class="st2" cx="194.5" cy="-194.5" r="2.1"/>
	<circle class="st2" cx="226.9" cy="-194.5" r="2.1"/>
	<circle class="st2" cx="259.3" cy="-194.5" r="2.1"/>
	<circle class="st2" cx="291.8" cy="-194.5" r="2.1"/>
	<circle class="st2" cx="324.2" cy="-194.5" r="2.1"/>
	<circle class="st2" cx="356.6" cy="-194.5" r="2.1"/>
	<circle class="st3" cx="421.4" cy="-194.5" r="2.1"/>
	<circle class="st3" cx="453.8" cy="-194.5" r="2.1"/>
	<circle class="st3" cx="486.2" cy="-194.5" r="2.1"/>
	<circle class="st3" cx="518.7" cy="-194.5" r="2.1"/>
	<circle class="st3" cx="551.1" cy="-194.5" r="2.1"/>
	<circle class="st3" cx="583.5" cy="-194.5" r="2.1"/>
	<circle class="st3" cx="615.9" cy="-194.5" r="2.1"/>
	<circle class="st3" cx="648.3" cy="-194.5" r="2.1"/>
	<circle class="st3" cx="680.8" cy="-194.5" r="2.1"/>
	<circle class="st3" cx="713.2" cy="-194.5" r="2.1"/>
	<circle class="st3" cx="745.6" cy="-194.5" r="2.1"/>
	<circle class="st3" cx="778" cy="-194.5" r="2.1"/>
	<circle class="st2" cx="0" cy="-226.9" r="2.1"/>
	<circle class="st2" cx="32.4" cy="-226.9" r="2.1"/>
	<circle class="st2" cx="64.8" cy="-226.9" r="2.1"/>
	<circle class="st2" cx="97.2" cy="-226.9" r="2.1"/>
	<circle class="st2" cx="129.7" cy="-226.9" r="2.1"/>
	<circle class="st2" cx="162.1" cy="-226.9" r="2.1"/>
	<circle class="st2" cx="194.5" cy="-226.9" r="2.1"/>
	<circle class="st2" cx="226.9" cy="-226.9" r="2.1"/>
	<circle class="st2" cx="259.3" cy="-226.9" r="2.1"/>
	<circle class="st2" cx="291.8" cy="-226.9" r="2.1"/>
	<circle class="st2" cx="324.2" cy="-226.9" r="2.1"/>
	<circle class="st2" cx="356.6" cy="-226.9" r="2.1"/>
	<circle class="st3" cx="421.4" cy="-226.9" r="2.1"/>
	<circle class="st3" cx="453.8" cy="-226.9" r="2.1"/>
	<circle class="st3" cx="486.2" cy="-226.9" r="2.1"/>
	<circle class="st3" cx="518.7" cy="-226.9" r="2.1"/>
	<circle class="st3" cx="551.1" cy="-226.9" r="2.1"/>
	<circle class="st3" cx="583.5" cy="-226.9" r="2.1"/>
	<circle class="st3" cx="615.9" cy="-226.9" r="2.1"/>
	<circle class="st3" cx="648.3" cy="-226.9" r="2.1"/>
	<circle class="st3" cx="680.8" cy="-226.9" r="2.1"/>
	<circle class="st3" cx="713.2" cy="-226.9" r="2.1"/>
	<circle class="st3" cx="745.6" cy="-226.9" r="2.1"/>
	<circle class="st3" cx="778" cy="-226.9" r="2.1"/>
	<circle class="st2" cx="0" cy="-259.3" r="2.1"/>
	<circle class="st2" cx="32.4" cy="-259.3" r="2.1"/>
	<circle class="st2" cx="64.8" cy="-259.3" r="2.1"/>
	<circle class="st2" cx="97.2" cy="-259.3" r="2.1"/>
	<circle class="st2" cx="129.7" cy="-259.3" r="2.1"/>
	<circle class="st2" cx="162.1" cy="-259.3" r="2.1"/>
	<circle class="st2" cx="194.5" cy="-259.3" r="2.1"/>
	<circle class="st2" cx="226.9" cy="-259.3" r="2.1"/>
	<circle class="st2" cx="259.3" cy="-259.3" r="2.1"/>
	<circle class="st2" cx="291.8" cy="-259.3" r="2.1"/>
	<circle class="st2" cx="324.2" cy="-259.3" r="2.1"/>
	<circle class="st2" cx="356.6" cy="-259.3" r="2.1"/>
	<circle class="st3" cx="421.4" cy="-259.3" r="2.1"/>
	<circle class="st3" cx="453.8" cy="-259.3" r="2.1"/>
	<circle class="st3" cx="486.2" cy="-259.3" r="2.1"/>
	<circle class="st3" cx="518.7" cy="-259.3" r="2.1"/>
	<circle class="st3" cx="551.1" cy="-259.3" r="2.1"/>
	<circle class="st3" cx="583.5" cy="-259.3" r="2.1"/>
	<circle class="st3" cx="615.9" cy="-259.3" r="2.1"/>
	<circle class="st3" cx="648.3" cy="-259.3" r="2.1"/>
	<circle class="st3" cx="680.8" cy="-259.3" r="2.1"/>
	<circle class="st3" cx="713.2" cy="-259.3" r="2.1"/>
	<circle class="st3" cx="745.6" cy="-259.3" r="2.1"/>
	<circle class="st3" cx="778" cy="-259.3" r="2.1"/>
	<circle class="st2" cx="0" cy="-291.8" r="2.1"/>
	<circle class="st2" cx="32.4" cy="-291.8" r="2.1"/>
	<circle class="st2" cx="64.8" cy="-291.8" r="2.1"/>
	<circle class="st2" cx="97.2" cy="-291.8" r="2.1"/>
	<circle class="st2" cx="129.7" cy="-291.8" r="2.1"/>
	<circle class="st2" cx="162.1" cy="-291.8" r="2.1"/>
	<circle class="st2" cx="194.5" cy="-291.8" r="2.1"/>
	<circle class="st2" cx="226.9" cy="-291.8" r="2.1"/>
	<circle class="st2" cx="259.3" cy="-291.8" r="2.1"/>
	<circle class="st2" cx="291.8" cy="-291.8" r="2.1"/>
	<circle class="st2" cx="324.2" cy="-291.8" r="2.1"/>
	<circle class="st2" cx="356.6" cy="-291.8" r="2.1"/>
	<circle class="st3" cx="421.4" cy="-291.8" r="2.1"/>
	<circle class="st3" cx="453.8" cy="-291.8" r="2.1"/>
	<circle class="st3" cx="486.2" cy="-291.8" r="2.1"/>
	<circle class="st3" cx="518.7" cy="-291.8" r="2.1"/>
	<circle class="st3" cx="551.1" cy="-291.8" r="2.1"/>
	<circle class="st3" cx="583.5" cy="-291.8" r="2.1"/>
	<circle class="st3" cx="615.9" cy="-291.8" r="2.1"/>
	<circle class="st3" cx="648.3" cy="-291.8" r="2.1"/>
	<circle class="st3" cx="680.8" cy="-291.8" r="2.1"/>
	<circle class="st3" cx="713.2" cy="-291.8" r="2.1"/>
	<circle class="st3" cx="745.6" cy="-291.8" r="2.1"/>
	<circle class="st3" cx="778" cy="-291.8" r="2.1"/>
	<circle class="st2" cx="0" cy="-324.2" r="2.1"/>
	<circle class="st2" cx="32.4" cy="-324.2" r="2.1"/>
	<circle class="st2" cx="64.8" cy="-324.2" r="2.1"/>
	<circle class="st2" cx="97.2" cy="-324.2" r="2.1"/>
	<circle class="st2" cx="129.7" cy="-324.2" r="2.1"/>
	<circle class="st2" cx="162.1" cy="-324.2" r="2.1"/>
	<circle class="st2" cx="194.5" cy="-324.2" r="2.1"/>
	<circle class="st2" cx="226.9" cy="-324.2" r="2.1"/>
	<circle class="st2" cx="259.3" cy="-324.2" r="2.1"/>
	<circle class="st2" cx="291.8" cy="-324.2" r="2.1"/>
	<circle class="st2" cx="324.2" cy="-324.2" r="2.1"/>
	<circle class="st2" cx="356.6" cy="-324.2" r="2.1"/>
	<circle class="st3" cx="421.4" cy="-324.2" r="2.1"/>
	<circle class="st3" cx="453.8" cy="-324.2" r="2.1"/>
	<circle class="st3" cx="486.2" cy="-324.2" r="2.1"/>
	<circle class="st3" cx="518.7" cy="-324.2" r="2.1"/>
	<circle class="st3" cx="551.1" cy="-324.2" r="2.1"/>
	<circle class="st3" cx="583.5" cy="-324.2" r="2.1"/>
	<circle class="st3" cx="615.9" cy="-324.2" r="2.1"/>
	<circle class="st3" cx="648.3" cy="-324.2" r="2.1"/>
	<circle class="st3" cx="680.8" cy="-324.2" r="2.1"/>
	<circle class="st3" cx="713.2" cy="-324.2" r="2.1"/>
	<circle class="st3" cx="745.6" cy="-324.2" r="2.1"/>
	<circle class="st3" cx="778" cy="-324.2" r="2.1"/>
	<circle class="st2" cx="0" cy="-356.6" r="2.1"/>
	<circle class="st2" cx="32.4" cy="-356.6" r="2.1"/>
	<circle class="st2" cx="64.8" cy="-356.6" r="2.1"/>
	<circle class="st2" cx="97.2" cy="-356.6" r="2.1"/>
	<circle class="st2" cx="129.7" cy="-356.6" r="2.1"/>
	<circle class="st2" cx="162.1" cy="-356.6" r="2.1"/>
	<circle class="st2" cx="194.5" cy="-356.6" r="2.1"/>
	<circle class="st2" cx="226.9" cy="-356.6" r="2.1"/>
	<circle class="st2" cx="259.3" cy="-356.6" r="2.1"/>
	<circle class="st2" cx="291.8" cy="-356.6" r="2.1"/>
	<circle class="st2" cx="324.2" cy="-356.6" r="2.1"/>
	<circle class="st2" cx="356.6" cy="-356.6" r="2.1"/>
	<circle class="st3" cx="421.4" cy="-356.6" r="2.1"/>
	<circle class="st3" cx="453.8" cy="-356.6" r="2.1"/>
	<circle class="st3" cx="486.2" cy="-356.6" r="2.1"/>
	<circle class="st3" cx="518.7" cy="-356.6" r="2.1"/>
	<circle class="st3" cx="551.1" cy="-356.6" r="2.1"/>
	<circle class="st3" cx="583.5" cy="-356.6" r="2.1"/>
	<circle class="st3" cx="615.9" cy="-356.6" r="2.1"/>
	<circle class="st3" cx="648.3" cy="-356.6" r="2.1"/>
	<circle class="st3" cx="680.8" cy="-356.6" r="2.1"/>
	<circle class="st3" cx="713.2" cy="-356.6" r="2.1"/>
	<circle class="st3" cx="745.6" cy="-356.6" r="2.1"/>
	<circle class="st3" cx="778" cy="-356.6" r="2.1"/>
	<circle class="st2" cx="0" cy="-389" r="2.1"/>
	<circle class="st2" cx="32.4" cy="-389" r="2.1"/>
	<circle class="st2" cx="64.8" cy="-389" r="2.1"/>
	<circle class="st2" cx="97.2" cy="-389" r="2.1"/>
	<circle class="st2" cx="129.7" cy="-389" r="2.1"/>
	<circle class="st2" cx="162.1" cy="-389" r="2.1"/>
	<circle class="st2" cx="194.5" cy="-389" r="2.1"/>
	<circle class="st2" cx="226.9" cy="-389" r="2.1"/>
	<circle class="st2" cx="259.3" cy="-389" r="2.1"/>
	<circle class="st2" cx="291.8" cy="-389" r="2.1"/>
	<circle class="st2" cx="324.2" cy="-389" r="2.1"/>
	<circle class="st2" cx="356.6" cy="-389" r="2.1"/>
	<circle class="st3" cx="421.4" cy="-389" r="2.1"/>
	<circle class="st3" cx="453.8" cy="-389" r="2.1"/>
	<circle class="st3" cx="486.2" cy="-389" r="2.1"/>
	<circle class="st3" cx="518.7" cy="-389" r="2.1"/>
	<circle class="st3" cx="551.1" cy="-389" r="2.1"/>
	<circle class="st3" cx="583.5" cy="-389" r="2.1"/>
	<circle class="st3" cx="615.9" cy="-389" r="2.1"/>
	<circle class="st3" cx="648.3" cy="-389" r="2.1"/>
	<circle class="st3" cx="680.8" cy="-389" r="2.1"/>
	<circle class="st3" cx="713.2" cy="-389" r="2.1"/>
	<circle class="st3" cx="745.6" cy="-389" r="2.1"/>
	<circle class="st3" cx="778" cy="-389" r="2.1"/>
	<circle class="st2" cx="0" cy="-421.4" r="2.1"/>
	<circle class="st2" cx="32.4" cy="-421.4" r="2.1"/>
	<circle class="st2" cx="64.8" cy="-421.4" r="2.1"/>
	<circle class="st2" cx="97.2" cy="-421.4" r="2.1"/>
	<circle class="st2" cx="129.7" cy="-421.4" r="2.1"/>
	<circle class="st2" cx="162.1" cy="-421.4" r="2.1"/>
	<circle class="st2" cx="194.5" cy="-421.4" r="2.1"/>
	<circle class="st2" cx="226.9" cy="-421.4" r="2.1"/>
	<circle class="st2" cx="259.3" cy="-421.4" r="2.1"/>
	<circle class="st2" cx="291.8" cy="-421.4" r="2.1"/>
	<circle class="st2" cx="324.2" cy="-421.4" r="2.1"/>
	<circle class="st2" cx="356.6" cy="-421.4" r="2.1"/>
	<circle class="st3" cx="421.4" cy="-421.4" r="2.1"/>
	<circle class="st3" cx="453.8" cy="-421.4" r="2.1"/>
	<circle class="st3" cx="486.2" cy="-421.4" r="2.1"/>
	<circle class="st3" cx="518.7" cy="-421.4" r="2.1"/>
	<circle class="st3" cx="551.1" cy="-421.4" r="2.1"/>
	<circle class="st3" cx="583.5" cy="-421.4" r="2.1"/>
	<circle class="st3" cx="615.9" cy="-421.4" r="2.1"/>
	<circle class="st3" cx="648.3" cy="-421.4" r="2.1"/>
	<circle class="st3" cx="680.8" cy="-421.4" r="2.1"/>
	<circle class="st3" cx="713.2" cy="-421.4" r="2.1"/>
	<circle class="st3" cx="745.6" cy="-421.4" r="2.1"/>
	<circle class="st3" cx="778" cy="-421.4" r="2.1"/>
	<circle class="st2" cx="0" cy="-453.8" r="2.1"/>
	<circle class="st2" cx="32.4" cy="-453.8" r="2.1"/>
	<circle class="st2" cx="64.8" cy="-453.8" r="2.1"/>
	<circle class="st2" cx="97.2" cy="-453.8" r="2.1"/>
	<circle class="st2" cx="129.7" cy="-453.8" r="2.1"/>
	<circle class="st2" cx="162.1" cy="-453.8" r="2.1"/>
	<circle class="st2" cx="194.5" cy="-453.8" r="2.1"/>
	<circle class="st2" cx="226.9" cy="-453.8" r="2.1"/>
	<circle class="st2" cx="259.3" cy="-453.8" r="2.1"/>
	<circle class="st2" cx="291.8" cy="-453.8" r="2.1"/>
	<circle class="st2" cx="324.2" cy="-453.8" r="2.1"/>
	<circle class="st2" cx="356.6" cy="-453.8" r="2.1"/>
	<circle class="st3" cx="421.4" cy="-453.8" r="2.1"/>
	<circle class="st3" cx="453.8" cy="-453.8" r="2.1"/>
	<circle class="st3" cx="486.2" cy="-453.8" r="2.1"/>
	<circle class="st3" cx="518.7" cy="-453.8" r="2.1"/>
	<circle class="st3" cx="551.1" cy="-453.8" r="2.1"/>
	<circle class="st3" cx="583.5" cy="-453.8" r="2.1"/>
	<circle class="st3" cx="615.9" cy="-453.8" r="2.1"/>
	<circle class="st3" cx="648.3" cy="-453.8" r="2.1"/>
	<circle class="st3" cx="680.8" cy="-453.8" r="2.1"/>
	<circle class="st3" cx="713.2" cy="-453.8" r="2.1"/>
	<circle class="st3" cx="745.6" cy="-453.8" r="2.1"/>
	<circle class="st3" cx="778" cy="-453.8" r="2.1"/>
	<circle class="st2" cx="0" cy="-486.2" r="2.1"/>
	<circle class="st2" cx="32.4" cy="-486.2" r="2.1"/>
	<circle class="st2" cx="64.8" cy="-486.2" r="2.1"/>
	<circle class="st2" cx="97.2" cy="-486.2" r="2.1"/>
	<circle class="st2" cx="129.7" cy="-486.2" r="2.1"/>
	<circle class="st2" cx="162.1" cy="-486.2" r="2.1"/>
	<circle class="st2" cx="194.5" cy="-486.2" r="2.1"/>
	<circle class="st2" cx="226.9" cy="-486.2" r="2.1"/>
	<circle class="st2" cx="259.3" cy="-486.2" r="2.1"/>
	<circle class="st2" cx="291.8" cy="-486.2" r="2.1"/>
	<circle class="st2" cx="324.2" cy="-486.2" r="2.1"/>
	<circle class="st2" cx="356.6" cy="-486.2" r="2.1"/>
	<circle class="st3" cx="421.4" cy="-486.2" r="2.1"/>
	<circle class="st3" cx="453.8" cy="-486.2" r="2.1"/>
	<circle class="st3" cx="486.2" cy="-486.2" r="2.1"/>
	<circle class="st3" cx="518.7" cy="-486.2" r="2.1"/>
	<circle class="st3" cx="551.1" cy="-486.2" r="2.1"/>
	<circle class="st3" cx="583.5" cy="-486.2" r="2.1"/>
	<circle class="st3" cx="615.9" cy="-486.2" r="2.1"/>
	<circle class="st3" cx="648.3" cy="-486.2" r="2.1"/>
	<circle class="st3" cx="680.8" cy="-486.2" r="2.1"/>
	<circle class="st3" cx="713.2" cy="-486.2" r="2.1"/>
	<circle class="st3" cx="745.6" cy="-486.2" r="2.1"/>
	<circle class="st3" cx="778" cy="-486.2" r="2.1"/>
	<circle class="st2" cx="0" cy="-518.7" r="2.1"/>
	<circle class="st2" cx="32.4" cy="-518.7" r="2.1"/>
	<circle class="st2" cx="64.8" cy="-518.7" r="2.1"/>
	<circle class="st2" cx="97.2" cy="-518.7" r="2.1"/>
	<circle class="st2" cx="129.7" cy="-518.7" r="2.1"/>
	<circle class="st2" cx="162.1" cy="-518.7" r="2.1"/>
	<circle class="st2" cx="194.5" cy="-518.7" r="2.1"/>
	<circle class="st2" cx="226.9" cy="-518.7" r="2.1"/>
	<circle class="st2" cx="259.3" cy="-518.7" r="2.1"/>
	<circle class="st2" cx="291.8" cy="-518.7" r="2.1"/>
	<circle class="st2" cx="324.2" cy="-518.7" r="2.1"/>
	<circle class="st2" cx="356.6" cy="-518.7" r="2.1"/>
	<circle class="st3" cx="421.4" cy="-518.7" r="2.1"/>
	<circle class="st3" cx="453.8" cy="-518.7" r="2.1"/>
	<circle class="st3" cx="486.2" cy="-518.7" r="2.1"/>
	<circle class="st3" cx="518.7" cy="-518.7" r="2.1"/>
	<circle class="st3" cx="551.1" cy="-518.7" r="2.1"/>
	<circle class="st3" cx="583.5" cy="-518.7" r="2.1"/>
	<circle class="st3" cx="615.9" cy="-518.7" r="2.1"/>
	<circle class="st3" cx="648.3" cy="-518.7" r="2.1"/>
	<circle class="st3" cx="680.8" cy="-518.7" r="2.1"/>
	<circle class="st3" cx="713.2" cy="-518.7" r="2.1"/>
	<circle class="st3" cx="745.6" cy="-518.7" r="2.1"/>
	<circle class="st3" cx="778" cy="-518.7" r="2.1"/>
	<circle class="st2" cx="0" cy="-551.1" r="2.1"/>
	<circle class="st2" cx="32.4" cy="-551.1" r="2.1"/>
	<circle class="st2" cx="64.8" cy="-551.1" r="2.1"/>
	<circle class="st2" cx="97.2" cy="-551.1" r="2.1"/>
	<circle class="st2" cx="129.7" cy="-551.1" r="2.1"/>
	<circle class="st2" cx="162.1" cy="-551.1" r="2.1"/>
	<circle class="st2" cx="194.5" cy="-551.1" r="2.1"/>
	<circle class="st2" cx="226.9" cy="-551.1" r="2.1"/>
	<circle class="st2" cx="259.3" cy="-551.1" r="2.1"/>
	<circle class="st2" cx="291.8" cy="-551.1" r="2.1"/>
	<circle class="st2" cx="324.2" cy="-551.1" r="2.1"/>
	<circle class="st2" cx="356.6" cy="-551.1" r="2.1"/>
	<circle class="st3" cx="421.4" cy="-551.1" r="2.1"/>
	<circle class="st3" cx="453.8" cy="-551.1" r="2.1"/>
	<circle class="st3" cx="486.2" cy="-551.1" r="2.1"/>
	<circle class="st3" cx="518.7" cy="-551.1" r="2.1"/>
	<circle class="st3" cx="551.1" cy="-551.1" r="2.1"/>
	<circle class="st3" cx="583.5" cy="-551.1" r="2.1"/>
	<circle class="st3" cx="615.9" cy="-551.1" r="2.1"/>
	<circle class="st3" cx="648.3" cy="-551.1" r="2.1"/>
	<circle class="st3" cx="680.8" cy="-551.1" r="2.1"/>
	<circle class="st3" cx="713.2" cy="-551.1" r="2.1"/>
	<circle class="st3" cx="745.6" cy="-551.1" r="2.1"/>
	<circle class="st3" cx="778" cy="-551.1" r="2.1"/>
	<circle class="st2" cx="0" cy="-583.5" r="2.1"/>
	<circle class="st2" cx="32.4" cy="-583.5" r="2.1"/>
	<circle class="st2" cx="64.8" cy="-583.5" r="2.1"/>
	<circle class="st2" cx="97.2" cy="-583.5" r="2.1"/>
	<circle class="st2" cx="129.7" cy="-583.5" r="2.1"/>
	<circle class="st2" cx="162.1" cy="-583.5" r="2.1"/>
	<circle class="st2" cx="194.5" cy="-583.5" r="2.1"/>
	<circle class="st2" cx="226.9" cy="-583.5" r="2.1"/>
	<circle class="st2" cx="259.3" cy="-583.5" r="2.1"/>
	<circle class="st2" cx="291.8" cy="-583.5" r="2.1"/>
	<circle class="st2" cx="324.2" cy="-583.5" r="2.1"/>
	<circle class="st2" cx="356.6" cy="-583.5" r="2.1"/>
	<circle class="st3" cx="421.4" cy="-583.5" r="2.1"/>
	<circle class="st3" cx="453.8" cy="-583.5" r="2.1"/>
	<circle class="st3" cx="486.2" cy="-583.5" r="2.1"/>
	<circle class="st3" cx="518.7" cy="-583.5" r="2.1"/>
	<circle class="st3" cx="551.1" cy="-583.5" r="2.1"/>
	<circle class="st3" cx="583.5" cy="-583.5" r="2.1"/>
	<circle class="st3" cx="615.9" cy="-583.5" r="2.1"/>
	<circle class="st3" cx="648.3" cy="-583.5" r="2.1"/>
	<circle class="st3" cx="680.8" cy="-583.5" r="2.1"/>
	<circle class="st3" cx="713.2" cy="-583.5" r="2.1"/>
	<circle class="st3" cx="745.6" cy="-583.5" r="2.1"/>
	<circle class="st3" cx="778" cy="-583.5" r="2.1"/>
	<circle class="st2" cx="0" cy="-615.9" r="2.1"/>
	<circle class="st2" cx="32.4" cy="-615.9" r="2.1"/>
	<circle class="st2" cx="64.8" cy="-615.9" r="2.1"/>
	<circle class="st2" cx="97.2" cy="-615.9" r="2.1"/>
	<circle class="st2" cx="129.7" cy="-615.9" r="2.1"/>
	<circle class="st2" cx="162.1" cy="-615.9" r="2.1"/>
	<circle class="st2" cx="194.5" cy="-615.9" r="2.1"/>
	<circle class="st2" cx="226.9" cy="-615.9" r="2.1"/>
	<circle class="st2" cx="259.3" cy="-615.9" r="2.1"/>
	<circle class="st2" cx="291.8" cy="-615.9" r="2.1"/>
	<circle class="st2" cx="324.2" cy="-615.9" r="2.1"/>
	<circle class="st2" cx="356.6" cy="-615.9" r="2.1"/>
	<circle class="st3" cx="421.4" cy="-615.9" r="2.1"/>
	<circle class="st3" cx="453.8" cy="-615.9" r="2.1"/>
	<circle class="st3" cx="486.2" cy="-615.9" r="2.1"/>
	<circle class="st3" cx="518.7" cy="-615.9" r="2.1"/>
	<circle class="st3" cx="551.1" cy="-615.9" r="2.1"/>
	<circle class="st3" cx="583.5" cy="-615.9" r="2.1"/>
	<circle class="st3" cx="615.9" cy="-615.9" r="2.1"/>
	<circle class="st3" cx="648.3" cy="-615.9" r="2.1"/>
	<circle class="st3" cx="680.8" cy="-615.9" r="2.1"/>
	<circle class="st3" cx="713.2" cy="-615.9" r="2.1"/>
	<circle class="st3" cx="745.6" cy="-615.9" r="2.1"/>
	<circle class="st3" cx="778" cy="-615.9" r="2.1"/>
	<circle class="st2" cx="0" cy="-648.3" r="2.1"/>
	<circle class="st2" cx="32.4" cy="-648.3" r="2.1"/>
	<circle class="st2" cx="64.8" cy="-648.3" r="2.1"/>
	<circle class="st2" cx="97.2" cy="-648.3" r="2.1"/>
	<circle class="st2" cx="129.7" cy="-648.3" r="2.1"/>
	<circle class="st2" cx="162.1" cy="-648.3" r="2.1"/>
	<circle class="st2" cx="194.5" cy="-648.3" r="2.1"/>
	<circle class="st2" cx="226.9" cy="-648.3" r="2.1"/>
	<circle class="st2" cx="259.3" cy="-648.3" r="2.1"/>
	<circle class="st2" cx="291.8" cy="-648.3" r="2.1"/>
	<circle class="st2" cx="324.2" cy="-648.3" r="2.1"/>
	<circle class="st2" cx="356.6" cy="-648.3" r="2.1"/>
	<circle class="st3" cx="421.4" cy="-648.3" r="2.1"/>
	<circle class="st3" cx="453.8" cy="-648.3" r="2.1"/>
	<circle class="st3" cx="486.2" cy="-648.3" r="2.1"/>
	<circle class="st3" cx="518.7" cy="-648.3" r="2.1"/>
	<circle class="st3" cx="551.1" cy="-648.3" r="2.1"/>
	<circle class="st3" cx="583.5" cy="-648.3" r="2.1"/>
	<circle class="st3" cx="615.9" cy="-648.3" r="2.1"/>
	<circle class="st3" cx="648.3" cy="-648.3" r="2.1"/>
	<circle class="st3" cx="680.8" cy="-648.3" r="2.1"/>
	<circle class="st3" cx="713.2" cy="-648.3" r="2.1"/>
	<circle class="st3" cx="745.6" cy="-648.3" r="2.1"/>
	<circle class="st3" cx="778" cy="-648.3" r="2.1"/>
	<circle class="st2" cx="0" cy="-680.8" r="2.1"/>
	<circle class="st2" cx="32.4" cy="-680.8" r="2.1"/>
	<circle class="st2" cx="64.8" cy="-680.8" r="2.1"/>
	<circle class="st2" cx="97.2" cy="-680.8" r="2.1"/>
	<circle class="st2" cx="129.7" cy="-680.8" r="2.1"/>
	<circle class="st2" cx="162.1" cy="-680.8" r="2.1"/>
	<circle class="st2" cx="194.5" cy="-680.8" r="2.1"/>
	<circle class="st2" cx="226.9" cy="-680.8" r="2.1"/>
	<circle class="st2" cx="259.3" cy="-680.8" r="2.1"/>
	<circle class="st2" cx="291.8" cy="-680.8" r="2.1"/>
	<circle class="st2" cx="324.2" cy="-680.8" r="2.1"/>
	<circle class="st2" cx="356.6" cy="-680.8" r="2.1"/>
	<circle class="st3" cx="421.4" cy="-680.8" r="2.1"/>
	<circle class="st3" cx="453.8" cy="-680.8" r="2.1"/>
	<circle class="st3" cx="486.2" cy="-680.8" r="2.1"/>
	<circle class="st3" cx="518.7" cy="-680.8" r="2.1"/>
	<circle class="st3" cx="551.1" cy="-680.8" r="2.1"/>
	<circle class="st3" cx="583.5" cy="-680.8" r="2.1"/>
	<circle class="st3" cx="615.9" cy="-680.8" r="2.1"/>
	<circle class="st3" cx="648.3" cy="-680.8" r="2.1"/>
	<circle class="st3" cx="680.8" cy="-680.8" r="2.1"/>
	<circle class="st3" cx="713.2" cy="-680.8" r="2.1"/>
	<circle class="st3" cx="745.6" cy="-680.8" r="2.1"/>
	<circle class="st3" cx="778" cy="-680.8" r="2.1"/>
	<circle class="st2" cx="0" cy="-713.2" r="2.1"/>
	<circle class="st2" cx="32.4" cy="-713.2" r="2.1"/>
	<circle class="st2" cx="64.8" cy="-713.2" r="2.1"/>
	<circle class="st2" cx="97.2" cy="-713.2" r="2.1"/>
	<circle class="st2" cx="129.7" cy="-713.2" r="2.1"/>
	<circle class="st2" cx="162.1" cy="-713.2" r="2.1"/>
	<circle class="st2" cx="194.5" cy="-713.2" r="2.1"/>
	<circle class="st2" cx="226.9" cy="-713.2" r="2.1"/>
	<circle class="st2" cx="259.3" cy="-713.2" r="2.1"/>
	<circle class="st2" cx="291.8" cy="-713.2" r="2.1"/>
	<circle class="st2" cx="324.2" cy="-713.2" r="2.1"/>
	<circle class="st2" cx="356.6" cy="-713.2" r="2.1"/>
	<circle class="st3" cx="421.4" cy="-713.2" r="2.1"/>
	<circle class="st3" cx="453.8" cy="-713.2" r="2.1"/>
	<circle class="st3" cx="486.2" cy="-713.2" r="2.1"/>
	<circle class="st3" cx="518.7" cy="-713.2" r="2.1"/>
	<circle class="st3" cx="551.1" cy="-713.2" r="2.1"/>
	<circle class="st3" cx="583.5" cy="-713.2" r="2.1"/>
	<circle class="st3" cx="615.9" cy="-713.2" r="2.1"/>
	<circle class="st3" cx="648.3" cy="-713.2" r="2.1"/>
	<circle class="st3" cx="680.8" cy="-713.2" r="2.1"/>
	<circle class="st3" cx="713.2" cy="-713.2" r="2.1"/>
	<circle class="st3" cx="745.6" cy="-713.2" r="2.1"/>
	<circle class="st3" cx="778" cy="-713.2" r="2.1"/>
	<circle class="st2" cx="0" cy="-745.6" r="2.1"/>
	<circle class="st2" cx="32.4" cy="-745.6" r="2.1"/>
	<circle class="st2" cx="64.8" cy="-745.6" r="2.1"/>
	<circle class="st2" cx="97.2" cy="-745.6" r="2.1"/>
	<circle class="st2" cx="129.7" cy="-745.6" r="2.1"/>
	<circle class="st2" cx="162.1" cy="-745.6" r="2.1"/>
	<circle class="st2" cx="194.5" cy="-745.6" r="2.1"/>
	<circle class="st2" cx="226.9" cy="-745.6" r="2.1"/>
	<circle class="st2" cx="259.3" cy="-745.6" r="2.1"/>
	<circle class="st2" cx="291.8" cy="-745.6" r="2.1"/>
	<circle class="st2" cx="324.2" cy="-745.6" r="2.1"/>
	<circle class="st2" cx="356.6" cy="-745.6" r="2.1"/>
	<circle class="st3" cx="421.4" cy="-745.6" r="2.1"/>
	<circle class="st3" cx="453.8" cy="-745.6" r="2.1"/>
	<circle class="st3" cx="486.2" cy="-745.6" r="2.1"/>
	<circle class="st3" cx="518.7" cy="-745.6" r="2.1"/>
	<circle class="st3" cx="551.1" cy="-745.6" r="2.1"/>
	<circle class="st3" cx="583.5" cy="-745.6" r="2.1"/>
	<circle class="st3" cx="615.9" cy="-745.6" r="2.1"/>
	<circle class="st3" cx="648.3" cy="-745.6" r="2.1"/>
	<circle class="st3" cx="680.8" cy="-745.6" r="2.1"/>
	<circle class="st3" cx="713.2" cy="-745.6" r="2.1"/>
	<circle class="st3" cx="745.6" cy="-745.6" r="2.1"/>
	<circle class="st3" cx="778" cy="-745.6" r="2.1"/>
	<circle class="st2" cx="0" cy="-778" r="2.1"/>
	<circle class="st2" cx="32.4" cy="-778" r="2.1"/>
	<circle class="st2" cx="64.8" cy="-778" r="2.1"/>
	<circle class="st2" cx="97.2" cy="-778" r="2.1"/>
	<circle class="st2" cx="129.7" cy="-778" r="2.1"/>
	<circle class="st2" cx="162.1" cy="-778" r="2.1"/>
	<circle class="st2" cx="194.5" cy="-778" r="2.1"/>
	<circle class="st2" cx="226.9" cy="-778" r="2.1"/>
	<circle class="st2" cx="259.3" cy="-778" r="2.1"/>
	<circle class="st2" cx="291.8" cy="-778" r="2.1"/>
	<circle class="st2" cx="324.2" cy="-778" r="2.1"/>
	<circle class="st2" cx="356.6" cy="-778" r="2.1"/>
	<circle class="st3" cx="421.4" cy="-778" r="2.1"/>
	<circle class="st3" cx="453.8" cy="-778" r="2.1"/>
	<circle class="st3" cx="486.2" cy="-778" r="2.1"/>
	<circle class="st3" cx="518.7" cy="-778" r="2.1"/>
	<circle class="st3" cx="551.1" cy="-778" r="2.1"/>
	<circle class="st3" cx="583.5" cy="-778" r="2.1"/>
	<circle class="st3" cx="615.9" cy="-778" r="2.1"/>
	<circle class="st3" cx="648.3" cy="-778" r="2.1"/>
	<circle class="st3" cx="680.8" cy="-778" r="2.1"/>
	<circle class="st3" cx="713.2" cy="-778" r="2.1"/>
	<circle class="st3" cx="745.6" cy="-778" r="2.1"/>
	<circle class="st3" cx="778" cy="-778" r="2.1"/>
</g>
<g>
	<g>
		<g>
			<line class="st4" x1="958.5" y1="461" x2="958.5" y2="347.4"/>
			<g>
				<path d="M958.5,331.3c2.8,7.6,7.6,17,12.7,22.8l-12.7-4.6l-12.7,4.6C950.9,348.3,955.7,338.9,958.5,331.3z"/>
			</g>
		</g>
	</g>
</g>
<g>
	<g>
		<defs>
			<rect id="SVGID_00000120554002975401741810000005681362038788670648_" x="959.8" y="456" width="3.9" height="2.8"/>
		</defs>
		<clipPath id="SVGID_00000131368253602890219310000013545380234098807938_">
			<use xlink:href="#SVGID_00000120554002975401741810000005681362038788670648_"  style="overflow:visible;"/>
		</clipPath>
		<g style="clip-path:url(#SVGID_00000131368253602890219310000013545380234098807938_);">
			<path class="st6" d="M959.9,458.8c0.7-1.2,2.1-2.8,3.6-2.7c-1,0.5-1.4,0.6-2,1.2c-0.4,0.3-0.8,0.9-0.9,1.5L959.9,458.8
				L959.9,458.8z"/>
		</g>
	</g>
	<g>
		<defs>
			<rect id="SVGID_00000031896509338176665000000002719573054086610306_" x="953.3" y="456" width="3.9" height="2.8"/>
		</defs>
		<clipPath id="SVGID_00000133519362164943299970000016014978807333809332_">
			<use xlink:href="#SVGID_00000031896509338176665000000002719573054086610306_"  style="overflow:visible;"/>
		</clipPath>
		<g style="clip-path:url(#SVGID_00000133519362164943299970000016014978807333809332_);">
			<path class="st6" d="M957.1,458.8c-0.7-1.2-2.1-2.8-3.6-2.7c1,0.5,1.4,0.6,2,1.2c0.4,0.3,0.8,0.9,0.9,1.5L957.1,458.8
				L957.1,458.8z"/>
		</g>
	</g>
</g>
<g>
	<defs>
		<rect id="SVGID_00000137837624327749181320000007156335205925883296_" x="961.7" y="456.1" width="20.3" height="51"/>
	</defs>
	<clipPath id="SVGID_00000034063940197480645270000010320428955689065645_">
		<use xlink:href="#SVGID_00000137837624327749181320000007156335205925883296_"  style="overflow:visible;"/>
	</clipPath>
	<g style="clip-path:url(#SVGID_00000034063940197480645270000010320428955689065645_);">
		<g>
			<g>
				<path class="st9" d="M971.7,506.9l-4.4-9.1l-0.7,0.4l4.1,8.1c0.1,0.2,0.3,0.6,0.5,0.6l0.4,0.2
					C971.7,507,971.7,506.9,971.7,506.9L971.7,506.9z"/>
				<path class="st9" d="M967.5,498.3L965,488c-0.1-0.2-0.3-0.2-0.4,0l-1.1,2.3c-0.2,0.4-0.2,0.9,0,1.4l3.2,6.6
					c0.1,0.2,0.5,0.6,0.8,0.8c0.1,0.1,0.3-0.1,0.2-0.2L967.5,498.3L967.5,498.3z"/>
			</g>
			<g>
				<path class="st9" d="M982,475.6L982,475.6c0-0.3-0.8-0.7-1-0.7l-6.5,0.2c-0.2,0-0.4,0.2-0.4,0.5l0,0c0,0.3,0.1,0.5,0.3,0.5
					l6.1-0.4C980.7,475.7,982,475.8,982,475.6L982,475.6z"/>
				<path class="st9" d="M974.7,475.3L974.7,475.3c-0.1-0.2-0.6-0.3-0.8-0.1l-5.5,3.7c-0.2,0.1-0.2,0.4-0.2,0.6l0,0
					c0.1,0.3,0.1,0.3,0.6,0l5.2-3.4C974.3,476,974.8,475.6,974.7,475.3L974.7,475.3z"/>
				<path class="st9" d="M968.7,479.3L968.7,479.3c0.1-0.2,0.2-0.6,0-0.6l-6.5-1.4c-0.2,0-0.4,0.1-0.4,0.4l0,0
					c0,0.2,0.1,0.5,0.3,0.5l5.9,1.5C968.1,479.8,968.4,479.7,968.7,479.3L968.7,479.3z"/>
			</g>
			<g>
				<path class="st9" d="M968.7,462.8c1.3-1.5,4.4-4,5.2-5.9c0-0.1,0.2-0.7,0.1-0.7c-1.8,1.5-5.6,5.7-5.6,5.7
					S968.5,462.9,968.7,462.8L968.7,462.8z"/>
				<path class="st9" d="M964.9,471.5l4.1-8.4c0.1-0.3,0.3-1,0-1.2l-0.2-0.1c-0.2-0.1-0.4,0-0.4,0.1l-3.8,7.7L964.9,471.5
					L964.9,471.5z"/>
			</g>
		</g>
	</g>
</g>
<g>
	<defs>
		<rect id="SVGID_00000104671515475410395340000001184527864739274666_" x="935" y="456.1" width="20.3" height="51"/>
	</defs>
	<clipPath id="SVGID_00000036940216177906713560000016711069167913625985_">
		<use xlink:href="#SVGID_00000104671515475410395340000001184527864739274666_"  style="overflow:visible;"/>
	</clipPath>
	<g style="clip-path:url(#SVGID_00000036940216177906713560000016711069167913625985_);">
		<g>
			<g>
				<path class="st9" d="M945.4,506.9l4.4-9.1l0.7,0.4l-4.1,8.1c-0.1,0.2-0.3,0.6-0.5,0.6l-0.4,0.2
					C945.4,507,945.3,506.9,945.4,506.9L945.4,506.9z"/>
				<path class="st9" d="M949.5,498.3l2.5-10.3c0.1-0.2,0.3-0.2,0.4,0l1.1,2.3c0.2,0.4,0.2,0.9,0,1.4l-3.2,6.6
					c-0.1,0.2-0.5,0.6-0.8,0.8c-0.1,0.1-0.3-0.1-0.2-0.2L949.5,498.3L949.5,498.3z"/>
			</g>
			<g>
				<path class="st9" d="M935.1,475.6L935.1,475.6c0-0.3,0.8-0.7,1-0.7l6.5,0.2c0.2,0,0.4,0.2,0.4,0.5l0,0c0,0.3-0.2,0.5-0.3,0.5
					l-6.1-0.4C936.3,475.7,935.1,475.8,935.1,475.6L935.1,475.6z"/>
				<path class="st9" d="M942.3,475.3L942.3,475.3c0.1-0.2,0.6-0.3,0.8-0.1l5.5,3.7c0.2,0.1,0.2,0.4,0.2,0.6l0,0
					c-0.1,0.3-0.1,0.3-0.6,0l-5.2-3.4C942.7,476,942.2,475.6,942.3,475.3L942.3,475.3z"/>
				<path class="st9" d="M948.4,479.3L948.4,479.3c-0.1-0.2-0.2-0.6,0-0.6l6.5-1.4c0.2,0,0.4,0.1,0.4,0.4l0,0c0,0.2-0.1,0.5-0.3,0.5
					l-5.9,1.5C948.9,479.8,948.6,479.7,948.4,479.3L948.4,479.3z"/>
			</g>
			<g>
				<path class="st9" d="M948.4,462.8c-1.3-1.5-4.4-4-5.2-5.9c-0.1-0.1-0.2-0.7-0.2-0.7c1.8,1.5,5.7,5.7,5.7,5.7
					S948.5,462.9,948.4,462.8L948.4,462.8z"/>
				<path class="st9" d="M952.2,471.5l-4.1-8.4c-0.1-0.3-0.3-1,0-1.2l0.2-0.1c0.2-0.1,0.4,0,0.4,0.1l3.8,7.7L952.2,471.5
					L952.2,471.5z"/>
			</g>
		</g>
	</g>
</g>
<g>
	<path class="st9" d="M958.5,496.5c2.8,0,4.1-1,5.7-2.5c1.9-1.9,2.2-4.2,1.9-7c-0.4-4.8-2.1-5.4-4.7-6.4c-0.3-0.1-0.6-0.2-1-0.4
		c-0.2-0.1-0.4-0.1-0.6-0.2c-0.4-0.2-0.9-0.3-1.3-0.3c-0.4,0-0.9,0.1-1.3,0.3c-0.2,0.1-0.4,0.2-0.6,0.2c-0.3,0.1-0.7,0.2-1,0.4
		c-2.6,1-4.3,1.6-4.7,6.4c-0.2,2.7,0.3,4.9,1.8,6.8C953.8,495.1,955.8,496.5,958.5,496.5L958.5,496.5z"/>
	<path d="M951,487c0.5-5.4,2.6-5.6,5.7-6.8c0.2-0.1,0.4-0.1,0.6-0.2c0.5-0.2,0.9-0.3,1.3-0.3s0.9,0.1,1.3,0.3
		c0.2,0.1,0.4,0.2,0.6,0.2c3.1,1.2,5.3,1.4,5.7,6.8c0.3,3-0.5,5.2-2,7.1c0,0,0,0,0,0l0,0c1.6-2,2.2-4.3,2-7.1
		c-0.4-4.9-2.2-5.5-4.8-6.5c-0.3-0.1-0.6-0.2-1-0.4c-0.2-0.1-0.4-0.1-0.5-0.2c-0.5-0.2-0.9-0.3-1.4-0.3c-0.5,0-0.9,0.1-1.4,0.3
		c-0.2,0.1-0.4,0.2-0.5,0.2c-0.3,0.1-0.7,0.2-1,0.4C953.1,481.5,951.3,482.1,951,487c-0.3,2.8,0.3,5,1.9,7c0,0,0-0.1,0-0.1
		C951.5,492.1,950.8,489.9,951,487L951,487z"/>
	<path d="M964.2,494.1C964.2,494.1,964.3,494.1,964.2,494.1L964.2,494.1C964.2,494.1,964.2,494.1,964.2,494.1L964.2,494.1z"/>
	<path d="M966.2,487c-0.5-5.4-2.6-5.6-5.7-6.8c-0.2-0.1-0.4-0.1-0.6-0.2c-0.5-0.2-0.9-0.3-1.3-0.3s-0.9,0.1-1.3,0.3
		c-0.2,0.1-0.4,0.2-0.6,0.2c-3.1,1.2-5.3,1.4-5.7,6.8c-0.2,3,0.5,5.1,1.8,6.9c0,0,0-0.1,0-0.1c-1.5-2-2-4.1-1.8-6.8
		c0.4-4.8,2.1-5.4,4.7-6.4c0.3-0.1,0.6-0.2,1-0.4c0.2-0.1,0.4-0.1,0.6-0.2c0.4-0.2,0.9-0.3,1.3-0.3c0.4,0,0.9,0.1,1.3,0.3
		c0.2,0.1,0.4,0.2,0.6,0.2c0.3,0.1,0.7,0.2,1,0.4C964,481.5,965.7,482.2,966.2,487c0.1,2.8-0.5,5-2,7c0,0,0,0,0,0.1
		C965.7,492.2,966.4,490,966.2,487L966.2,487z"/>
	<g>
		<g>
			<defs>
				<rect id="SVGID_00000126315339291505392820000010966143324549640639_" x="952.3" y="493.2" width="6.2" height="5.4"/>
			</defs>
			<clipPath id="SVGID_00000145059540472747847790000015012102984339991168_">
				<use xlink:href="#SVGID_00000126315339291505392820000010966143324549640639_"  style="overflow:visible;"/>
			</clipPath>
			<g style="clip-path:url(#SVGID_00000145059540472747847790000015012102984339991168_);">
				<path class="st12" d="M953.2,494.6c0.6,1,1.3,2.2,2.6,3.1c0.4,0.3,0.8,0.5,1.2,0.6c0,0,0,0,0,0c0.4,0.1,0.8,0.2,1.2,0.3
					c0.1,0,0.2,0,0.2,0c0.2,0,0.4,0,0.6,0c0.4,0,0.7-0.1,1.1-0.2h0c2.7-1,3.8-3.6,4.6-4.6c0,0-0.1,0-0.1-0.1
					c-2.5,2.1-2.8,2.4-5.8,2.4c-3.1,0-4.6-1.1-6.5-2.6c0,0,0,0.1,0,0.1C952.7,493.8,952.9,494.2,953.2,494.6L953.2,494.6z"/>
			</g>
		</g>
		<g>
			<defs>
				<rect id="SVGID_00000031895225534039378250000008502625593185391764_" x="958.5" y="493.2" width="6.2" height="5.4"/>
			</defs>
			<clipPath id="SVGID_00000036943826355903320820000006102794135586782598_">
				<use xlink:href="#SVGID_00000031895225534039378250000008502625593185391764_"  style="overflow:visible;"/>
			</clipPath>
			<g style="clip-path:url(#SVGID_00000036943826355903320820000006102794135586782598_);">
				<path class="st12" d="M963.9,494.6c-0.6,1-1.3,2.2-2.6,3.1c-0.4,0.3-0.8,0.5-1.2,0.6c0,0,0,0,0,0c-0.4,0.1-0.8,0.2-1.2,0.3
					c-0.1,0-0.2,0-0.2,0c-0.2,0-0.4,0-0.6,0c-0.4,0-0.7-0.1-1.1-0.2h0c-2.7-1-3.8-3.6-4.6-4.6c0,0,0.1,0,0.1-0.1
					c2.5,2.1,2.8,2.4,5.8,2.4c3.1,0,4.6-1.1,6.5-2.6c0,0,0,0.1,0,0.1C964.4,493.8,964.2,494.2,963.9,494.6L963.9,494.6z"/>
			</g>
		</g>
	</g>
</g>
<path d="M958.5,490.3c-3.8,0-6.9-2.1-7.4-4.8c0,0.2-0.1,0.4-0.1,0.7c0,3,3.3,5.4,7.4,5.4s7.4-2.4,7.4-5.4c0-0.2,0-0.4-0.1-0.7
	C965.5,488.2,962.3,490.3,958.5,490.3z"/>
<path d="M958.4,493c-3.2,0-6-1.2-7.3-2.9c0.2,2.6,3.5,4.6,7.5,4.6s7.5-2.2,7.5-4.9c0-0.1,0-0.1,0-0.2
	C964.9,491.6,961.9,493,958.4,493L958.4,493z"/>
<path class="st14" d="M966.3,476.6c-0.7,1.2-1.8,1.7-2.8,2c-0.5,1.2-1.2,2.2-2,2.9c-0.9,0.8-1.9,1.1-3,1.1c0,0-0.1,0-0.1,0
	c0,0-0.1,0-0.1,0c-1.1,0-2.1-0.4-3-1.1c-0.8-0.7-1.4-1.6-2-2.9c-0.9-0.3-1.9-0.9-2.6-1.9c-0.6-0.9,0.3-3.4,0.7-5
	c0.3-1.1,0.5-2.1,1.2-3c1.1-1.4,3.6-2.2,5.6-2.2c0.1,0,0.1,0,0.2,0s0.1,0,0.2,0c2,0,4.4,0.9,5.6,2.2c0.6,0.8,0.9,1.8,1.3,2.8
	C966,473,966.9,475.7,966.3,476.6L966.3,476.6z"/>
<g>
	<g>
		<defs>
			<rect id="SVGID_00000161602132986874947920000013239623032765905072_" x="955.8" y="458" width="2.5" height="4.4"/>
		</defs>
		<clipPath id="SVGID_00000021802630052487348120000013897245573074415237_">
			<use xlink:href="#SVGID_00000161602132986874947920000013239623032765905072_"  style="overflow:visible;"/>
		</clipPath>
		<g style="clip-path:url(#SVGID_00000021802630052487348120000013897245573074415237_);">
			<path class="st9" d="M956.2,461.6c0-0.2,0.2-0.8,0.1-1c0-0.6-0.4-0.1-0.5-1.2c0-0.3-0.1-1,0.4-1.3c0.6-0.3,1.4,0.6,1.5,1.2
				c0.1,0.5,0.3,1.5,0.4,2c0.1,0.5-0.1,0.9-0.6,1c0,0-0.1,0-0.1,0C956.9,462.5,956.3,462.2,956.2,461.6L956.2,461.6z"/>
		</g>
	</g>
	<g>
		<defs>
			<rect id="SVGID_00000036221319306240115370000010249122221159435199_" x="958.5" y="458" width="2.5" height="4.4"/>
		</defs>
		<clipPath id="SVGID_00000133513493449163372920000008262717567969435327_">
			<use xlink:href="#SVGID_00000036221319306240115370000010249122221159435199_"  style="overflow:visible;"/>
		</clipPath>
		<g style="clip-path:url(#SVGID_00000133513493449163372920000008262717567969435327_);">
			<path class="st9" d="M960.6,461.6c0-0.2-0.2-0.8-0.1-1c0-0.6,0.4-0.1,0.5-1.2c0-0.3,0.1-1-0.4-1.3c-0.6-0.3-1.4,0.6-1.5,1.2
				c-0.1,0.5-0.3,1.5-0.4,2c-0.1,0.5,0.1,0.9,0.6,1c0,0,0.1,0,0.1,0C959.9,462.5,960.6,462.2,960.6,461.6L960.6,461.6z"/>
		</g>
	</g>
</g>
<g>
	<g>
		<defs>
			<rect id="SVGID_00000000214915938966127680000014207911021468637577_" x="950.8" y="460.2" width="7.7" height="7"/>
		</defs>
		<clipPath id="SVGID_00000062899564217036993990000016838219248934990991_">
			<use xlink:href="#SVGID_00000000214915938966127680000014207911021468637577_"  style="overflow:visible;"/>
		</clipPath>
		<g style="clip-path:url(#SVGID_00000062899564217036993990000016838219248934990991_);">
			<path class="st18" d="M950.9,463.8c0-1.4,1.7-3,4.2-3.5c0.8-0.2,2.7,0,3.4,0c0.6,0,0.9,0.1,1.6,0.2c2.7,0.5,4.6,1.7,4.6,3.2
				c0,1.1-1.1,2.1-2.8,2.8c-1.2,0.4-1.9-0.3-3.8-0.1c-1.7,0-4.3,1-5.5,0.5C951,466.4,950.9,465,950.9,463.8L950.9,463.8z"/>
		</g>
	</g>
	<g>
		<defs>
			<rect id="SVGID_00000066487767123412013090000009060055628102127291_" x="958.5" y="460.2" width="7.7" height="7"/>
		</defs>
		<clipPath id="SVGID_00000085219016489966689570000013924903488056696244_">
			<use xlink:href="#SVGID_00000066487767123412013090000009060055628102127291_"  style="overflow:visible;"/>
		</clipPath>
		<g style="clip-path:url(#SVGID_00000085219016489966689570000013924903488056696244_);">
			<path class="st18" d="M966.2,463.8c0-1.4-1.7-3-4.2-3.5c-0.8-0.2-2.7,0-3.4,0c-0.7,0-0.9,0.1-1.6,0.2c-2.7,0.5-4.6,1.7-4.6,3.2
				c0,1.1,1.1,2.1,2.8,2.8c1.2,0.4,1.9-0.3,3.8-0.1c1.7,0,4.3,1,5.5,0.5C966,466.4,966.2,465,966.2,463.8L966.2,463.8z"/>
		</g>
	</g>
</g>
<g>
	<g>
		<defs>
			<rect id="SVGID_00000072240216538276184790000015456044395249704082_" x="950.8" y="460" width="4.4" height="6.7"/>
		</defs>
		<clipPath id="SVGID_00000063635711377146651930000015020670714238661311_">
			<use xlink:href="#SVGID_00000072240216538276184790000015456044395249704082_"  style="overflow:visible;"/>
		</clipPath>
		<g style="clip-path:url(#SVGID_00000063635711377146651930000015020670714238661311_);">
			<path class="st21" d="M951.5,462.2c1.1-1.6,2.7-2.4,3.2-2.2c0.5,0.2,0.4,0.7,0.1,1.5c-0.3,1-0.3,1.7-0.8,2.7
				c-0.9,1.8-2,2.7-2.6,2.3C950.8,466,950.4,463.9,951.5,462.2z"/>
		</g>
	</g>
	<g>
		<defs>
			<rect id="SVGID_00000015334610083199829080000014737626588961741753_" x="961.9" y="460" width="4.4" height="6.7"/>
		</defs>
		<clipPath id="SVGID_00000144336008030234697500000002070271627245694357_">
			<use xlink:href="#SVGID_00000015334610083199829080000014737626588961741753_"  style="overflow:visible;"/>
		</clipPath>
		<g style="clip-path:url(#SVGID_00000144336008030234697500000002070271627245694357_);">
			<path class="st21" d="M965.6,462.2c-1.1-1.6-2.7-2.4-3.2-2.2c-0.5,0.2-0.4,0.7-0.1,1.5c0.4,1,0.3,1.7,0.8,2.7
				c0.9,1.8,2,2.7,2.6,2.3C966.3,466,966.7,463.9,965.6,462.2z"/>
		</g>
	</g>
</g>
<g>
	<path d="M956.3,469c-0.5,1.4-0.6,2.9-0.3,4.4c0.1,0.4,0.2,0.8,0.3,1.2c0,0,0,0,0.1,0.1c0,0,0.1,0,0,0c-0.5-1.4-0.6-2.9-0.3-4.4
		c0.1-0.4,0.2-0.8,0.3-1.2C956.4,469,956.3,468.9,956.3,469L956.3,469L956.3,469z"/>
	<path d="M958.7,470.9c-0.2,1.2-0.2,2.5-0.1,3.7c0,0.4,0.1,0.7,0.1,1c0,0,0.1,0.1,0.1,0c-0.2-1.2-0.2-2.5-0.1-3.7c0-0.3,0-0.7,0.1-1
		C958.8,470.9,958.7,470.9,958.7,470.9C958.7,470.9,958.7,470.9,958.7,470.9z"/>
	<path d="M960.7,469c0.5,1.4,0.6,2.9,0.3,4.4c-0.1,0.4-0.2,0.8-0.3,1.2c0,0.1,0.1,0.1,0.1,0.1c0.5-1.4,0.6-2.9,0.3-4.4
		c-0.1-0.4-0.2-0.8-0.3-1.2C960.8,469,960.8,469,960.7,469C960.8,469,960.7,469,960.7,469L960.7,469L960.7,469z"/>
	<path d="M956.8,475.7c-0.2,1-0.2,2.1,0,3.2c0.1,0.3,0.1,0.6,0.2,0.9c0,0,0,0.1,0.1,0.1c0,0,0.1,0,0,0c-0.3-1-0.5-2.1-0.4-3.1
		c0-0.3,0.1-0.6,0.1-0.9C957,475.7,956.8,475.6,956.8,475.7L956.8,475.7L956.8,475.7z"/>
	<path d="M960.7,475.7c0,1-0.1,2.1-0.5,3.1c-0.1,0.3-0.2,0.6-0.3,0.8c0,0,0.1,0.1,0.1,0.1c0.5-1,0.7-2,0.8-3.1c0-0.3,0-0.6,0-0.9
		C960.8,475.7,960.7,475.6,960.7,475.7C960.7,475.7,960.7,475.7,960.7,475.7z"/>
	<path d="M954.6,469.7c-0.4,1-0.5,2.1-0.5,3.2c0,0,0.1,0.1,0.1,0c0-1.1,0.2-2.1,0.5-3.2C954.7,469.7,954.6,469.7,954.6,469.7
		C954.6,469.7,954.6,469.7,954.6,469.7z"/>
	<path d="M962.4,469.4c0.3,1,0.5,2.1,0.5,3.2c0,0,0.1,0.1,0.1,0C963,471.5,962.8,470.4,962.4,469.4
		C962.5,469.3,962.3,469.3,962.4,469.4L962.4,469.4L962.4,469.4z"/>
</g>
<path class="st23" d="M948.8,494c-0.1-5.4,0.4-19.1,3.8-25.1c0.2-0.3,1.5,0.3,1.5,0.3s1.8,8.7,1.9,9c3.5,10.5,7.9,13.1,7.8,16.4
	c-0.1,6.2-2.5,11.7-6.7,11.5C951.1,505.7,948.9,500.1,948.8,494L948.8,494z"/>
<path class="st23" d="M968.2,494.5c0.1-5.4-0.5-19.1-3.8-25.1c-0.2-0.3-1.5,0.3-1.5,0.3s-1.8,8.7-1.9,9c-3.5,10.5-7.8,13.1-7.8,16.4
	c0.1,6.2,2.6,11.7,6.7,11.5C965.9,506.3,968,500.6,968.2,494.5z"/>
<g>
	<path d="M958.5,461.7v1c0,0,0,0.1,0,0.1c0,0,0.1,0,0.1,0v-1C958.6,461.8,958.5,461.7,958.5,461.7
		C958.5,461.7,958.5,461.7,958.5,461.7L958.5,461.7z"/>
	<path d="M960,462c-0.1,0.2-0.2,0.5-0.3,0.7c0,0.1,0.1,0.1,0.1,0.1c0.1-0.2,0.2-0.5,0.3-0.7C960.2,462,960.1,462,960,462L960,462
		L960,462z"/>
	<path d="M956.8,462.4c0.1,0.2,0.2,0.4,0.3,0.6c0,0,0,0.1,0.1,0.1c0,0,0,0,0-0.1C957.1,462.8,957,462.6,956.8,462.4
		C956.8,462.4,956.8,462.4,956.8,462.4C956.8,462.4,956.8,462.4,956.8,462.4L956.8,462.4z"/>
	<path d="M961.5,464c-0.4,0.3-0.7,0.7-0.9,1.1c0,0,0.1,0.1,0.1,0.1C960.9,464.8,961.2,464.4,961.5,464
		C961.6,464.1,961.5,464,961.5,464L961.5,464z"/>
	<path d="M955.7,464.1c0.3,0.3,0.6,0.7,0.9,1.1c0,0,0.1,0,0.1,0C956.4,464.8,956.1,464.4,955.7,464.1
		C955.7,464,955.6,464,955.7,464.1L955.7,464.1z"/>
	<path d="M959.2,463.9c-0.1,0.3-0.2,0.5-0.2,0.8c0,0.1,0.1,0.1,0.1,0.1c0.1-0.3,0.1-0.6,0.2-0.8
		C959.4,463.9,959.2,463.8,959.2,463.9L959.2,463.9z"/>
	<path d="M957.8,463.8c0.1,0.3,0.1,0.6,0.2,0.9c0,0,0,0,0.1,0.1c0,0,0,0,0,0c-0.1-0.3-0.1-0.6-0.2-0.9
		C957.9,463.8,957.8,463.8,957.8,463.8C957.8,463.8,957.8,463.8,957.8,463.8L957.8,463.8z"/>
	<path d="M962.2,456c-0.1,0.2-0.2,0.5-0.3,0.7c0,0,0.1,0.1,0.1,0C962.1,456.5,962.2,456.3,962.2,456C962.4,456,962.3,456,962.2,456
		L962.2,456L962.2,456z"/>
	<path d="M955.2,456.2c0.1,0.2,0.2,0.5,0.3,0.7c0,0.1,0.1,0.1,0.1,0c-0.1-0.2-0.2-0.5-0.3-0.7C955.3,456.2,955.2,456.2,955.2,456.2
		C955.2,456.2,955.2,456.2,955.2,456.2L955.2,456.2L955.2,456.2z"/>
	<path d="M962.9,455.8c-0.1,0.1-0.2,0.3-0.3,0.5c0,0,0,0,0,0.1c0,0,0.1,0,0.1,0C962.8,456.2,962.9,456,962.9,455.8
		C963.1,455.9,963,455.8,962.9,455.8C962.9,455.8,962.9,455.8,962.9,455.8z"/>
	<path d="M954.6,456c0.1,0.1,0.2,0.3,0.3,0.5c0,0,0,0,0.1,0c0,0,0,0,0,0C954.9,456.3,954.8,456.1,954.6,456
		C954.7,456,954.6,455.9,954.6,456C954.6,455.9,954.6,456,954.6,456L954.6,456L954.6,456z"/>
	<path d="M961.5,456.4c-0.1,0.2-0.1,0.5-0.1,0.7c0,0,0,0,0,0.1c0,0,0.1,0,0.1,0c0-0.2,0.1-0.5,0.1-0.7
		C961.6,456.4,961.5,456.3,961.5,456.4C961.5,456.4,961.5,456.4,961.5,456.4z"/>
	<path d="M956,456.6c0.1,0.2,0.1,0.5,0.1,0.7c0,0,0.1,0.1,0.1,0C956.2,457.1,956.1,456.8,956,456.6C956,456.6,955.9,456.5,956,456.6
		L956,456.6L956,456.6z"/>
</g>
<g>
	<path d="M971.1,458.3c-0.1,0.4-0.2,0.7-0.1,1.1c0,0,0.1,0.1,0.1,0c0-0.4,0-0.7,0.1-1.1C971.2,458.3,971.1,458.2,971.1,458.3
		L971.1,458.3z"/>
	<path d="M971.8,457.8c-0.1,0.4-0.2,0.7-0.3,1.1c0,0,0.1,0.1,0.1,0c0.1-0.4,0.2-0.7,0.3-1.1C971.9,457.8,971.8,457.7,971.8,457.8
		C971.8,457.8,971.8,457.8,971.8,457.8z"/>
	<path d="M972.4,457.3c-0.1,0.4-0.3,0.7-0.4,1.1c0,0,0.1,0.1,0.1,0c0.1-0.4,0.3-0.7,0.4-1.1C972.5,457.3,972.4,457.3,972.4,457.3
		C972.4,457.3,972.4,457.3,972.4,457.3z"/>
</g>
<g>
	<path d="M946,458.3c0.1,0.4,0.2,0.7,0.1,1.1c0,0.1,0.1,0.1,0.1,0.1c0-0.4,0-0.7-0.1-1.1C946.1,458.3,946.1,458.3,946,458.3
		C946,458.3,946,458.3,946,458.3C946,458.3,946,458.3,946,458.3z"/>
	<path d="M945.3,457.8c0.1,0.4,0.2,0.7,0.3,1.1c0,0.1,0.1,0.1,0.1,0c-0.1-0.4-0.1-0.7-0.3-1.1C945.4,457.8,945.4,457.8,945.3,457.8
		C945.3,457.8,945.3,457.8,945.3,457.8C945.3,457.8,945.3,457.8,945.3,457.8z"/>
	<path d="M944.7,457.3c0.1,0.4,0.3,0.7,0.4,1.1c0,0.1,0.1,0.1,0.1,0C945.1,458.1,944.9,457.7,944.7,457.3
		C944.8,457.3,944.7,457.3,944.7,457.3C944.7,457.3,944.7,457.3,944.7,457.3z"/>
</g>
</svg>
